<?xml version="1.0" encoding="utf-8"?>
<!-- Generator: Adobe Illustrator 16.0.2, SVG Export Plug-In . SVG Version: 6.00 Build 0)  -->
<!DOCTYPE svg PUBLIC "-//W3C//DTD SVG 1.1//EN" "http://www.w3.org/Graphics/SVG/1.1/DTD/svg11.dtd">
<svg version="1.1" id="Layer_1" xmlns="http://www.w3.org/2000/svg" xmlns:xlink="http://www.w3.org/1999/xlink" x="0px" y="0px"
	 width="206.957px" height="61.738px" viewBox="0 0 206.957 61.738" enable-background="new 0 0 206.957 61.738"
	 xml:space="preserve">
<g>
	<g>
		<path fill="#9F9E9E" d="M76.759,35.635c-1.122-0.649-1.984-1.577-2.585-2.78c-0.602-1.203-0.902-2.625-0.902-4.271
			c0-1.628,0.301-3.043,0.902-4.246c0.601-1.202,1.463-2.126,2.585-2.771c1.122-0.646,2.438-0.968,3.949-0.968
			c1.07,0,2.064,0.165,2.981,0.492c0.917,0.33,1.69,0.813,2.321,1.441l-0.792,1.672c-0.734-0.601-1.456-1.038-2.167-1.309
			c-0.712-0.271-1.485-0.407-2.321-0.407c-1.628,0-2.886,0.528-3.773,1.584c-0.888,1.056-1.331,2.56-1.331,4.51
			c0,1.965,0.443,3.48,1.331,4.543c0.887,1.063,2.145,1.598,3.773,1.598c0.836,0,1.609-0.139,2.321-0.407
			c0.711-0.271,1.433-0.708,2.167-1.312l0.792,1.675c-0.631,0.63-1.405,1.108-2.321,1.438s-1.911,0.495-2.981,0.495
			C79.197,36.614,77.88,36.288,76.759,35.635z"/>
		<path fill="#9F9E9E" d="M98.549,29.53v6.908h-2.222v-6.776c0-0.968-0.187-1.672-0.561-2.112c-0.374-0.438-0.972-0.657-1.793-0.657
			c-0.939,0-1.691,0.293-2.255,0.88c-0.564,0.587-0.847,1.372-0.847,2.354v6.314h-2.2V20.247h2.2v6.82
			c0.366-0.646,0.872-1.136,1.518-1.477c0.645-0.337,1.371-0.506,2.178-0.506C97.222,25.086,98.549,26.568,98.549,29.53z"/>
		<path fill="#9F9E9E" d="M111.859,25.351v11.088h-2.199v-1.895c-0.323,0.66-0.803,1.166-1.441,1.521
			c-0.638,0.352-1.382,0.525-2.232,0.525c-0.981,0-1.846-0.231-2.583-0.701c-0.741-0.472-1.316-1.136-1.727-1.991
			c-0.411-0.858-0.616-1.859-0.616-3.003c0-1.146,0.209-2.156,0.627-3.036s1.001-1.563,1.749-2.046
			c0.75-0.484,1.598-0.729,2.55-0.729c0.853,0,1.593,0.183,2.224,0.539c0.63,0.359,1.114,0.869,1.452,1.529V25.35L111.859,25.351
			L111.859,25.351z M108.834,33.788c0.55-0.697,0.825-1.676,0.825-2.937c0-1.276-0.275-2.262-0.825-2.948
			c-0.55-0.689-1.331-1.034-2.343-1.034c-0.998,0-1.778,0.355-2.343,1.067c-0.565,0.711-0.85,1.695-0.85,2.959
			c0,1.247,0.282,2.215,0.85,2.901c0.563,0.69,1.353,1.034,2.365,1.034C107.512,34.833,108.285,34.484,108.834,33.788z"/>
		<path fill="#9F9E9E" d="M123.541,25.813c0.748,0.481,1.331,1.166,1.75,2.046c0.418,0.88,0.627,1.892,0.627,3.036
			c0,1.144-0.206,2.145-0.617,3.003c-0.41,0.855-0.988,1.521-1.736,1.991c-0.748,0.469-1.604,0.701-2.572,0.701
			c-0.854,0-1.598-0.179-2.233-0.536c-0.637-0.359-1.116-0.878-1.438-1.554v6.688h-2.199V28.475c0-1.159-0.059-2.2-0.176-3.124
			h2.066l0.221,2.046c0.293-0.733,0.771-1.301,1.431-1.705c0.659-0.403,1.438-0.605,2.332-0.605
			C121.941,25.086,122.792,25.329,123.541,25.813z M122.814,33.798c0.559-0.688,0.836-1.654,0.836-2.901
			c0-1.264-0.277-2.248-0.836-2.959c-0.56-0.711-1.334-1.067-2.332-1.067c-1.025,0-1.813,0.345-2.354,1.034
			c-0.543,0.688-0.813,1.672-0.813,2.948c0,1.273,0.273,2.259,0.824,2.945c0.551,0.69,1.33,1.034,2.344,1.034
			C121.48,34.833,122.257,34.488,122.814,33.798z"/>
		<path fill="#9F9E9E" d="M131.352,27.066v5.563c0,0.766,0.164,1.305,0.494,1.617c0.329,0.315,0.788,0.476,1.375,0.476
			c0.381,0,0.771-0.062,1.166-0.179v1.807c-0.484,0.158-1.033,0.239-1.65,0.239c-1.143,0-2.029-0.319-2.659-0.968
			c-0.634-0.645-0.946-1.584-0.946-2.813v-5.742h-2.154V25.35h2.154v-2.772l2.225-0.77v3.542h3.059v1.716H131.352z"/>
		<path fill="#9F9E9E" d="M145.915,30.938h-7.92c0.073,2.596,1.254,3.894,3.542,3.894c1.275,0,2.441-0.418,3.498-1.254l0.682,1.584
			c-0.498,0.44-1.133,0.789-1.902,1.045c-0.771,0.256-1.543,0.385-2.318,0.385c-1.771,0-3.168-0.509-4.184-1.526
			c-1.012-1.021-1.518-2.416-1.518-4.191c0-1.129,0.225-2.134,0.672-3.014s1.074-1.563,1.881-2.046
			c0.807-0.484,1.723-0.729,2.75-0.729c1.496,0,2.672,0.484,3.53,1.452s1.287,2.313,1.287,4.026V30.938L145.915,30.938z
			 M139.096,27.484c-0.529,0.499-0.867,1.21-1.014,2.134h5.874c-0.088-0.938-0.374-1.654-0.856-2.145
			c-0.482-0.491-1.138-0.737-1.959-0.737C140.305,26.736,139.623,26.986,139.096,27.484z"/>
		<path fill="#9F9E9E" d="M155.044,25.24L155,27.265c-0.396-0.146-0.829-0.223-1.298-0.223c-1.013,0-1.771,0.308-2.277,0.913
			c-0.506,0.609-0.759,1.375-0.759,2.299v6.185h-2.2v-7.964c0-1.159-0.059-2.2-0.176-3.124h2.067l0.197,2.002
			c0.293-0.733,0.748-1.294,1.362-1.686c0.616-0.388,1.308-0.583,2.065-0.583C154.326,25.086,154.678,25.138,155.044,25.24z"/>
		<path fill="#9F9E9E" d="M167.102,34.568v1.87h-10.273v-1.694l5.393-5.918c0.688-0.763,1.189-1.456,1.508-2.079
			c0.313-0.623,0.474-1.243,0.474-1.856c0-0.792-0.229-1.397-0.683-1.815c-0.455-0.418-1.115-0.627-1.979-0.627
			c-1.452,0-2.903,0.572-4.356,1.716l-0.813-1.672c0.615-0.572,1.4-1.03,2.354-1.375c0.953-0.344,1.914-0.517,2.883-0.517
			c1.496,0,2.683,0.374,3.556,1.122c0.872,0.745,1.31,1.76,1.31,3.033c0,0.91-0.197,1.771-0.595,2.585
			c-0.396,0.814-1.06,1.723-1.979,2.72l-4.182,4.51L167.102,34.568L167.102,34.568z"/>
		<path fill="#9F9E9E" d="M180.873,31.356v1.826h-2.311v3.256h-2.244v-3.256H169.3v-1.694l7.437-10.714h1.826v10.582H180.873z
			 M171.521,31.356h4.797v-6.908L171.521,31.356z"/>
		<path fill="#9F9E9E" d="M182.809,20.774h10.604v1.691l-7.238,13.973h-2.44l7.218-13.794h-8.142v-1.87H182.809z"/>
	</g>
</g>
<g>
	<g>
		<g>
			<g>
				<g>
					<defs>
						<path id="SVGID_2_" d="M34.594,7.846c-0.341,0.229-0.683,0.112-1.023,0.112c-1.479,0.229-2.843,0.908-4.093,1.591
							c-3.98,2.05-7.96,4.321-11.827,6.823c-2.729,1.82-5.458,3.752-7.959,6.026c-0.797,0.796-1.593,1.478-1.934,2.502
							c0,0.342,0.227,0.569,0.455,0.796c1.479,1.365,2.957,2.616,4.435,3.979c0.227,0.229,0.455,0.568,0.797,0.455
							c2.16-1.591,4.32-2.957,6.48-4.317c4.094-2.503,8.074-5.004,12.395-7.051c0.91-0.455,1.819-0.798,2.729-0.909
							c1.82-0.229,3.412,0.227,5.118,0.796c7.163,2.501,13.53,6.708,19.671,11.027c0.341,0.114,0.568,0.344,0.682,0.685
							c0.455,0.227,0.683-0.114,0.911-0.455c1.59-1.251,2.956-2.729,4.092-4.434c0.228-0.229,0.456-0.569,0.456-0.911
							c-0.229-0.795-0.797-1.251-1.251-1.819c-0.91-1.021-1.935-1.82-2.958-2.615c-3.524-2.613-7.276-4.772-11.142-6.82
							c-2.842-1.595-5.685-3.187-8.755-4.32c-1.592-0.57-3.184-0.797-4.775-1.138L34.594,7.846L34.594,7.846z"/>
					</defs>
					<clipPath id="SVGID_4_">
						<use xlink:href="#SVGID_2_"  overflow="visible"/>
					</clipPath>
				</g>
			</g>
		</g>
	</g>
	<g>
		<g>
			<g>
				<g>
					<path id="SVGID_16_" fill="#9F9E9E" d="M34.594,7.846c-0.341,0.229-0.683,0.112-1.023,0.112
						c-1.479,0.229-2.843,0.908-4.093,1.591c-3.98,2.05-7.96,4.321-11.827,6.823c-2.729,1.82-5.458,3.752-7.959,6.026
						c-0.797,0.796-1.593,1.478-1.934,2.502c0,0.342,0.227,0.569,0.455,0.796c1.479,1.365,2.957,2.616,4.435,3.979
						c0.227,0.229,0.455,0.568,0.797,0.455c2.16-1.591,4.32-2.957,6.48-4.317c4.094-2.503,8.074-5.004,12.395-7.051
						c0.91-0.455,1.819-0.798,2.729-0.909c1.82-0.229,3.412,0.227,5.118,0.796c7.163,2.501,13.53,6.708,19.671,11.027
						c0.341,0.114,0.568,0.344,0.682,0.685c0.455,0.227,0.683-0.114,0.911-0.455c1.59-1.251,2.956-2.729,4.092-4.434
						c0.228-0.229,0.456-0.569,0.456-0.911c-0.229-0.795-0.797-1.251-1.251-1.819c-0.91-1.021-1.935-1.82-2.958-2.615
						c-3.524-2.613-7.276-4.772-11.142-6.82c-2.842-1.595-5.685-3.187-8.755-4.32c-1.592-0.57-3.184-0.797-4.775-1.138L34.594,7.846
						L34.594,7.846z"/>
				</g>
				<g>
					<defs>
						<path id="SVGID_5_" d="M34.594,7.846c-0.341,0.229-0.683,0.112-1.023,0.112c-1.479,0.229-2.843,0.908-4.093,1.591
							c-3.98,2.05-7.96,4.321-11.827,6.823c-2.729,1.82-5.458,3.752-7.959,6.026c-0.797,0.796-1.593,1.478-1.934,2.502
							c0,0.342,0.227,0.569,0.455,0.796c1.479,1.365,2.957,2.616,4.435,3.979c0.227,0.229,0.455,0.568,0.797,0.455
							c2.16-1.591,4.32-2.957,6.48-4.317c4.094-2.503,8.074-5.004,12.395-7.051c0.91-0.455,1.819-0.798,2.729-0.909
							c1.82-0.229,3.412,0.227,5.118,0.796c7.163,2.501,13.53,6.708,19.671,11.027c0.341,0.114,0.568,0.344,0.682,0.685
							c0.455,0.227,0.683-0.114,0.911-0.455c1.59-1.251,2.956-2.729,4.092-4.434c0.228-0.229,0.456-0.569,0.456-0.911
							c-0.229-0.795-0.797-1.251-1.251-1.819c-0.91-1.021-1.935-1.82-2.958-2.615c-3.524-2.613-7.276-4.772-11.142-6.82
							c-2.842-1.595-5.685-3.187-8.755-4.32c-1.592-0.57-3.184-0.797-4.775-1.138L34.594,7.846L34.594,7.846z"/>
					</defs>
					<use xlink:href="#SVGID_5_"  overflow="visible" fill="#9F9E9E"/>
					<clipPath id="SVGID_6_">
						<use xlink:href="#SVGID_5_"  overflow="visible"/>
					</clipPath>
					<defs>
						<filter id="Adobe_OpacityMaskFilter" filterUnits="userSpaceOnUse" x="7.759" y="7.846" width="58.219" height="22.74">
							<feColorMatrix  type="matrix" values="1 0 0 0 0  0 1 0 0 0  0 0 1 0 0  0 0 0 1 0"/>
						</filter>
					</defs>
					<mask maskUnits="userSpaceOnUse" x="7.759" y="7.846" width="58.219" height="22.74" id="SVGID_15_">
						<g filter="url(#Adobe_OpacityMaskFilter)">
							<g>
								<g>
									<g>
										<defs>
											<path id="SVGID_7_" d="M34.594,7.846c-0.341,0.229-0.683,0.112-1.023,0.112c-1.479,0.229-2.843,0.908-4.093,1.591
												c-3.98,2.05-7.96,4.321-11.827,6.823c-2.729,1.82-5.458,3.752-7.959,6.026c-0.797,0.796-1.593,1.478-1.934,2.502
												c0,0.342,0.227,0.569,0.455,0.796c1.479,1.365,2.957,2.616,4.435,3.979c0.227,0.229,0.455,0.568,0.797,0.455
												c2.16-1.591,4.32-2.957,6.48-4.317c4.094-2.503,8.074-5.004,12.395-7.051c0.91-0.455,1.819-0.798,2.729-0.909
												c1.82-0.229,3.412,0.227,5.118,0.796c7.163,2.501,13.53,6.708,19.671,11.027c0.341,0.114,0.568,0.344,0.682,0.685
												c0.455,0.227,0.683-0.114,0.911-0.455c1.59-1.251,2.956-2.729,4.092-4.434c0.228-0.229,0.456-0.569,0.456-0.911
												c-0.229-0.795-0.797-1.251-1.251-1.819c-0.91-1.021-1.935-1.82-2.958-2.615c-3.524-2.613-7.276-4.772-11.142-6.82
												c-2.842-1.595-5.685-3.187-8.755-4.32c-1.592-0.57-3.184-0.797-4.775-1.138L34.594,7.846L34.594,7.846z"/>
										</defs>
										<clipPath id="SVGID_8_" clip-path="url(#SVGID_6_)">
											<use xlink:href="#SVGID_7_"  overflow="visible"/>
										</clipPath>
									</g>
								</g>
								<g>
									<g>
										<defs>
											<path id="SVGID_9_" d="M34.594,7.846c-0.341,0.229-0.683,0.112-1.023,0.112c-1.479,0.229-2.843,0.908-4.093,1.591
												c-3.98,2.05-7.96,4.321-11.827,6.823c-2.729,1.82-5.458,3.752-7.959,6.026c-0.797,0.796-1.593,1.478-1.934,2.502
												c0,0.342,0.227,0.569,0.455,0.796c1.479,1.365,2.957,2.616,4.435,3.979c0.227,0.229,0.455,0.568,0.797,0.455
												c2.16-1.591,4.32-2.957,6.48-4.317c4.094-2.503,8.074-5.004,12.395-7.051c0.91-0.455,1.819-0.798,2.729-0.909
												c1.82-0.229,3.412,0.227,5.118,0.796c7.163,2.501,13.53,6.708,19.671,11.027c0.341,0.114,0.568,0.344,0.682,0.685
												c0.455,0.227,0.683-0.114,0.911-0.455c1.59-1.251,2.956-2.729,4.092-4.434c0.228-0.229,0.456-0.569,0.456-0.911
												c-0.229-0.795-0.797-1.251-1.251-1.819c-0.91-1.021-1.935-1.82-2.958-2.615c-3.524-2.613-7.276-4.772-11.142-6.82
												c-2.842-1.595-5.685-3.187-8.755-4.32c-1.592-0.57-3.184-0.797-4.775-1.138L34.594,7.846L34.594,7.846z"/>
										</defs>
										<clipPath id="SVGID_10_" clip-path="url(#SVGID_6_)">
											<use xlink:href="#SVGID_9_"  overflow="visible"/>
										</clipPath>
									</g>
									<g>
										<defs>
											<path id="SVGID_11_" d="M34.594,7.846c-0.341,0.229-0.683,0.112-1.023,0.112c-1.479,0.229-2.843,0.908-4.093,1.591
												c-3.98,2.05-7.96,4.321-11.827,6.823c-2.729,1.82-5.458,3.752-7.959,6.026c-0.797,0.796-1.593,1.478-1.934,2.502
												c0,0.342,0.227,0.569,0.455,0.796c1.479,1.365,2.957,2.616,4.435,3.979c0.227,0.229,0.455,0.568,0.797,0.455
												c2.16-1.591,4.32-2.957,6.48-4.317c4.094-2.503,8.074-5.004,12.395-7.051c0.91-0.455,1.819-0.798,2.729-0.909
												c1.82-0.229,3.412,0.227,5.118,0.796c7.163,2.501,13.53,6.708,19.671,11.027c0.341,0.114,0.568,0.344,0.682,0.685
												c0.455,0.227,0.683-0.114,0.911-0.455c1.59-1.251,2.956-2.729,4.092-4.434c0.228-0.229,0.456-0.569,0.456-0.911
												c-0.229-0.795-0.797-1.251-1.251-1.819c-0.91-1.021-1.935-1.82-2.958-2.615c-3.524-2.613-7.276-4.772-11.142-6.82
												c-2.842-1.595-5.685-3.187-8.755-4.32c-1.592-0.57-3.184-0.797-4.775-1.138L34.594,7.846L34.594,7.846z"/>
										</defs>
										<defs>
											<path id="SVGID_12_" d="M34.594,7.846c-0.341,0.229-0.683,0.112-1.023,0.112c-1.479,0.229-2.843,0.908-4.093,1.591
												c-3.98,2.05-7.96,4.321-11.827,6.823c-2.729,1.82-5.458,3.752-7.959,6.026c-0.797,0.796-1.593,1.478-1.934,2.502
												c0,0.342,0.227,0.569,0.455,0.796c1.479,1.365,2.957,2.616,4.435,3.979c0.227,0.229,0.455,0.568,0.797,0.455
												c2.16-1.591,4.32-2.957,6.48-4.317c4.094-2.503,8.074-5.004,12.395-7.051c0.91-0.455,1.819-0.798,2.729-0.909
												c1.82-0.229,3.412,0.227,5.118,0.796c7.163,2.501,13.53,6.708,19.671,11.027c0.341,0.114,0.568,0.344,0.682,0.685
												c0.455,0.227,0.683-0.114,0.911-0.455c1.59-1.251,2.956-2.729,4.092-4.434c0.228-0.229,0.456-0.569,0.456-0.911
												c-0.229-0.795-0.797-1.251-1.251-1.819c-0.91-1.021-1.935-1.82-2.958-2.615c-3.524-2.613-7.276-4.772-11.142-6.82
												c-2.842-1.595-5.685-3.187-8.755-4.32c-1.592-0.57-3.184-0.797-4.775-1.138L34.594,7.846L34.594,7.846z"/>
										</defs>
										<clipPath id="SVGID_13_" clip-path="url(#SVGID_6_)">
											<use xlink:href="#SVGID_11_"  overflow="visible"/>
										</clipPath>
										<clipPath id="SVGID_14_" clip-path="url(#SVGID_13_)">
											<use xlink:href="#SVGID_12_"  overflow="visible"/>
										</clipPath>
									</g>
									<g>
										<defs>
											<path id="SVGID_17_" d="M34.594,7.846c-0.341,0.229-0.683,0.112-1.023,0.112c-1.479,0.229-2.843,0.908-4.093,1.591
												c-3.98,2.05-7.96,4.321-11.827,6.823c-2.729,1.82-5.458,3.752-7.959,6.026c-0.797,0.796-1.593,1.478-1.934,2.502
												c0,0.342,0.227,0.569,0.455,0.796c1.479,1.365,2.957,2.616,4.435,3.979c0.227,0.229,0.455,0.568,0.797,0.455
												c2.16-1.591,4.32-2.957,6.48-4.317c4.094-2.503,8.074-5.004,12.395-7.051c0.91-0.455,1.819-0.798,2.729-0.909
												c1.82-0.229,3.412,0.227,5.118,0.796c7.163,2.501,13.53,6.708,19.671,11.027c0.341,0.114,0.568,0.344,0.682,0.685
												c0.455,0.227,0.683-0.114,0.911-0.455c1.59-1.251,2.956-2.729,4.092-4.434c0.228-0.229,0.456-0.569,0.456-0.911
												c-0.229-0.795-0.797-1.251-1.251-1.819c-0.91-1.021-1.935-1.82-2.958-2.615c-3.524-2.613-7.276-4.772-11.142-6.82
												c-2.842-1.595-5.685-3.187-8.755-4.32c-1.592-0.57-3.184-0.797-4.775-1.138L34.594,7.846L34.594,7.846z"/>
										</defs>
										<defs>
											<path id="SVGID_18_" d="M34.594,7.846c-0.341,0.229-0.683,0.112-1.023,0.112c-1.479,0.229-2.843,0.908-4.093,1.591
												c-3.98,2.05-7.96,4.321-11.827,6.823c-2.729,1.82-5.458,3.752-7.959,6.026c-0.797,0.796-1.593,1.478-1.934,2.502
												c0,0.342,0.227,0.569,0.455,0.796c1.479,1.365,2.957,2.616,4.435,3.979c0.227,0.229,0.455,0.568,0.797,0.455
												c2.16-1.591,4.32-2.957,6.48-4.317c4.094-2.503,8.074-5.004,12.395-7.051c0.91-0.455,1.819-0.798,2.729-0.909
												c1.82-0.229,3.412,0.227,5.118,0.796c7.163,2.501,13.53,6.708,19.671,11.027c0.341,0.114,0.568,0.344,0.682,0.685
												c0.455,0.227,0.683-0.114,0.911-0.455c1.59-1.251,2.956-2.729,4.092-4.434c0.228-0.229,0.456-0.569,0.456-0.911
												c-0.229-0.795-0.797-1.251-1.251-1.819c-0.91-1.021-1.935-1.82-2.958-2.615c-3.524-2.613-7.276-4.772-11.142-6.82
												c-2.842-1.595-5.685-3.187-8.755-4.32c-1.592-0.57-3.184-0.797-4.775-1.138L34.594,7.846L34.594,7.846z"/>
										</defs>
										<defs>
											<path id="SVGID_19_" d="M34.594,7.846c-0.341,0.229-0.683,0.112-1.023,0.112c-1.479,0.229-2.843,0.908-4.093,1.591
												c-3.98,2.05-7.96,4.321-11.827,6.823c-2.729,1.82-5.458,3.752-7.959,6.026c-0.797,0.796-1.593,1.478-1.934,2.502
												c0,0.342,0.227,0.569,0.455,0.796c1.479,1.365,2.957,2.616,4.435,3.979c0.227,0.229,0.455,0.568,0.797,0.455
												c2.16-1.591,4.32-2.957,6.48-4.317c4.094-2.503,8.074-5.004,12.395-7.051c0.91-0.455,1.819-0.798,2.729-0.909
												c1.82-0.229,3.412,0.227,5.118,0.796c7.163,2.501,13.53,6.708,19.671,11.027c0.341,0.114,0.568,0.344,0.682,0.685
												c0.455,0.227,0.683-0.114,0.911-0.455c1.59-1.251,2.956-2.729,4.092-4.434c0.228-0.229,0.456-0.569,0.456-0.911
												c-0.229-0.795-0.797-1.251-1.251-1.819c-0.91-1.021-1.935-1.82-2.958-2.615c-3.524-2.613-7.276-4.772-11.142-6.82
												c-2.842-1.595-5.685-3.187-8.755-4.32c-1.592-0.57-3.184-0.797-4.775-1.138L34.594,7.846L34.594,7.846z"/>
										</defs>
										<clipPath id="SVGID_20_" clip-path="url(#SVGID_6_)">
											<use xlink:href="#SVGID_17_"  overflow="visible"/>
										</clipPath>
										<clipPath id="SVGID_21_" clip-path="url(#SVGID_20_)">
											<use xlink:href="#SVGID_18_"  overflow="visible"/>
										</clipPath>
										<clipPath id="SVGID_22_" clip-path="url(#SVGID_21_)">
											<use xlink:href="#SVGID_19_"  overflow="visible"/>
										</clipPath>
										
											<linearGradient id="SVGID_23_" gradientUnits="userSpaceOnUse" x1="-672.7505" y1="-262.6902" x2="-671.7354" y2="-262.6902" gradientTransform="matrix(57.3608 0 0 57.3608 38597.2813 15087.3691)">
											<stop  offset="0" style="stop-color:#FFFFFF"/>
											<stop  offset="1" style="stop-color:#808080"/>
										</linearGradient>
										<rect x="7.759" y="7.846" clip-path="url(#SVGID_22_)" fill="url(#SVGID_23_)" width="58.219" height="22.74"/>
									</g>
								</g>
							</g>
						</g>
					</mask>
					<rect x="7.759" y="7.846" clip-path="url(#SVGID_6_)" mask="url(#SVGID_15_)" fill="#9F9E9E" width="58.219" height="22.74"/>
				</g>
			</g>
		</g>
	</g>
	<g>
		<g>
			<g>
				<g>
					<defs>
						<path id="SVGID_24_" d="M34.594,7.846c-0.341,0.229-0.683,0.112-1.023,0.112c-1.479,0.229-2.843,0.908-4.093,1.591
							c-3.98,2.05-7.96,4.321-11.827,6.823c-2.729,1.82-5.458,3.752-7.959,6.026c-0.797,0.796-1.593,1.478-1.934,2.502
							c0,0.342,0.227,0.569,0.455,0.796c1.479,1.365,2.957,2.616,4.435,3.979c0.227,0.229,0.455,0.568,0.797,0.455
							c2.16-1.591,4.32-2.957,6.48-4.317c4.094-2.503,8.074-5.004,12.395-7.051c0.91-0.455,1.819-0.798,2.729-0.909
							c1.82-0.229,3.412,0.227,5.118,0.796c7.163,2.501,13.53,6.708,19.671,11.027c0.341,0.114,0.568,0.344,0.682,0.685
							c0.455,0.227,0.683-0.114,0.911-0.455c1.59-1.251,2.956-2.729,4.092-4.434c0.228-0.229,0.456-0.569,0.456-0.911
							c-0.229-0.795-0.797-1.251-1.251-1.819c-0.91-1.021-1.935-1.82-2.958-2.615c-3.524-2.613-7.276-4.772-11.142-6.82
							c-2.842-1.595-5.685-3.187-8.755-4.32c-1.592-0.57-3.184-0.797-4.775-1.138L34.594,7.846L34.594,7.846z"/>
					</defs>
					<clipPath id="SVGID_25_">
						<use xlink:href="#SVGID_24_"  overflow="visible"/>
					</clipPath>
				</g>
			</g>
		</g>
	</g>
</g>
<g>
	<g>
		<path fill="#9F9E9E" d="M60.568,30.168c0.784-0.224,1.232-0.784,1.793-1.344c1.456-1.233,2.576-2.689,3.585-4.37
			c1.792,2.801,2.24,5.826,1.12,8.963c-1.344,3.812-4.033,6.389-7.282,8.626c-0.336,0.228-0.448,0-0.672-0.109
			c-1.905-1.683-3.025-3.812-3.473-6.273c-0.225-1.233,0.112-2.129,1.232-2.801C58.215,32.073,59.336,31.064,60.568,30.168"/>
	</g>
</g>
<g>
	<g>
		<path fill="#9F9E9E" d="M7.809,24.791c0,0.227,0.112,0.336,0.336,0.448c1.793,1.569,3.361,3.137,5.266,4.593
			c1.568,1.345,3.361,2.577,5.153,3.698c4.93,3.136,9.971,5.713,15.349,7.842c1.232,0.448,2.464,0.896,3.697,0.896
			c1.456,0.109,2.577-0.563,3.809-1.232c0.672-0.336,1.232-0.672,1.904-1.009c0.449-0.226,0.561-0.112,0.561,0.337v5.937v3.585
			c0,0.448-0.112,0.785-0.561,1.012c-1.344,0.896-2.688,1.456-4.257,1.565c-0.112,0-0.224,0.112-0.336,0.112h-2.465
			c-3.249-0.112-5.937-1.792-8.738-3.361c-3.249-1.792-6.498-3.585-9.635-5.377c-2.129-1.23-4.145-2.801-6.05-4.258
			c-0.896-0.672-1.792-1.456-2.465-2.352c-1.12-1.457-1.792-3.025-2.24-4.818c-0.112-0.448,0-0.784-0.224-1.232V28.6
			c0.112-0.784,0-1.568,0.112-2.354C6.913,25.911,7.025,25.239,7.809,24.791"/>
	</g>
</g>
</svg>
