<?xml version="1.0" encoding="utf-8"?>
<!-- Generator: Adobe Illustrator 16.0.0, SVG Export Plug-In . SVG Version: 6.00 Build 0)  -->
<!DOCTYPE svg PUBLIC "-//W3C//DTD SVG 1.1//EN" "http://www.w3.org/Graphics/SVG/1.1/DTD/svg11.dtd">
<svg version="1.1" id="Layer_1" xmlns="http://www.w3.org/2000/svg" xmlns:xlink="http://www.w3.org/1999/xlink" x="0px" y="0px"
	 width="206.957px" height="61.738px" viewBox="0 0 206.957 61.738" enable-background="new 0 0 206.957 61.738"
	 xml:space="preserve">
<g>
	<g>
		<path d="M76.759,35.635c-1.122-0.651-1.984-1.579-2.585-2.782c-0.602-1.203-0.902-2.625-0.902-4.269
			c0-1.628,0.301-3.043,0.902-4.246c0.601-1.202,1.463-2.126,2.585-2.771c1.122-0.646,2.438-0.968,3.949-0.968
			c1.07,0,2.064,0.165,2.981,0.494c0.917,0.33,1.69,0.812,2.321,1.441l-0.792,1.672c-0.734-0.601-1.456-1.038-2.167-1.309
			c-0.712-0.271-1.485-0.407-2.321-0.407c-1.628,0-2.886,0.528-3.773,1.584c-0.888,1.056-1.331,2.56-1.331,4.51
			c0,1.965,0.443,3.48,1.331,4.543c0.887,1.063,2.145,1.596,3.773,1.596c0.836,0,1.609-0.137,2.321-0.407
			c0.711-0.271,1.433-0.708,2.167-1.31l0.792,1.673c-0.631,0.63-1.405,1.11-2.321,1.44s-1.911,0.495-2.981,0.495
			C79.197,36.614,77.88,36.288,76.759,35.635z"/>
		<path d="M98.549,29.53v6.908h-2.222v-6.776c0-0.968-0.187-1.672-0.561-2.112c-0.374-0.439-0.972-0.659-1.793-0.659
			c-0.939,0-1.691,0.293-2.255,0.88c-0.564,0.587-0.847,1.372-0.847,2.354v6.314h-2.2V20.247h2.2v6.82
			c0.366-0.646,0.872-1.136,1.518-1.475c0.645-0.337,1.371-0.506,2.178-0.506C97.222,25.086,98.549,26.568,98.549,29.53z"/>
		<path d="M111.859,25.351v11.088h-2.199v-1.893c-0.323,0.66-0.803,1.166-1.441,1.519c-0.638,0.352-1.382,0.527-2.232,0.527
			c-0.983,0-1.846-0.233-2.585-0.703c-0.741-0.47-1.316-1.134-1.727-1.991c-0.411-0.858-0.616-1.859-0.616-3.003
			c0-1.145,0.209-2.156,0.627-3.036s1.001-1.563,1.749-2.046c0.748-0.484,1.598-0.727,2.552-0.727c0.851,0,1.591,0.181,2.222,0.539
			c0.63,0.359,1.114,0.869,1.452,1.529v-1.804H111.859z M108.834,33.788c0.55-0.697,0.825-1.676,0.825-2.937
			c0-1.276-0.275-2.26-0.825-2.948c-0.55-0.689-1.331-1.034-2.343-1.034c-0.998,0-1.778,0.355-2.343,1.067
			c-0.565,0.711-0.848,1.697-0.848,2.959c0,1.247,0.282,2.215,0.848,2.903c0.563,0.69,1.353,1.034,2.365,1.034
			C107.512,34.833,108.285,34.484,108.834,33.788z"/>
		<path d="M123.541,25.813c0.748,0.483,1.331,1.166,1.75,2.046c0.418,0.88,0.627,1.892,0.627,3.036c0,1.144-0.206,2.145-0.617,3.003
			c-0.41,0.857-0.988,1.521-1.736,1.991c-0.748,0.469-1.606,0.703-2.574,0.703c-0.852,0-1.596-0.179-2.233-0.538
			s-1.118-0.876-1.44-1.552v6.688h-2.199V28.475c0-1.159-0.059-2.2-0.176-3.124h2.067l0.22,2.046
			c0.293-0.733,0.771-1.301,1.431-1.705c0.659-0.403,1.438-0.605,2.332-0.605C121.941,25.086,122.792,25.329,123.541,25.813z
			 M122.814,33.798c0.559-0.688,0.836-1.656,0.836-2.903c0-1.262-0.277-2.248-0.836-2.959c-0.558-0.711-1.334-1.067-2.332-1.067
			c-1.025,0-1.812,0.345-2.354,1.034c-0.543,0.688-0.813,1.672-0.813,2.948c0,1.275,0.273,2.259,0.824,2.947
			c0.551,0.69,1.33,1.034,2.344,1.034C121.48,34.833,122.257,34.488,122.814,33.798z"/>
		<path d="M131.352,27.066v5.565c0,0.764,0.164,1.303,0.494,1.617c0.329,0.315,0.788,0.474,1.375,0.474
			c0.381,0,0.771-0.06,1.166-0.177v1.805c-0.484,0.16-1.033,0.241-1.65,0.241c-1.144,0-2.031-0.321-2.661-0.968
			c-0.632-0.645-0.946-1.584-0.946-2.815v-5.742h-2.156V25.35h2.156v-2.772l2.223-0.77v3.542h3.059v1.716H131.352z"/>
		<path d="M145.915,30.938h-7.92c0.073,2.596,1.254,3.894,3.542,3.894c1.275,0,2.441-0.418,3.498-1.254l0.682,1.584
			c-0.498,0.44-1.133,0.789-1.902,1.045c-0.771,0.256-1.543,0.385-2.32,0.385c-1.773,0-3.168-0.509-4.182-1.528
			c-1.012-1.02-1.518-2.416-1.518-4.191c0-1.129,0.225-2.134,0.672-3.014s1.074-1.563,1.881-2.046
			c0.807-0.484,1.723-0.727,2.75-0.727c1.496,0,2.672,0.484,3.53,1.452s1.287,2.311,1.287,4.026V30.938L145.915,30.938z
			 M139.096,27.484c-0.529,0.499-0.867,1.21-1.014,2.134h5.874c-0.088-0.938-0.374-1.654-0.856-2.145
			c-0.484-0.491-1.138-0.737-1.959-0.737C140.305,26.736,139.623,26.986,139.096,27.484z"/>
		<path d="M155.044,25.24L155,27.265c-0.396-0.146-0.829-0.221-1.298-0.221c-1.013,0-1.771,0.306-2.277,0.913
			c-0.506,0.609-0.759,1.375-0.759,2.299v6.183h-2.2v-7.964c0-1.159-0.059-2.2-0.176-3.124h2.067l0.197,2.002
			c0.293-0.733,0.748-1.294,1.364-1.684c0.616-0.388,1.306-0.583,2.067-0.583C154.326,25.086,154.677,25.138,155.044,25.24z"/>
		<path d="M167.102,34.568v1.87h-10.275v-1.694l5.391-5.918c0.689-0.763,1.191-1.456,1.508-2.079
			c0.315-0.623,0.474-1.243,0.474-1.858c0-0.792-0.229-1.397-0.683-1.815c-0.455-0.418-1.115-0.627-1.979-0.627
			c-1.452,0-2.904,0.572-4.356,1.716l-0.813-1.672c0.615-0.572,1.4-1.03,2.354-1.375c0.953-0.344,1.914-0.517,2.883-0.517
			c1.496,0,2.681,0.374,3.554,1.122c0.872,0.747,1.309,1.76,1.309,3.035c0,0.91-0.198,1.771-0.594,2.585
			c-0.396,0.814-1.058,1.721-1.979,2.718l-4.181,4.51H167.102z"/>
		<path d="M180.873,31.356v1.826h-2.311v3.256h-2.244v-3.256H169.3v-1.694l7.437-10.714h1.826v10.582H180.873z M171.521,31.356
			h4.797v-6.908L171.521,31.356z"/>
		<path d="M182.809,20.774h10.604v1.693l-7.238,13.971h-2.441l7.217-13.794h-8.141V20.774L182.809,20.774z"/>
	</g>
	<g>
		<g>
			<defs>
				<path id="SVGID_1_" d="M34.594,7.846c-0.341,0.229-0.683,0.114-1.023,0.114c-1.479,0.228-2.843,0.908-4.093,1.591
					c-3.98,2.048-7.96,4.321-11.827,6.823c-2.729,1.82-5.458,3.752-7.959,6.026c-0.797,0.796-1.593,1.478-1.934,2.502
					c0,0.342,0.227,0.569,0.455,0.796c1.479,1.365,2.957,2.616,4.435,3.979c0.227,0.228,0.455,0.568,0.797,0.455
					c2.16-1.591,4.32-2.957,6.48-4.319c4.094-2.503,8.074-5.004,12.395-7.051c0.91-0.455,1.819-0.796,2.729-0.909
					c1.82-0.229,3.412,0.227,5.118,0.796c7.163,2.501,13.53,6.708,19.671,11.029c0.341,0.114,0.568,0.342,0.682,0.683
					c0.455,0.227,0.683-0.114,0.911-0.455c1.59-1.251,2.956-2.729,4.092-4.434c0.228-0.228,0.456-0.569,0.456-0.911
					c-0.229-0.795-0.797-1.251-1.251-1.819c-0.91-1.022-1.935-1.82-2.958-2.615c-3.524-2.615-7.276-4.774-11.142-6.822
					c-2.842-1.593-5.685-3.185-8.755-4.32c-1.592-0.57-3.184-0.797-4.775-1.138L34.594,7.846L34.594,7.846z"/>
			</defs>
			<clipPath id="SVGID_2_">
				<use xlink:href="#SVGID_1_"  overflow="visible"/>
			</clipPath>
			<defs>
				<filter id="Adobe_OpacityMaskFilter" filterUnits="userSpaceOnUse" x="7.759" y="7.846" width="58.219" height="22.742">
					<feColorMatrix  type="matrix" values="1 0 0 0 0  0 1 0 0 0  0 0 1 0 0  0 0 0 1 0"/>
				</filter>
			</defs>
			<mask maskUnits="userSpaceOnUse" x="7.759" y="7.846" width="58.219" height="22.742" id="SVGID_3_">
				<g filter="url(#Adobe_OpacityMaskFilter)">
					<g>
						<defs>
							<path id="SVGID_4_" d="M34.594,7.846c-0.341,0.229-0.683,0.114-1.023,0.114c-1.479,0.228-2.843,0.908-4.093,1.591
								c-3.98,2.048-7.96,4.321-11.827,6.823c-2.729,1.82-5.458,3.752-7.959,6.026c-0.797,0.796-1.593,1.478-1.934,2.502
								c0,0.342,0.227,0.569,0.455,0.796c1.479,1.365,2.957,2.616,4.435,3.979c0.227,0.228,0.455,0.568,0.797,0.455
								c2.16-1.591,4.32-2.957,6.48-4.319c4.094-2.503,8.074-5.004,12.395-7.051c0.91-0.455,1.819-0.796,2.729-0.909
								c1.82-0.229,3.412,0.227,5.118,0.796c7.163,2.501,13.53,6.708,19.671,11.029c0.341,0.114,0.568,0.342,0.682,0.683
								c0.455,0.227,0.683-0.114,0.911-0.455c1.59-1.251,2.956-2.729,4.092-4.434c0.228-0.228,0.456-0.569,0.456-0.911
								c-0.229-0.795-0.797-1.251-1.251-1.819c-0.91-1.022-1.935-1.82-2.958-2.615c-3.524-2.615-7.276-4.774-11.142-6.822
								c-2.842-1.593-5.685-3.185-8.755-4.32c-1.592-0.57-3.184-0.797-4.775-1.138L34.594,7.846L34.594,7.846z"/>
						</defs>
						<clipPath id="SVGID_5_" clip-path="url(#SVGID_2_)">
							<use xlink:href="#SVGID_4_"  overflow="visible"/>
						</clipPath>
						
							<linearGradient id="SVGID_6_" gradientUnits="userSpaceOnUse" x1="-275.4585" y1="-276.2747" x2="-274.4434" y2="-276.2747" gradientTransform="matrix(57.3608 0 0 57.3608 15808.2734 15866.5645)">
							<stop  offset="0" style="stop-color:#FFFFFF"/>
							<stop  offset="1" style="stop-color:#808080"/>
						</linearGradient>
						<rect x="7.759" y="7.846" clip-path="url(#SVGID_5_)" fill="url(#SVGID_6_)" width="58.219" height="22.742"/>
					</g>
				</g>
			</mask>
			
				<linearGradient id="SVGID_7_" gradientUnits="userSpaceOnUse" x1="-275.4585" y1="-276.2747" x2="-274.4434" y2="-276.2747" gradientTransform="matrix(57.3608 0 0 57.3608 15808.2734 15866.5645)">
				<stop  offset="0" style="stop-color:#5BDB93"/>
				<stop  offset="1" style="stop-color:#00E9A5"/>
			</linearGradient>
			
				<rect x="7.759" y="7.846" clip-path="url(#SVGID_2_)" mask="url(#SVGID_3_)" fill="url(#SVGID_7_)" width="58.219" height="22.742"/>
		</g>
	</g>
	<g>
		<path fill="#0CE5BB" d="M60.568,30.168c0.784-0.224,1.232-0.784,1.793-1.344c1.456-1.233,2.576-2.689,3.585-4.37
			c1.792,2.801,2.24,5.826,1.12,8.963c-1.344,3.81-4.033,6.387-7.282,8.626c-0.336,0.226-0.448,0-0.672-0.111
			c-1.905-1.681-3.025-3.81-3.473-6.273c-0.225-1.233,0.112-2.129,1.232-2.801C58.215,32.073,59.336,31.064,60.568,30.168"/>
	</g>
	<g>
		<path fill="#5BDB93" d="M7.809,24.791c0,0.225,0.112,0.336,0.336,0.448c1.793,1.569,3.361,3.137,5.266,4.593
			c1.568,1.345,3.361,2.577,5.153,3.698c4.93,3.136,9.971,5.713,15.349,7.842c1.232,0.448,2.464,0.896,3.697,0.896
			c1.456,0.111,2.577-0.561,3.809-1.232c0.672-0.336,1.232-0.672,1.904-1.009c0.449-0.224,0.561-0.112,0.561,0.337v5.937v3.585
			c0,0.448-0.112,0.785-0.561,1.01c-1.344,0.896-2.688,1.456-4.257,1.567c-0.112,0-0.224,0.112-0.336,0.112h-2.465
			c-3.249-0.112-5.937-1.792-8.738-3.361c-3.249-1.792-6.498-3.585-9.635-5.377c-2.129-1.232-4.145-2.801-6.05-4.258
			c-0.896-0.672-1.792-1.456-2.465-2.352c-1.12-1.457-1.792-3.025-2.24-4.818c-0.112-0.448,0-0.784-0.224-1.232V28.6
			c0.112-0.784,0-1.568,0.112-2.354C6.913,25.911,7.025,25.239,7.809,24.791"/>
	</g>
</g>
</svg>
