<?xml version="1.0" encoding="utf-8"?>
<!-- Generator: Adobe Illustrator 16.0.2, SVG Export Plug-In . SVG Version: 6.00 Build 0)  -->
<!DOCTYPE svg PUBLIC "-//W3C//DTD SVG 1.1//EN" "http://www.w3.org/Graphics/SVG/1.1/DTD/svg11.dtd">
<svg version="1.1" id="Layer_1" xmlns="http://www.w3.org/2000/svg" xmlns:xlink="http://www.w3.org/1999/xlink" x="0px" y="0px"
	 width="150.096px" height="155.919px" viewBox="0 0 150.096 155.919" enable-background="new 0 0 150.096 155.919"
	 xml:space="preserve">
<g>
	<path fill-rule="evenodd" clip-rule="evenodd" fill="#FFEEF5" d="M146.816,63.875c-8.334-40.117-45.703-64.737-83.709-59.042
		C19.98,11.296-8.559,53.971,2.322,96.528c1.316,5.151,4.325,9.717,4.852,15.093c1.941,1.153,3.606-0.032,5.186-0.548
		c-0.846,1.562-3.914-0.047-4.217,2.697c1.9,0.456,2.314,2.22,3.178,3.596c4.369,6.968,9.647,13.29,16.193,18.147
		c26.762,19.861,55.102,22.374,84.343,5.944c12.036-6.763,21.796-16.222,27.226-29.393c0.19-0.309,0.297-0.654,0.132-0.921
		c-6.213-10.067-4.931-12.72,6.853-14.155c0.154-1.313,0.219-2.644,0.477-3.935C148.492,83.342,148.832,73.576,146.816,63.875z"/>
	<path fill-rule="evenodd" clip-rule="evenodd" fill="#D3D3D3" d="M140.229,0.002c4.299,0.093,7.846,3.732,7.822,8.026
		c-0.024,4.479-3.948,8.188-8.402,7.944c-4.288-0.234-7.733-4.002-7.569-8.275C132.246,3.392,135.934-0.091,140.229,0.002z"/>
	<path fill-rule="evenodd" clip-rule="evenodd" fill="#D3D3D3" d="M139.082,112.065c-1.997-1.909-4.399-3.461-4.952-6.525
		c-1.213-6.724,4.685-10.976,11.937-8.551c3.308,2.374,4.902,5.488,3.545,9.498C147.896,111.552,143.654,112.204,139.082,112.065z"
		/>
	<path fill-rule="evenodd" clip-rule="evenodd" fill="#D3D3D3" d="M140.065,130.24c-0.563,2.299-1.901,3.929-4.436,3.631
		c-2.182-0.256-3.663-1.779-3.466-4.07c0.212-2.448,1.834-3.959,4.342-3.699C138.723,126.331,139.889,127.922,140.065,130.24z"/>
	<path fill-rule="evenodd" clip-rule="evenodd" fill="#F385AB" d="M28.125,151.812c-0.449,2.63-1.769,4.254-4.322,4.098
		c-2.244-0.138-3.727-1.63-3.66-3.931c0.073-2.512,1.656-4.023,4.187-3.916C26.641,148.161,27.713,149.826,28.125,151.812z"/>
	<path fill-rule="evenodd" clip-rule="evenodd" fill="#D3D3D3" d="M128.158,5.881c-1.111-0.059-1.85-0.652-1.93-1.77
		c-0.082-1.136,0.62-1.866,1.723-1.953c1.138-0.09,1.858,0.62,1.957,1.722C130.012,5.038,129.266,5.64,128.158,5.881z"/>
	<path fill-rule="evenodd" clip-rule="evenodd" fill="#FEFEFD" d="M138.112,84.76c-0.417,2.809-1.954,4.826-4.633,5.08
		c-3.053,0.289-5.112-1.785-5.257-4.682c-0.148-2.981,1.932-5.003,4.916-5.036C135.94,80.092,137.367,82.224,138.112,84.76z"/>
	<path fill-rule="evenodd" clip-rule="evenodd" fill="#F385AB" d="M13.982,69.988c4.611,3.052,9.222,6.104,13.832,9.155
		c-0.357,0.565-0.715,1.131-1.072,1.695c-4.638-3.02-9.275-6.04-13.914-9.06C13.213,71.183,13.598,70.585,13.982,69.988z"/>
	<path fill-rule="evenodd" clip-rule="evenodd" fill="#F385AB" d="M7.375,83.26c5.295,1.593,10.59,3.186,15.884,4.778
		c-0.179,0.645-0.358,1.29-0.538,1.934c-5.311-1.555-10.623-3.11-15.936-4.663C6.982,84.625,7.179,83.942,7.375,83.26z"/>
	<path fill-rule="evenodd" clip-rule="evenodd" fill="#FEFCF8" d="M134.082,44.263c0.951,0.075,1.582,0.651,1.67,1.516
		c0.117,1.143-0.566,1.938-1.724,1.92c-1.157-0.019-1.827-0.841-1.671-1.971C132.475,44.889,133.12,44.298,134.082,44.263z"/>
	<g>
		<path fill="#F385AB" d="M59.468,130.455c4.791-0.836,9.636-1.523,14.314-2.799c3.751-1.024,6.567-0.149,9.604,2.059
			c6.421,4.668,5.737,4.707,9.931-1.961c2.037-3.239,4.432-4.923,8.232-5.372c4.695-0.557,9.327-1.652,13.974-2.592
			c6.519-1.32,8.775-4.639,7.555-11.229c-1.979-10.67-4.009-21.329-6.087-31.978c-1.314-6.732-4.707-8.975-11.517-7.698
			c-9.195,1.722-18.38,3.491-27.568,5.24c-9.434,1.796-18.878,3.539-28.297,5.408c-5.757,1.14-8.308,4.825-7.259,10.556
			c2.021,11.041,4.128,22.065,6.293,33.08C49.822,129.167,53.365,131.518,59.468,130.455z M46.172,89.011
			c-0.674-3.66,1.496-5.152,4.778-5.758c9.212-1.699,18.407-3.484,27.608-5.237c9.201-1.751,18.399-3.526,27.608-5.245
			c4.688-0.874,6.107,0.111,6.998,4.753c2.022,10.55,4.035,21.101,6.024,31.654c0.845,4.482-0.117,5.901-4.537,6.77
			c-4.778,0.937-9.533,2.133-14.363,2.649c-4.641,0.496-7.977,2.357-9.961,6.608c-1.129,2.417-2.589,3.439-4.928,1.149
			c-3.553-3.48-7.638-3.896-12.377-2.568c-4.675,1.307-9.563,1.834-14.326,2.845c-3.332,0.708-5.44-0.447-6.086-3.757
			C50.406,111.598,48.252,100.312,46.172,89.011z"/>
		<path fill="#F385AB" d="M95.772,58.518c-6.864,1.306-13.729,2.612-20.593,3.92c-2.943,0.56-5.891,1.093-8.822,1.702
			c-1.206,0.251-2.105,0.97-1.867,2.348c0.248,1.423,1.375,1.635,2.586,1.477c0.988-0.128,1.965-0.346,2.945-0.532
			c17.776-3.382,35.549-6.776,53.328-10.143c4.923-0.932,6.346,0.023,7.284,4.878c1.779,9.188,3.509,18.386,5.262,27.58
			c1.512,7.948,1.518,7.965-5.846,11.078c-1.057,0.445-1.777,1.129-1.624,2.209c0.184,1.294,1.136,1.659,2.474,1.623
			c7.225-0.196,10.925-4.687,9.585-11.849c-1.979-10.548-3.987-21.089-6.021-31.628c-1.285-6.66-4.83-9.081-11.476-7.838
			C113.911,55.044,104.845,56.792,95.772,58.518z"/>
		<path fill="#F385AB" d="M41.924,76.62c2.083-0.453,1.395-2.313,1.131-3.734c-1.115-6.009-2.303-12.005-3.405-18.017
			c-0.849-4.622,0.159-6.043,4.849-6.98c3.301-0.659,6.614-1.267,9.924-1.896c15.071-2.868,30.138-5.758,45.217-8.591
			c4.46-0.839,5.886,0.192,6.768,4.604c0.394,1.955,0.7,3.932,1.176,5.868c0.297,1.204,1.175,2.001,2.479,1.646
			c1.107-0.301,1.468-1.291,1.285-2.384c-0.326-1.97-0.677-3.934-1.073-5.89c-1.37-6.723-4.716-8.973-11.527-7.697
			c-9.195,1.723-18.381,3.491-27.571,5.241c-9.436,1.796-18.88,3.539-28.302,5.407c-5.757,1.142-8.264,4.819-7.249,10.568
			c1.104,6.264,2.355,12.502,3.55,18.75C39.479,75.103,39.638,77.116,41.924,76.62z"/>
		<path fill="#F385AB" d="M60.813,93.585c13.353-2.523,26.701-5.064,40.052-7.619c1.436-0.273,3.391-0.391,2.995-2.471
			c-0.431-2.265-2.365-1.652-3.954-1.352c-6.491,1.232-12.981,2.47-19.474,3.706c-6.736,1.282-13.472,2.562-20.207,3.85
			c-1.475,0.281-3.308,0.462-3.004,2.516C57.54,94.368,59.361,93.858,60.813,93.585z"/>
		<path fill="#F385AB" d="M101.992,93.952c-12.98,2.47-25.965,4.927-38.941,7.43c-1.598,0.312-4.034,0.165-3.522,2.755
			c0.464,2.348,2.563,1.388,4.048,1.117c6.621-1.207,13.23-2.496,19.845-3.752c6.492-1.236,12.984-2.46,19.472-3.717
			c1.546-0.3,3.728-0.374,3.198-2.658C105.589,92.972,103.577,93.649,101.992,93.952z"/>
		<path fill="#F385AB" d="M65.086,117.183c3.421-0.618,6.832-1.29,10.247-1.936c3.415-0.65,6.834-1.279,10.243-1.958
			c1.551-0.31,3.663-0.438,3.176-2.682c-0.403-1.856-2.229-1.519-3.751-1.224c-6.826,1.317-13.658,2.603-20.486,3.91
			c-1.49,0.285-3.212,0.56-2.776,2.647C62.13,117.83,63.748,117.425,65.086,117.183z"/>
	</g>
	<path fill-rule="evenodd" clip-rule="evenodd" fill="#F385AB" d="M6.439,111.587c5.375-1.296,10.75-2.591,16.125-3.887
		c0.17,0.647,0.341,1.296,0.51,1.941c-5.369,1.336-10.741,2.673-16.111,4.012C6.788,112.964,6.613,112.274,6.439,111.587z"/>
</g>
</svg>
