<?xml version="1.0" encoding="utf-8"?>
<!-- Generator: Adobe Illustrator 16.0.2, SVG Export Plug-In . SVG Version: 6.00 Build 0)  -->
<!DOCTYPE svg PUBLIC "-//W3C//DTD SVG 1.1//EN" "http://www.w3.org/Graphics/SVG/1.1/DTD/svg11.dtd">
<svg version="1.1" id="Layer_1" xmlns="http://www.w3.org/2000/svg" xmlns:xlink="http://www.w3.org/1999/xlink" x="0px" y="0px"
	 width="126.981px" height="170.445px" viewBox="0 0 126.981 170.445" enable-background="new 0 0 126.981 170.445"
	 xml:space="preserve">
<g>
	<g>
		<path fill-rule="evenodd" clip-rule="evenodd" fill="#C1C1C1" d="M103.457,107.937c-0.539,4.063-4.377,6.906-8.575,6.35
			L18.308,104.14c-4.198-0.557-7.164-4.3-6.625-8.363L23.524,6.418c0.539-4.063,4.378-6.905,8.575-6.349l76.574,10.147
			c4.198,0.557,7.164,4.301,6.625,8.364L103.457,107.937z"/>
		<path fill-rule="evenodd" clip-rule="evenodd" fill="#FEFEFE" d="M98.276,82.563c-0.354,2.666-3.385,4.467-6.771,4.018
			L29.74,78.396c-3.386-0.449-5.844-2.974-5.49-5.643l7.775-58.676c0.354-2.667,3.385-4.466,6.771-4.018l61.765,8.185
			c3.387,0.449,5.844,2.975,5.49,5.643L98.276,82.563z"/>
		<path fill-rule="evenodd" clip-rule="evenodd" fill="#B9B9B9" d="M95.813,47.047c-1.109,9.028-3.455,18.042-4.428,27.085
			c-0.494,4.591-1.828,6.281-7.179,5.353c-14.987-2.602-30.122-4.376-45.216-6.331c-3.047-0.395-3.12-1.5-3.287-4.484
			c-0.764-13.642,20.24-20.513,20.771-19.922c1.665,1.856,3.519,3.563,5.027,5.536c4.273,5.588,4.183,5.565,10.371,1.97
			c6.301-3.661,11.699-6.646,18.058-10.206C91.093,45.395,96.201,43.425,95.813,47.047z"/>
		<path fill-rule="evenodd" clip-rule="evenodd" fill="#B9B9B9" d="M35.703,68.669c-0.764-13.642,16.485-20.997,19.11-20.747
			s5.179,4.389,6.688,6.361"/>
	</g>
	<g>
		<path fill="#383838" d="M18.905,139.695v-15.499h2.208l4.944,7.842c1.127,1.816,2.047,3.449,2.76,5.036l0.069-0.023
			c-0.184-2.069-0.23-3.955-0.23-6.369v-6.485h1.886v15.499h-2.024l-4.921-7.864c-1.081-1.725-2.115-3.495-2.874-5.174l-0.069,0.022
			c0.115,1.955,0.138,3.817,0.138,6.393v6.623H18.905z"/>
		<path fill="#383838" d="M44.042,134.038c0,4.116-2.875,5.91-5.542,5.91c-2.989,0-5.334-2.207-5.334-5.726
			c0-3.702,2.46-5.887,5.519-5.887C41.88,128.335,44.042,130.658,44.042,134.038z M35.235,134.153c0,2.438,1.38,4.277,3.357,4.277
			c1.932,0,3.38-1.816,3.38-4.323c0-1.886-0.942-4.254-3.334-4.254C36.27,129.853,35.235,132.06,35.235,134.153z"/>
		<path fill="#383838" d="M53.726,125.438c0,0.689-0.483,1.241-1.288,1.241c-0.736,0-1.219-0.552-1.219-1.241
			s0.506-1.265,1.265-1.265C53.22,124.173,53.726,124.725,53.726,125.438z M51.473,139.695v-11.13h2.023v11.13H51.473z"/>
		<path fill="#383838" d="M56.854,131.578c0-1.173-0.046-2.093-0.092-3.013h1.771l0.092,1.817h0.069
			c0.621-1.059,1.656-2.047,3.519-2.047c1.495,0,2.644,0.92,3.127,2.23h0.046c0.345-0.644,0.805-1.104,1.265-1.449
			c0.667-0.506,1.379-0.781,2.438-0.781c1.495,0,3.679,0.966,3.679,4.829v6.53H70.79v-6.277c0-2.162-0.805-3.427-2.415-3.427
			c-1.173,0-2.047,0.851-2.415,1.816c-0.092,0.3-0.161,0.645-0.161,1.012v6.876h-1.978v-6.669c0-1.771-0.782-3.035-2.322-3.035
			c-1.242,0-2.185,1.012-2.506,2.023c-0.115,0.276-0.161,0.645-0.161,0.989v6.691h-1.978V131.578z"/>
		<path fill="#383838" d="M83.855,137.028c0,0.966,0.046,1.908,0.161,2.667h-1.816l-0.161-1.402h-0.069
			c-0.621,0.873-1.816,1.655-3.403,1.655c-2.253,0-3.403-1.587-3.403-3.196c0-2.69,2.392-4.162,6.692-4.139v-0.23
			c0-0.896-0.253-2.575-2.53-2.553c-1.058,0-2.138,0.299-2.92,0.828l-0.46-1.356c0.92-0.575,2.277-0.966,3.679-0.966
			c3.403,0,4.231,2.322,4.231,4.53V137.028z M81.9,134.015c-2.208-0.046-4.714,0.345-4.714,2.507c0,1.333,0.874,1.931,1.885,1.931
			c1.472,0,2.415-0.919,2.736-1.862c0.069-0.229,0.092-0.46,0.092-0.644V134.015z"/>
		<path fill="#383838" d="M96.643,138.062c0,2.575-0.529,4.116-1.587,5.105c-1.104,0.988-2.667,1.333-4.07,1.333
			c-1.334,0-2.806-0.321-3.702-0.92l0.506-1.563c0.736,0.483,1.885,0.897,3.265,0.897c2.069,0,3.587-1.081,3.587-3.909v-1.219
			h-0.046c-0.598,1.034-1.816,1.862-3.541,1.862c-2.759,0-4.737-2.346-4.737-5.427c0-3.771,2.46-5.887,5.036-5.887
			c1.932,0,2.966,0.988,3.472,1.908h0.046l0.069-1.679h1.793c-0.069,0.782-0.092,1.702-0.092,3.036V138.062z M94.619,132.958
			c0-0.345-0.023-0.645-0.115-0.897c-0.368-1.195-1.333-2.161-2.829-2.161c-1.931,0-3.311,1.633-3.311,4.208
			c0,2.185,1.126,4.001,3.288,4.001c1.265,0,2.392-0.781,2.806-2.069c0.115-0.345,0.161-0.735,0.161-1.081V132.958z"/>
		<path fill="#383838" d="M101.106,134.498c0.046,2.736,1.771,3.863,3.817,3.863c1.449,0,2.346-0.253,3.082-0.574l0.368,1.448
			c-0.713,0.322-1.955,0.713-3.725,0.713c-3.426,0-5.473-2.276-5.473-5.634s1.978-5.979,5.22-5.979c3.656,0,4.599,3.173,4.599,5.22
			c0,0.414-0.023,0.713-0.069,0.942H101.106z M107.039,133.049c0.023-1.265-0.529-3.266-2.806-3.266
			c-2.069,0-2.943,1.863-3.104,3.266H107.039z"/>
		<path fill="#383838" d="M10.992,161.636c0,1.173,0.023,2.185,0.092,3.059H9.29l-0.115-1.816H9.129
			c-0.506,0.896-1.702,2.069-3.679,2.069c-1.748,0-3.84-0.989-3.84-4.875v-6.508h2.023v6.14c0,2.116,0.667,3.564,2.483,3.564
			c1.356,0,2.299-0.942,2.667-1.862c0.115-0.276,0.184-0.645,0.184-1.035v-6.807h2.023V161.636z"/>
		<path fill="#383838" d="M14.352,157.199c0-1.426-0.046-2.576-0.092-3.634h1.794l0.115,1.909h0.046
			c0.805-1.357,2.139-2.139,3.956-2.139c2.713,0,4.737,2.276,4.737,5.634c0,4.001-2.46,5.979-5.082,5.979
			c-1.472,0-2.759-0.644-3.426-1.748h-0.046v6.048h-2V157.199z M16.352,160.165c0,0.299,0.023,0.575,0.092,0.828
			c0.368,1.402,1.587,2.368,3.036,2.368c2.138,0,3.38-1.747,3.38-4.3c0-2.207-1.173-4.116-3.312-4.116
			c-1.38,0-2.69,0.966-3.058,2.483c-0.069,0.253-0.138,0.552-0.138,0.805V160.165z"/>
		<path fill="#383838" d="M27.438,148.369h2.023v16.326h-2.023V148.369z"/>
		<path fill="#383838" d="M42.938,159.038c0,4.116-2.875,5.91-5.542,5.91c-2.989,0-5.334-2.207-5.334-5.726
			c0-3.702,2.46-5.887,5.519-5.887C40.776,153.335,42.938,155.658,42.938,159.038z M34.131,159.153c0,2.438,1.38,4.277,3.357,4.277
			c1.932,0,3.38-1.816,3.38-4.323c0-1.886-0.942-4.254-3.334-4.254C35.166,154.853,34.131,157.06,34.131,159.153z"/>
		<path fill="#383838" d="M53.312,162.028c0,0.966,0.046,1.908,0.161,2.667h-1.816l-0.161-1.402h-0.069
			c-0.621,0.873-1.816,1.655-3.403,1.655c-2.253,0-3.403-1.587-3.403-3.196c0-2.69,2.392-4.162,6.692-4.139v-0.23
			c0-0.896-0.253-2.575-2.53-2.553c-1.058,0-2.138,0.299-2.92,0.828l-0.46-1.356c0.92-0.575,2.277-0.966,3.679-0.966
			c3.403,0,4.231,2.322,4.231,4.53V162.028z M51.357,159.015c-2.208-0.046-4.714,0.345-4.714,2.507c0,1.333,0.874,1.931,1.885,1.931
			c1.472,0,2.415-0.919,2.736-1.862c0.069-0.229,0.092-0.46,0.092-0.644V159.015z"/>
		<path fill="#383838" d="M66.167,148.369v13.452c0,0.988,0.046,2.115,0.092,2.874h-1.793l-0.092-1.932h-0.069
			c-0.598,1.242-1.932,2.185-3.748,2.185c-2.69,0-4.783-2.276-4.783-5.657c-0.023-3.702,2.299-5.955,4.99-5.955
			c1.725,0,2.852,0.805,3.357,1.679h0.046v-6.646H66.167z M64.167,158.095c0-0.253-0.023-0.598-0.092-0.851
			c-0.299-1.265-1.402-2.322-2.92-2.322c-2.093,0-3.334,1.839-3.334,4.276c0,2.254,1.126,4.116,3.288,4.116
			c1.357,0,2.599-0.92,2.966-2.414c0.069-0.276,0.092-0.552,0.092-0.874V158.095z"/>
		<path fill="#383838" d="M70.677,159.498c0.046,2.736,1.771,3.863,3.817,3.863c1.449,0,2.346-0.253,3.082-0.574l0.368,1.448
			c-0.713,0.322-1.955,0.713-3.725,0.713c-3.426,0-5.473-2.276-5.473-5.634s1.978-5.979,5.22-5.979c3.656,0,4.599,3.173,4.599,5.22
			c0,0.414-0.023,0.713-0.069,0.942H70.677z M76.61,158.049c0.023-1.265-0.529-3.266-2.806-3.266c-2.069,0-2.943,1.863-3.104,3.266
			H76.61z"/>
		<path fill="#383838" d="M90.663,148.369v13.452c0,0.988,0.046,2.115,0.092,2.874h-1.793l-0.092-1.932H88.8
			c-0.598,1.242-1.932,2.185-3.748,2.185c-2.69,0-4.783-2.276-4.783-5.657c-0.023-3.702,2.299-5.955,4.99-5.955
			c1.725,0,2.852,0.805,3.357,1.679h0.046v-6.646H90.663z M88.662,158.095c0-0.253-0.023-0.598-0.092-0.851
			c-0.299-1.265-1.402-2.322-2.92-2.322c-2.093,0-3.334,1.839-3.334,4.276c0,2.254,1.126,4.116,3.288,4.116
			c1.357,0,2.599-0.92,2.966-2.414c0.069-0.276,0.092-0.552,0.092-0.874V158.095z"/>
		<path fill="#383838" d="M99.657,153.565l2.415,6.577c0.276,0.735,0.552,1.609,0.736,2.276h0.046
			c0.207-0.667,0.437-1.518,0.713-2.322l2.208-6.531h2.139l-3.036,7.934c-1.449,3.817-2.438,5.749-3.817,6.968
			c-1.012,0.851-1.978,1.195-2.484,1.287l-0.506-1.679c0.506-0.16,1.173-0.482,1.771-0.988c0.552-0.438,1.219-1.219,1.702-2.254
			c0.092-0.207,0.161-0.367,0.161-0.482s-0.046-0.276-0.161-0.529l-4.093-10.256H99.657z"/>
		<path fill="#383838" d="M110.651,159.498c0.046,2.736,1.771,3.863,3.817,3.863c1.449,0,2.346-0.253,3.082-0.574l0.368,1.448
			c-0.713,0.322-1.955,0.713-3.725,0.713c-3.426,0-5.473-2.276-5.473-5.634s1.978-5.979,5.22-5.979c3.656,0,4.599,3.173,4.599,5.22
			c0,0.414-0.023,0.713-0.069,0.942H110.651z M116.584,158.049c0.023-1.265-0.529-3.266-2.806-3.266
			c-2.069,0-2.943,1.863-3.104,3.266H116.584z"/>
		<path fill="#383838" d="M123.484,150.898v2.667h2.897v1.541h-2.897v6.002c0,1.38,0.391,2.161,1.518,2.161
			c0.552,0,0.874-0.046,1.173-0.138l0.092,1.54c-0.391,0.139-1.012,0.276-1.793,0.276c-0.943,0-1.702-0.322-2.185-0.851
			c-0.552-0.621-0.782-1.609-0.782-2.921v-6.07h-1.725v-1.541h1.725v-2.069L123.484,150.898z"/>
	</g>
</g>
</svg>
