<?xml version="1.0" encoding="utf-8"?>
<!-- Generator: Adobe Illustrator 16.0.2, SVG Export Plug-In . SVG Version: 6.00 Build 0)  -->
<!DOCTYPE svg PUBLIC "-//W3C//DTD SVG 1.1//EN" "http://www.w3.org/Graphics/SVG/1.1/DTD/svg11.dtd">
<svg version="1.1" id="Layer_1" xmlns="http://www.w3.org/2000/svg" xmlns:xlink="http://www.w3.org/1999/xlink" x="0px" y="0px"
	 width="391.154px" height="277.332px" viewBox="0 0 391.154 277.332" enable-background="new 0 0 391.154 277.332"
	 xml:space="preserve">
<path fill="#F385AB" d="M333.134,115.476c7.656,0.066,13.646-5.715,13.818-13.337c0.168-7.424-5.899-13.62-13.479-13.762
	c-7.447-0.141-13.805,6.016-13.865,13.429C319.545,109.315,325.575,115.409,333.134,115.476z M333.242,91.896
	c5.649,0.003,10.075,4.377,10.15,10.031c0.073,5.518-4.5,10.134-10.04,10.135c-5.62,0-10.079-4.428-10.119-10.052
	C323.192,96.331,327.586,91.892,333.242,91.896z"/>
<path fill="#D680C4" d="M13.646,27.116c7.477-0.126,13.667-6.508,13.447-13.862C26.868,5.659,20.74-0.143,13.098,0.003
	C5.521,0.147-0.214,6.3,0.006,14.048C0.213,21.372,6.338,27.24,13.646,27.116z M13.234,3.403c5.631-0.082,10.244,4.412,10.266,9.999
	c0.021,5.768-4.348,10.145-10.068,10.084c-5.85-0.061-10.075-4.35-10.004-10.156C3.494,7.921,7.88,3.481,13.234,3.403z"/>
<path fill="#F385AB" d="M323.338,170.035c6.448,0.305,6.456,0.125,6.45,6.879c0.902,1.791-1.806,6.08,2.072,6.024
	c2.843-0.04,1.396-4.151,1.479-6.409c0.258-7.061-0.783-6.178,7.01-6.488c2.081-0.082,6.036,1.776,5.967-1.906
	c-0.056-2.87-3.853-1.473-5.943-1.541c-8.094-0.266-6.702,0.682-7.051-6.891c-0.101-2.172,1.572-6.177-1.733-6.146
	c-3.175,0.028-1.586,4.049-1.681,6.245c-0.288,6.678-0.145,6.557-6.603,6.781c-2.271,0.08-6.418-1.244-6.432,1.494
	C316.854,171.865,321.051,169.927,323.338,170.035z"/>
<path fill="#D680C4" d="M19.666,78.229c-0.955-0.176-2.077,0.451-2.021,1.693c0.058,1.313,1.266,1.39,2.232,1.431
	c2.162,0.092,4.336,0.194,6.492,0.072c3.043-0.172,4.207,1.184,4.063,4.146c-0.115,2.322,0.004,4.66,0.113,6.987
	c0.049,1.04,0.477,2.04,1.73,2.022c1.291-0.019,1.521-1.098,1.619-2.109c0.096-0.992,0.094-1.995,0.109-2.994
	c0.137-8.702-0.58-8.027,8.236-8.015c0.333,0,0.672,0.038,0.998-0.012c1.366-0.21,3.57,0.477,3.525-1.65
	c-0.041-1.972-2.186-1.581-3.611-1.682c-8.57-0.607-8.568-0.598-9.137-9.149c-0.055-0.828-0.061-1.69-0.313-2.464
	c-0.178-0.541-0.736-0.957-0.992-1.268c-1.656-0.039-2.268,0.931-2.125,1.91C31.826,75.706,28.824,79.913,19.666,78.229z"/>
<path fill="#D680C4" d="M382.158,146.13c4.619,0.277,8.823-3.516,8.99-8.112c0.17-4.644-3.647-8.668-8.327-8.779
	c-4.687-0.112-8.344,3.24-8.533,7.821C374.079,142.08,377.342,145.839,382.158,146.13z M382.822,132.966
	c3.066,0.24,4.624,1.88,4.542,4.834c-0.088,3.171-1.926,4.977-5.038,4.834c-2.873-0.131-4.62-2.161-4.577-4.913
	C377.798,134.689,379.674,132.922,382.822,132.966z"/>
<path fill="#F385AB" d="M64.759,30.432c3.696-0.139,6.542-3.072,6.523-6.725c-0.021-3.907-3.056-6.785-7.032-6.668
	c-3.67,0.108-6.567,3.056-6.559,6.672C57.701,27.521,60.914,30.575,64.759,30.432z"/>
<path fill-rule="evenodd" clip-rule="evenodd" fill="#F385AB" d="M98.008,114.216c0-1.081,0-2.018,0-2.954
	c0-20.633-0.004-41.267,0.005-61.901c0.003-4.983,1.441-6.394,6.437-6.394c43.25-0.002,86.5-0.002,129.75,0
	c4.585,0.001,6.15,1.746,6.09,6.27c-0.097,7.329-0.026,14.661-0.026,22.31c0.925,0,1.7,0,2.473,0
	c6.463-0.002,12.925-0.006,19.386-0.008c4.161,0,5.779,1.578,5.78,5.673c0.004,22.983,0.018,45.966-0.03,68.95
	c-0.003,1.652,0.438,2.887,1.541,4.12c8.421,9.41,16.814,18.847,25.109,28.368c0.875,1.006,1.504,2.608,1.509,3.937
	c0.067,25.112,0.024,50.225,0.001,75.338c-0.006,4.5-1.602,6.104-6.088,6.104c-50.3,0.003-100.599,0.001-150.897,0.004
	c-1.102,0-2.272,0.271-3.288-0.015c-1.471-0.417-3.241-0.866-4.177-1.926c-18.168-20.589-36.217-41.283-54.348-61.905
	c-1.614-1.835-2.306-3.72-2.301-6.152c0.044-24.893,0.003-49.784-0.007-74.677c-0.001-3.136,1.94-5.063,5.076-5.062
	c5.213,0.001,10.426,0.021,15.64,0.022C96.357,114.317,97.072,114.258,98.008,114.216z M134.395,80.818c0,0.701,0,1.198,0,1.695
	c0.001,29.96,0.001,59.92,0.01,89.88c0.001,2.789,2.265,4.993,5.109,4.993c15.274,0.01,30.548,0,45.821,0.017
	c4.115,0.005,5.933,2.112,5.778,6.209c-0.145,3.854-0.03,7.718-0.03,11.624c15.151,0,30.017,0,45.077,0
	c0-4.381-0.027-8.624,0.009-12.867c0.027-2.999,1.757-4.781,4.734-4.956c0.806-0.049,1.615-0.017,2.423-0.017
	c5.043,0,10.085,0,15.163,0c0-32.348,0-64.449,0-96.579C217.113,80.818,175.924,80.818,134.395,80.818z M140.146,254.622
	c49.016,0,97.787,0,146.472,0c0-22.755,0-45.324,0-67.863c-13.816,0-27.437,0-41.236,0c0,4.177,0.011,8.204-0.003,12.23
	c-0.016,3.938-1.696,5.611-5.652,5.612c-16.814,0.007-33.627,0.011-50.441,0.001c-6.571-0.004-7.408-0.861-7.435-7.521
	c-0.013-3.426-0.002-6.851-0.002-10.317c-14.103,0-27.86,0-41.701,0C140.146,209.442,140.146,231.964,140.146,254.622z
	 M107.322,52.256c-0.052,0.738-0.119,1.24-0.119,1.742c-0.004,29.219-0.016,58.438,0.046,87.656
	c0.002,0.977,0.527,2.138,1.178,2.894c4.987,5.781,10.069,11.48,15.108,17.216c0.408,0.462,0.724,1.007,1.082,1.515
	c0.183-0.128,0.365-0.257,0.547-0.385c0-0.713,0-1.425,0-2.137c-0.002-27.756-0.003-55.51-0.006-83.266
	c-0.001-4.381,1.582-5.954,5.977-5.954c32.601,0.005,65.202,0.006,97.802,0.003c0.644,0,1.283-0.068,1.906-0.104
	c0-6.475,0-12.8,0-19.18C189.606,52.256,148.576,52.256,107.322,52.256z M130.355,246.694c0.137-0.697,0.214-0.91,0.214-1.121
	c0.007-20.188,0.023-40.374-0.041-60.563c-0.002-0.907-0.531-1.988-1.151-2.694c-14.495-16.479-29.035-32.919-43.574-49.359
	c-0.402-0.454-0.875-0.845-1.613-1.549c0,0.935,0,1.432,0,1.928c-0.001,19.526,0.017,39.055-0.036,58.581
	c-0.004,1.597,0.491,2.739,1.525,3.912c13.192,14.986,26.338,30.013,39.5,45.025C126.808,242.71,128.455,244.55,130.355,246.694z
	 M281.052,177.305c-4.493-5.073-8.614-9.729-12.99-14.672c0,5.22,0,9.93,0,14.672C272.299,177.305,276.378,177.305,281.052,177.305z
	 M97.881,123.711c-2.524,0-5.021,0-7.928,0c2.667,3.012,5.124,5.787,7.928,8.953C97.881,129.418,97.881,126.749,97.881,123.711z"/>
<path fill-rule="evenodd" clip-rule="evenodd" fill="#D680C4" d="M140.146,254.622c0-22.657,0-45.18,0-67.858
	c13.841,0,27.599,0,41.701,0c0,3.467-0.011,6.892,0.002,10.317c0.027,6.66,0.864,7.518,7.435,7.521
	c16.814,0.01,33.627,0.006,50.441-0.001c3.956-0.001,5.637-1.674,5.652-5.612c0.014-4.026,0.003-8.054,0.003-12.23
	c13.8,0,27.42,0,41.236,0c0,22.539,0,45.108,0,67.863C237.934,254.622,189.163,254.622,140.146,254.622z"/>
<path fill-rule="evenodd" clip-rule="evenodd" fill="#D680C4" d="M130.355,246.694c-1.9-2.144-3.547-3.983-5.175-5.841
	c-13.162-15.013-26.307-30.039-39.5-45.025c-1.034-1.173-1.53-2.315-1.525-3.912c0.053-19.526,0.035-39.055,0.036-58.581
	c0-0.497,0-0.993,0-1.928c0.737,0.704,1.211,1.095,1.613,1.549c14.539,16.44,29.079,32.881,43.574,49.359
	c0.62,0.706,1.148,1.787,1.151,2.694c0.063,20.189,0.048,40.376,0.041,60.563C130.569,245.784,130.492,245.997,130.355,246.694z"/>
<path fill-rule="evenodd" clip-rule="evenodd" fill="#D680C4" d="M281.052,177.305c-4.674,0-8.753,0-12.99,0
	c0-4.742,0-9.452,0-14.672C272.438,167.576,276.559,172.232,281.052,177.305z"/>
<path fill-rule="evenodd" clip-rule="evenodd" fill="#D680C4" d="M97.881,123.711c0,3.037,0,5.707,0,8.953
	c-2.804-3.166-5.261-5.941-7.928-8.953C92.86,123.711,95.357,123.711,97.881,123.711z"/>
<path fill-rule="evenodd" clip-rule="evenodd" fill="#F385AB" d="M196.586,150.306c12.845,0,25.688-0.011,38.532,0.009
	c3.613,0.006,5.836,2.634,4.989,5.802c-0.59,2.216-2.477,3.392-5.514,3.395c-11.376,0.009-22.753,0.006-34.13,0.006
	c-14.017-0.002-28.035,0-42.054-0.013c-3.189-0.003-5.166-1.428-5.524-3.901c-0.426-2.938,1.576-5.255,4.729-5.285
	c5.797-0.056,11.596-0.02,17.394-0.02c7.192-0.003,14.385,0,21.578,0C196.586,150.301,196.586,150.304,196.586,150.306z"/>
<path fill-rule="evenodd" clip-rule="evenodd" fill="#F385AB" d="M196.505,98.737c12.77,0,25.538-0.005,38.31,0.005
	c3.643,0.002,5.69,1.955,5.391,5.08c-0.245,2.551-2.171,4.093-5.315,4.113c-5.577,0.036-11.156,0.006-16.733,0.005
	c-19.814-0.002-39.63-0.003-59.445-0.008c-0.586,0-1.179,0.003-1.757-0.076c-2.591-0.349-4.221-2.291-4.097-4.841
	c0.116-2.407,1.884-4.197,4.458-4.233c5.43-0.077,10.861-0.042,16.292-0.044C181.24,98.734,188.872,98.737,196.505,98.737z"/>
<path fill-rule="evenodd" clip-rule="evenodd" fill="#F385AB" d="M196.356,133.685c-12.772,0-25.544,0.008-38.316-0.005
	c-3.317-0.004-5.344-1.95-5.188-4.889c0.137-2.581,2.141-4.317,5.122-4.326c8.221-0.024,16.442-0.013,24.664-0.013
	c17.396,0,34.792,0,52.188,0.007c3.018,0,4.984,1.425,5.356,3.829c0.48,3.104-1.624,5.389-5.069,5.397
	c-9.175,0.023-18.349,0.008-27.526,0.007c-3.743,0-7.486,0-11.229,0C196.356,133.69,196.356,133.688,196.356,133.685z"/>
</svg>
