<?xml version="1.0" encoding="utf-8"?>
<!-- Generator: Adobe Illustrator 16.0.2, SVG Export Plug-In . SVG Version: 6.00 Build 0)  -->
<!DOCTYPE svg PUBLIC "-//W3C//DTD SVG 1.1//EN" "http://www.w3.org/Graphics/SVG/1.1/DTD/svg11.dtd">
<svg version="1.1" id="Layer_1" xmlns="http://www.w3.org/2000/svg" xmlns:xlink="http://www.w3.org/1999/xlink" x="0px" y="0px"
	 width="391.154px" height="277.331px" viewBox="0 0 391.154 277.331" enable-background="new 0 0 391.154 277.331"
	 xml:space="preserve">
<path fill="none" d="M92.281,70.666c0.052,0.041,0.104,0.082,0.153,0.124c-0.001-0.14-0.001-0.276-0.001-0.417
	C92.373,70.475,92.335,70.567,92.281,70.666z"/>
<path fill="#D680C4" d="M216.487,117.833c6.808,0.78,13.285,2.636,19.975,5.006c0.082-1.735,0.206-3.045,0.194-4.354
	c-0.063-7.646,0.766-6.615-6.654-6.62c-43.65-0.034-87.301,0.056-130.949-0.131c-4.527-0.02-5.508,1.304-5.469,5.604
	c0.207,23.155,0.086,46.314,0.102,69.472c0.004,5.734,0.953,6.699,6.669,6.711c14.161,0.028,28.323-0.104,42.482,0.081
	c3.728,0.048,4.713-0.657,4.152-4.701C141.529,149.474,177.076,113.318,216.487,117.833z"/>
<path fill="#D680C4" d="M276.652,233.862c-3.648-3.562-7.828-3.29-11.619,0.045c-4.797,4.219-5.029,9.775-0.221,14.845
	c6.977,7.355,14.185,14.491,21.286,21.728c1.831,1.866,3.959,3.001,6.471,2.844c4.328,0.201,7.175-1.853,8.959-5.383
	c1.973-3.905,0.962-7.677-1.81-10.61C292.187,249.358,284.5,241.523,276.652,233.862z"/>
<path fill="#E3CE62" d="M261.992,230.511c-0.59-1.757-1.908-3.327-3.765-4.149c-1.128,0.827-3.001,1.398-2.647,2.68
	c0.545,1.975,2.012,3.89,4.195,4.177C260.619,233.33,262.405,231.744,261.992,230.511z"/>
<path fill="#FECC35" d="M93.854,88.077c0.006-3.942,0.007-7.883-0.038-11.825c-0.01-0.866,0.045-1.78-0.048-2.657
	c-0.062,0.515-0.088,1.07-0.079,1.671C93.754,79.535,93.834,83.807,93.854,88.077z"/>
<path fill="#f385ab" d="M210.709,127.299c-30.291-0.028-54.578,24.365-54.449,54.688c0.128,29.983,24.559,54.198,54.579,54.096
	c29.956-0.102,53.978-24.494,53.897-54.729C264.656,151.505,240.49,127.327,210.709,127.299z M210.561,232.254
	c-28.065-0.02-50.376-22.317-50.469-50.439c-0.092-28.063,22.219-50.621,50.175-50.731c28.117-0.111,50.937,22.625,50.87,50.688
	C261.072,209.659,238.415,232.274,210.561,232.254z"/>
<path fill="#f385ab" d="M193.699,166.141c1.131-0.817,2.732-2.083,1.33-3.659c-1.691-1.903-3.082-0.108-4.024,1.094
	c-2.079,2.655-3.858,3.126-6.089,0.142c-0.886-1.184-2.25-3.142-4.004-1.347c-1.742,1.785,0.264,3.063,1.428,3.99
	c2.561,2.039,2.705,3.743,0.043,5.821c-1.191,0.931-3.109,2.223-1.516,4.032c1.736,1.968,3.072-0.049,3.965-1.205
	c2.092-2.708,3.894-3.085,6.023-0.093c0.635,0.892,1.71,1.471,2.727,2.311c0.642-0.47,1.33-0.731,1.611-1.226
	c0.877-1.539-0.26-2.56-1.279-3.342C191.116,170.518,190.411,168.515,193.699,166.141z"/>
<path fill="#f385ab" d="M240.709,164.1c-0.643-0.966-0.888-1.623-1.359-1.989c-1.266-0.981-2.285-0.083-2.943,0.822
	c-2.537,3.498-4.929,3.785-7.527,0.057c-0.787-1.129-2.003-1.959-3.314-0.591c-1.072,1.119-0.505,2.23,0.506,2.966
	c3.662,2.66,3.775,5.188,0.018,7.885c-0.989,0.71-1.43,1.896-0.451,3.034c0.824,0.957,1.96,0.859,2.569-0.03
	c3.136-4.577,6.022-3.652,8.985,0.16c0.542,0.696,1.512,0.819,2.194,0.115c0.417-0.431,0.925-1.509,0.784-1.64
	C236.1,171.125,234.33,167.45,240.709,164.1z"/>
<path fill="#f385ab" d="M211.818,193.111c-5.275-0.037-8.98,1.583-11.918,4.796c-0.906,0.99-2.855,2.112-1.564,3.641
	c1.483,1.755,2.902,0.114,4.18-0.929c5.771-4.715,10.576-4.998,15.621-0.932c0.643,0.519,1.182,1.164,1.822,1.684
	c0.941,0.762,2.073,1.376,3.119,0.428c1.223-1.106,0.143-2.111-0.54-2.979C219.59,195.071,215.691,193.209,211.818,193.111z"/>
<path fill="#f385ab" d="M333.134,115.476c7.656,0.066,13.646-5.715,13.818-13.337c0.168-7.424-5.899-13.62-13.478-13.762
	c-7.448-0.141-13.805,6.016-13.866,13.429C319.545,109.315,325.575,115.409,333.134,115.476z M333.242,91.896
	c5.65,0.003,10.075,4.377,10.151,10.031c0.073,5.518-4.5,10.134-10.04,10.135c-5.621,0-10.08-4.428-10.12-10.052
	C323.192,96.331,327.586,91.892,333.242,91.896z"/>
<path fill="#D680C4" d="M13.646,27.116c7.477-0.126,13.667-6.508,13.447-13.862C26.868,5.659,20.74-0.143,13.098,0.003
	C5.521,0.147-0.214,6.3,0.006,14.048C0.213,21.372,6.338,27.24,13.646,27.116z M13.234,3.403c5.631-0.082,10.244,4.412,10.266,9.999
	c0.021,5.768-4.348,10.145-10.068,10.084C7.582,23.425,3.357,19.136,3.428,13.33C3.494,7.921,7.88,3.481,13.234,3.403z"/>
<path fill="#f385ab" d="M323.338,170.035c6.448,0.304,6.456,0.125,6.45,6.878c0.902,1.792-1.806,6.08,2.072,6.025
	c2.843-0.04,1.396-4.152,1.479-6.409c0.258-7.061-0.783-6.178,7.01-6.488c2.081-0.083,6.036,1.776,5.966-1.907
	c-0.055-2.87-3.852-1.473-5.943-1.541c-8.094-0.266-6.702,0.682-7.051-6.891c-0.1-2.171,1.573-6.176-1.733-6.145
	c-3.175,0.029-1.586,4.049-1.681,6.246c-0.288,6.677-0.144,6.556-6.602,6.781c-2.272,0.079-6.418-1.244-6.432,1.494
	C316.854,171.865,321.051,169.927,323.338,170.035z"/>
<path fill="#D680C4" d="M19.666,78.229c-0.955-0.176-2.077,0.451-2.021,1.693c0.058,1.313,1.266,1.39,2.232,1.431
	c2.162,0.092,4.336,0.194,6.492,0.072c3.043-0.172,4.207,1.184,4.063,4.146c-0.115,2.322,0.004,4.66,0.113,6.987
	c0.049,1.04,0.477,2.04,1.73,2.022c1.291-0.019,1.521-1.098,1.619-2.109c0.096-0.992,0.094-1.995,0.109-2.994
	c0.137-8.702-0.58-8.027,8.236-8.015c0.333,0,0.672,0.038,0.998-0.012c1.366-0.21,3.57,0.477,3.525-1.65
	c-0.041-1.972-2.186-1.581-3.611-1.682c-8.57-0.607-8.568-0.598-9.137-9.149c-0.055-0.828-0.061-1.69-0.313-2.464
	c-0.178-0.541-0.736-0.957-0.992-1.268c-1.656-0.039-2.268,0.931-2.125,1.91C31.826,75.706,28.824,79.913,19.666,78.229z"/>
<path fill="#D680C4" d="M382.158,146.13c4.619,0.277,8.823-3.516,8.99-8.112c0.17-4.644-3.647-8.668-8.327-8.779
	c-4.686-0.112-8.343,3.24-8.533,7.821C374.079,142.08,377.342,145.84,382.158,146.13z M382.822,132.966
	c3.067,0.24,4.624,1.88,4.542,4.834c-0.088,3.171-1.926,4.977-5.038,4.835c-2.873-0.131-4.62-2.162-4.577-4.914
	C377.798,134.689,379.674,132.922,382.822,132.966z"/>
<path fill="#f385ab" d="M64.759,30.432c3.696-0.139,6.542-3.072,6.523-6.725c-0.021-3.907-3.056-6.785-7.032-6.668
	c-3.67,0.108-6.567,3.056-6.559,6.672C57.701,27.521,60.914,30.575,64.759,30.432z"/>
<path fill="#85ACFA" d="M272.038,66.421c0.261-1.252,0.494-2.511,0.69-3.78c-0.4-0.813-0.84-1.617-1.326-2.408
	C271.539,62.292,271.808,64.356,272.038,66.421z"/>
<path fill="none" d="M210.971,121.327c-33.52-0.127-60.572,26.63-60.693,60.025c-0.119,33.452,26.789,60.66,60.055,60.725
	c33.398,0.064,60.339-26.863,60.37-60.341C270.733,148.39,244.098,121.453,210.971,121.327z"/>
<path fill="none" d="M216.487,117.833c6.808,0.78,13.285,2.636,19.975,5.006c0.082-1.735,0.206-3.045,0.194-4.354
	c-0.063-7.646,0.766-6.615-6.654-6.62c-43.65-0.034-87.301,0.056-130.949-0.131c-4.527-0.02-5.508,1.304-5.469,5.604
	c0.207,23.155,0.086,46.314,0.102,69.472c0.004,5.734,0.953,6.699,6.669,6.711c14.161,0.028,28.323-0.104,42.482,0.081
	c3.728,0.048,4.713-0.657,4.152-4.701C141.529,149.474,177.076,113.318,216.487,117.833z"/>
<path fill="none" d="M261.992,230.511c-0.59-1.757-1.908-3.327-3.765-4.149c-1.128,0.827-3.001,1.398-2.647,2.68
	c0.545,1.975,2.012,3.89,4.195,4.177C260.619,233.33,262.405,231.744,261.992,230.511z"/>
<path fill="none" d="M276.652,233.862c-3.648-3.562-7.828-3.29-11.619,0.045c-4.797,4.219-5.029,9.775-0.221,14.845
	c6.977,7.355,14.185,14.491,21.286,21.728c1.831,1.866,3.959,3.001,6.471,2.844c4.328,0.201,7.175-1.853,8.959-5.383
	c1.973-3.905,0.962-7.677-1.81-10.61C292.187,249.358,284.5,241.523,276.652,233.862z"/>
<path fill="#0A2047" d="M90.921,73.642l-0.015-1.093C90.887,72.917,90.899,73.282,90.921,73.642z"/>
<path fill="#0A2047" d="M91.359,186.525c0.083-24.932,0.087-49.864,0.09-74.796c-0.191,0.001-0.349,0.002-0.486,0.003
	c-0.007,25.521-0.012,51.041-0.043,76.562c-0.002,2.021,0.443,3.944,0.638,5.918C92.57,191.633,91.35,189.099,91.359,186.525z"/>
<path fill="#f385ab" d="M92.281,70.666c0.052,0.041,0.104,0.082,0.153,0.124c-0.001-0.14-0.001-0.276-0.001-0.417
	C92.373,70.475,92.335,70.567,92.281,70.666z"/>
<path fill="#f385ab" d="M92.281,70.666c0.054-0.099,0.092-0.191,0.152-0.292c0,0.14,0,0.276,0.001,0.417
	c0.442,0.385,0.743,0.819,0.95,1.284c0.036-0.773,0.063-1.365,0.063-1.408c0-0.128-0.209-1.414-0.209-1.414h-1.651l-0.693,2.333
	l0.012,0.963c0.042-0.747,0.225-1.51,0.79-2.282C91.915,70.392,92.104,70.526,92.281,70.666z"/>
<path fill="#f385ab" d="M300.215,252.439c-5.749-6.012-11.659-11.874-17.307-17.979c-4.195-4.535-8.725-7.485-15.32-6.211
	c-3.738,0.723-4.537-3.305-6.569-5.218c-1.602-1.508,0.638-2.59,1.383-3.646c21.81-30.893,13.629-72.166-18.458-92.313
	c-2.541-1.596-3.637-3.15-3.539-6.244c0.126-3.975,0.163-7.953,0.156-11.931c0.018-0.016,0.048-0.03,0.048-0.046
	c0,0,0.001-0.001,0.001-0.001c0-2.019,2.469-17.356-1.098-19.667c-0.188,0.133-0.357,0.271-0.516,0.414
	c-0.025,0.022-0.045,0.047-0.07,0.07c-0.13,0.122-0.254,0.246-0.365,0.374c-0.012,0.015-0.021,0.03-0.035,0.044
	c-0.117,0.139-0.226,0.28-0.322,0.424c-0.004,0.005-0.006,0.01-0.009,0.014c-0.103,0.155-0.194,0.312-0.276,0.473
	c-0.001,0-0.002,0.001-0.002,0.002l0.009-0.126c0.336-0.625,0.818-1.206,1.538-1.719c0.018,0.012,0.031,0.018,0.049,0.03
	c-1.427-3.932-4.713-4.124-8.154-4.117c-22.627,0.044-45.255,0.005-67.882,0.165c-3.047,0.021-4.854-0.829-6.271-3.563
	c-2.443-4.713-5.357-9.181-7.877-13.857c-1.178-2.188-2.658-2.919-5.135-2.9c-14.973,0.116-29.947,0.036-44.922,0.072
	c-6.969,0.017-9.146,2.247-9.15,9.374c-0.02,37.935-0.015,75.869,0.002,113.804c0,2.108-0.309,4.334,1.439,6.037
	c-0.002,0.006-0.003,0.012-0.005,0.017c1.601,2.984,4.392,3.136,7.296,3.132c14.666-0.018,29.336,0.163,43.996-0.112
	c4.148-0.078,5.863,1.148,7.217,5.144c13.742,40.549,62.471,56.312,97.436,31.776c1.559-1.095,3.098-4.939,5.882-1.265
	c1.476,1.947,4.497,3.265,4.245,5.884c-0.881,9.143,5.714,13.912,10.803,19.615c4.835,3.527,8.576,8.187,12.587,12.523
	c4.261,4.606,9.05,7.148,15.397,6.239C308.186,270.954,309.548,262.197,300.215,252.439z M91.588,194.108
	c-0.201-1.926-0.623-3.809-0.621-5.783c0.031-25.521,0.036-51.042,0.043-76.562c0.125-0.001,0.272-0.002,0.439-0.003
	c-0.003,24.922-0.007,49.844-0.09,74.765C91.35,189.064,92.528,191.565,91.588,194.108z M93.656,101.783
	c0.152-3.183,0.221-6.371,0.242-9.561c0.002-1.371,0.001-2.742,0.003-4.113c-0.021-4.271-0.101-8.542-0.165-12.81
	c-0.009-0.601,0.018-1.157,0.079-1.671c-0.009-0.088-0.031-0.172-0.044-0.26c0,0,0,0,0-0.001c0.013,0.087,0.035,0.172,0.044,0.261
	c0.412-3.464,2.444-4.991,6.499-4.961c13.495,0.1,26.992,0.128,40.486-0.036c2.955-0.036,4.512,1.023,5.801,3.546
	c2.193,4.295,4.96,8.307,7.025,12.656c1.611,3.394,3.865,4.241,7.458,4.216c22.825-0.16,45.651-0.086,68.477-0.08
	c6.455,0.001,7.179,0.688,7.149,7.16c-0.016,3.295-0.148,6.591-0.261,9.886c-0.198,0.358-0.448,0.709-0.749,1.052
	c-0.021,0.023-0.037,0.047-0.058,0.071c-0.104,0.112-0.223,0.208-0.335,0.312c-0.266,0.245-0.547,0.473-0.844,0.678
	c-44.865-0.04-89.73-0.169-134.594,0.022c-2.467,0.01-4.039-0.311-4.992-1.178C93.828,106.014,93.531,104.392,93.656,101.783z
	 M146.989,188.901c0.561,4.044-0.425,4.749-4.152,4.701c-14.159-0.185-28.321-0.053-42.482-0.081
	c-5.716-0.012-6.665-0.977-6.669-6.711c-0.016-23.157,0.105-46.316-0.102-69.472c-0.039-4.3,0.941-5.623,5.469-5.604
	c43.648,0.187,87.299,0.097,130.949,0.131c7.42,0.005,6.592-1.026,6.654,6.62c0.012,1.309-0.112,2.618-0.194,4.354
	c-6.689-2.37-13.167-4.226-19.975-5.006C177.076,113.318,141.529,149.474,146.989,188.901z M210.332,242.077
	c-33.266-0.064-60.174-27.272-60.055-60.725c0.121-33.396,27.174-60.152,60.693-60.025c33.127,0.126,59.763,27.063,59.731,60.409
	C270.671,215.213,243.73,242.141,210.332,242.077z M255.58,229.042c-0.354-1.281,1.52-1.853,2.647-2.68
	c1.856,0.822,3.175,2.393,3.765,4.149c0.413,1.232-1.373,2.818-2.217,2.707C257.592,232.931,256.125,231.016,255.58,229.042z
	 M301.528,267.94c-1.784,3.53-4.631,5.584-8.959,5.383c-2.512,0.157-4.64-0.978-6.471-2.844
	c-7.102-7.236-14.31-14.372-21.286-21.728c-4.809-5.069-4.576-10.626,0.221-14.845c3.791-3.335,7.971-3.606,11.619-0.045
	c7.848,7.661,15.534,15.496,23.066,23.468C302.49,260.263,303.501,264.035,301.528,267.94z"/>
</svg>
