<?xml version="1.0" encoding="utf-8"?>
<!-- Generator: Adobe Illustrator 16.0.2, SVG Export Plug-In . SVG Version: 6.00 Build 0)  -->
<!DOCTYPE svg PUBLIC "-//W3C//DTD SVG 1.1//EN" "http://www.w3.org/Graphics/SVG/1.1/DTD/svg11.dtd">
<svg version="1.1" id="Layer_1" xmlns="http://www.w3.org/2000/svg" xmlns:xlink="http://www.w3.org/1999/xlink" x="0px" y="0px"
	 width="139px" height="27px" viewBox="0 0 139 27" enable-background="new 0 0 139 27" xml:space="preserve">
<g>
	<path fill="#163185" d="M43.981,0.2h-7.8c-0.5,0-1,0.4-1.1,0.9l-3.1,20c-0.1,0.4,0.2,0.701,0.6,0.701h3.7c0.5,0,1-0.4,1.1-0.9
		l0.8-5.4c0.1-0.5,0.5-0.9,1.1-0.9h2.5c5.1,0,8.1-2.5,8.9-7.399c0.3-2.1,0-3.8-1-5C48.581,0.9,46.581,0.2,43.981,0.2z M44.881,7.5
		c-0.4,2.8-2.6,2.8-4.6,2.8h-1.2l0.8-5.2c0-0.3,0.3-0.5,0.6-0.5h0.5c1.4,0,2.7,0,3.4,0.8C44.881,5.8,45.081,6.5,44.881,7.5z"/>
	<path fill="#163185" d="M67.181,7.4h-3.7c-0.299,0-0.599,0.2-0.599,0.5l-0.201,1l-0.299-0.4c-0.801-1.2-2.601-1.6-4.401-1.6
		c-4.1,0-7.6,3.1-8.3,7.5c-0.4,2.199,0.1,4.299,1.4,5.699c1.1,1.301,2.8,1.9,4.7,1.9c3.3,0,5.2-2.1,5.2-2.1l-0.2,1
		c-0.1,0.4,0.2,0.799,0.6,0.799h3.4c0.5,0,1-0.398,1.101-0.898l2-12.8C67.981,7.8,67.581,7.4,67.181,7.4z M62.081,14.6
		c-0.4,2.1-2,3.6-4.2,3.6c-1.1,0-1.9-0.299-2.5-1c-0.6-0.699-0.8-1.6-0.6-2.6c0.3-2.099,2.1-3.599,4.2-3.599c1.1,0,1.9,0.4,2.5,1
		C61.981,12.7,62.181,13.6,62.081,14.6z"/>
	<path fill="#163185" d="M87.081,7.4h-3.7c-0.4,0-0.699,0.2-0.9,0.5l-5.199,7.6l-2.2-7.3c-0.1-0.5-0.6-0.8-1-0.8h-3.699
		c-0.4,0-0.801,0.4-0.601,0.9l4.101,12.1l-3.9,5.4c-0.301,0.398,0,1,0.5,1h3.699c0.4,0,0.701-0.201,0.9-0.5l12.5-18
		C87.881,8,87.581,7.4,87.081,7.4z"/>
	<path fill="#1B98C3" d="M99.72,0.25h-7.799c-0.5,0-1,0.4-1.101,0.9l-3.101,19.9c-0.1,0.4,0.201,0.699,0.601,0.699h4
		c0.399,0,0.7-0.299,0.7-0.6l0.9-5.699c0.1-0.5,0.5-0.9,1.1-0.9h2.5c5.1,0,8.1-2.5,8.9-7.4c0.299-2.1,0-3.8-1-5
		C104.22,0.951,102.32,0.25,99.72,0.25z M100.62,7.551c-0.4,2.8-2.6,2.8-4.6,2.8h-1.2l0.8-5.2c0-0.3,0.301-0.5,0.6-0.5h0.5
		c1.4,0,2.701,0,3.4,0.8C100.62,5.851,100.72,6.551,100.62,7.551z"/>
	<path fill="#1B98C3" d="M122.682,7.4h-3.701c-0.299,0-0.6,0.2-0.6,0.5l-0.199,1l-0.301-0.4c-0.8-1.2-2.6-1.6-4.4-1.6
		c-4.1,0-7.6,3.1-8.299,7.5c-0.4,2.199,0.1,4.299,1.399,5.699c1.101,1.301,2.8,1.9,4.7,1.9c3.3,0,5.199-2.1,5.199-2.1l-0.199,1
		c-0.1,0.4,0.199,0.799,0.6,0.799h3.4c0.5,0,1-0.398,1.1-0.898l2-12.8C123.381,7.8,123.081,7.4,122.682,7.4z M117.48,14.6
		c-0.399,2.1-2,3.6-4.199,3.6c-1.1,0-1.9-0.299-2.5-1c-0.6-0.699-0.801-1.6-0.6-2.6c0.299-2.099,2.1-3.599,4.199-3.599
		c1.1,0,1.9,0.4,2.5,1C117.48,12.7,117.682,13.6,117.48,14.6z"/>
	<path fill="#1B98C3" d="M127.081,0.7l-3.2,20.3c-0.1,0.4,0.2,0.699,0.6,0.699h3.201c0.5,0,1-0.398,1.1-0.898l3.199-19.9
		c0.101-0.4-0.199-0.7-0.6-0.7h-3.6C127.381,0.2,127.182,0.4,127.081,0.7z"/>
</g>
<g>
	<path fill="#1B98C3" d="M28.049,6.851c0.28-2.1,0-3.5-1.123-4.8c-1.218-1.4-3.371-2.1-6.085-2.1h-7.958c-0.468,0-1.029,0.5-1.124,1
		l-3.276,22.2c0,0.4,0.281,0.9,0.749,0.9H14.1l-0.281,2.199c-0.094,0.4,0.187,0.7,0.561,0.7h4.12c0.469,0,0.936-0.3,1.03-0.8v-0.3
		l0.842-5.2v-0.2c0.094-0.5,0.562-0.899,1.03-0.899h0.563c4.024,0,7.114-1.7,8.051-6.7c0.467-2.1,0.281-3.8-0.843-5
		C28.893,7.45,28.423,7.15,28.049,6.851L28.049,6.851"/>
	<path fill="#132269" d="M28.049,6.851c0.28-2.1,0-3.5-1.123-4.8c-1.218-1.4-3.371-2.1-6.085-2.1h-7.958c-0.468,0-1.029,0.5-1.124,1
		l-3.276,22.2c0,0.4,0.281,0.9,0.749,0.9H14.1l1.311-8.301l-0.094,0.301c0.094-0.601,0.562-1,1.123-1h2.34
		c4.588,0,8.146-2,9.269-7.601C27.956,7.15,28.049,7.05,28.049,6.851"/>
	<path fill="#163185" d="M16.629,6.851c0.092-0.3,0.28-0.6,0.561-0.8c0.186,0,0.28-0.1,0.467-0.1h6.179c0.75,0,1.497,0.1,2.061,0.2
		c0.187,0,0.375,0,0.562,0.1s0.374,0.1,0.468,0.2c0.094,0,0.186,0,0.281,0c0.279,0.1,0.561,0.3,0.842,0.4c0.28-2.1,0-3.5-1.123-4.9
		c-1.124-1.4-3.275-2-5.992-2h-8.051c-0.468,0-1.029,0.4-1.124,1l-3.276,22.2c0,0.4,0.281,0.9,0.749,0.9H14.1l1.311-8.301
		L16.629,6.851z"/>
</g>
</svg>
