<?xml version="1.0" encoding="utf-8"?>
<!-- Generator: Adobe Illustrator 16.0.2, SVG Export Plug-In . SVG Version: 6.00 Build 0)  -->
<!DOCTYPE svg PUBLIC "-//W3C//DTD SVG 1.1//EN" "http://www.w3.org/Graphics/SVG/1.1/DTD/svg11.dtd">
<svg version="1.1" id="Layer_1" focusable="false" xmlns="http://www.w3.org/2000/svg" xmlns:xlink="http://www.w3.org/1999/xlink"
	 x="0px" y="0px" width="612px" height="792px" viewBox="0 0 612 792" enable-background="new 0 0 612 792" xml:space="preserve">
<path fill="#FFFFFF" d="M612,333.038c-60.142,0.144-118.809-18.612-167.713-53.618v244.144
	c-0.045,122.638-99.499,222.019-222.136,221.974S0.133,646.038,0.178,523.4s99.499-222.018,222.136-221.973
	c10.173,0.004,20.333,0.707,30.409,2.104v122.796c-53.704-16.893-110.933,12.949-127.826,66.652
	c-16.892,53.704,12.949,110.934,66.653,127.826c53.704,16.892,110.934-12.949,127.826-66.653c3.113-9.897,4.697-20.213,4.697-30.589
	V46.286h120.214c-0.083,10.152,0.768,20.29,2.541,30.286l0,0c8.442,45.099,35.078,84.733,73.646,109.586
	c27.148,17.952,58.979,27.52,91.526,27.513V333.038z"/>
</svg>
