<?xml version="1.0" encoding="utf-8"?>
<!-- Generator: Adobe Illustrator 16.0.2, SVG Export Plug-In . SVG Version: 6.00 Build 0)  -->
<!DOCTYPE svg PUBLIC "-//W3C//DTD SVG 1.1//EN" "http://www.w3.org/Graphics/SVG/1.1/DTD/svg11.dtd">
<svg version="1.1" id="Capa_1" xmlns="http://www.w3.org/2000/svg" xmlns:xlink="http://www.w3.org/1999/xlink" x="0px" y="0px"
	 width="611.953px" height="611.953px" viewBox="0.024 117.046 611.953 611.953"
	 enable-background="new 0.024 117.046 611.953 611.953" xml:space="preserve">
<g>
	<rect x="0.024" y="109.105" fill="#556080" width="611.953" height="619.894"/>
	<g>
		<path fill="#E7ECED" d="M214.938,543.829l-91.303,49.805c-5.357,2.92-10.173,6.512-14.653,10.426
			c53.232,44.885,121.95,71.963,197.029,71.963c74.525,0,142.804-26.674,195.886-70.947c-4.896-4.133-10.207-7.852-16.097-10.783
			l-97.77-48.881c-12.633-6.316-20.611-19.225-20.611-33.348v-38.359c2.748-3.129,5.889-7.148,9.249-11.895
			c13.325-18.82,23.406-39.525,30.392-61.246c12.541-3.867,21.778-15.449,21.778-29.213v-40.947c0-9.007-4.007-17.055-10.23-22.69
			v-59.191c0,0,12.159-92.112-112.585-92.112s-112.585,92.112-112.585,92.112v59.191c-6.236,5.635-10.23,13.684-10.23,22.69v40.947
			c0,10.785,5.67,20.275,14.156,25.762c10.23,44.537,37.021,76.592,37.021,76.592v37.412
			C234.373,524.743,226.913,537.294,214.938,543.829z"/>
		<g>
			<path fill="#556080" d="M311.242,62.068C142.272,59.181,2.944,193.821,0.058,362.791
				c-1.64,95.808,41.063,181.915,109.052,239.177c4.446-3.881,9.215-7.438,14.515-10.324l91.304-49.803
				c11.974-6.535,19.434-19.086,19.434-32.736v-37.412c0,0-26.801-32.055-37.021-76.592c-8.475-5.486-14.156-14.965-14.156-25.762
				v-40.947c0-9.007,4.007-17.055,10.23-22.69v-59.19c0,0-12.159-92.112,112.585-92.112s112.585,92.112,112.585,92.112v59.19
				c6.235,5.635,10.23,13.684,10.23,22.69v40.947c0,13.764-9.237,25.346-21.777,29.213c-6.986,21.721-17.067,42.426-30.393,61.248
				c-3.36,4.744-6.501,8.764-9.249,11.893v38.359c0,14.123,7.979,27.043,20.611,33.348l97.771,48.881
				c5.865,2.932,11.166,6.639,16.05,10.762c65.935-54.988,108.532-137.203,110.114-229.789
				C614.853,204.283,480.224,64.955,311.242,62.068z"/>
		</g>
	</g>
</g>
</svg>
