<?xml version="1.0" encoding="utf-8"?>
<!-- Generator: Adobe Illustrator 16.0.2, SVG Export Plug-In . SVG Version: 6.00 Build 0)  -->
<!DOCTYPE svg PUBLIC "-//W3C//DTD SVG 1.1//EN" "http://www.w3.org/Graphics/SVG/1.1/DTD/svg11.dtd">
<svg version="1.1" id="Layer_1" xmlns="http://www.w3.org/2000/svg" xmlns:xlink="http://www.w3.org/1999/xlink" x="0px" y="0px"
	 width="40.489px" height="50px" viewBox="0 0 40.489 50" enable-background="new 0 0 40.489 50" xml:space="preserve">
<g>
	<g>
		<path fill-rule="evenodd" clip-rule="evenodd" fill="#FFFFFF" d="M19.466,0c0.521,0,1.042,0,1.563,0
			c0.09,0.031,0.177,0.076,0.27,0.09c2.807,0.422,5.106,2.656,5.588,5.46c0.059,0.348,0.19,0.443,0.534,0.441
			c2.393-0.015,4.785-0.022,7.177-0.004c2.715,0.021,4.938,1.663,5.641,4.13c0.748,2.628-0.195,5.332-2.519,6.694
			c-0.762,0.446-0.883,0.905-0.881,1.669c0.022,8.527,0.01,17.056,0.017,25.583c0.002,2.069-0.772,3.767-2.498,4.906
			c-0.735,0.486-1.653,0.696-2.488,1.031c-7.747,0-15.495,0-23.242,0c-0.326-0.088-0.654-0.165-0.975-0.267
			C5.2,48.961,3.645,46.79,3.644,44.111C3.64,35.339,3.641,26.567,3.647,17.795c0-0.316-0.042-0.522-0.373-0.685
			c-2.697-1.331-3.931-4.423-2.927-7.274c0.834-2.37,2.958-3.839,5.6-3.852c2.376-0.011,4.752-0.006,7.128,0.002
			c0.295,0.001,0.466-0.035,0.53-0.388c0.396-2.191,1.595-3.827,3.571-4.833C17.885,0.405,18.699,0.25,19.466,0z M34.136,17.731
			c-9.287,0-18.505,0-27.778,0c0,0.188,0,0.346,0,0.504c0,8.592-0.002,17.184,0.001,25.774c0.001,2.057,1.219,3.271,3.28,3.271
			c7.078,0.004,14.157,0.003,21.235-0.002c0.322,0,0.655-0.013,0.967-0.091c1.483-0.371,2.294-1.508,2.295-3.196
			c0.001-8.575,0-17.151,0-25.727C34.136,18.104,34.136,17.942,34.136,17.731z M20.247,8.697c-4.768,0-9.537,0-14.305,0
			c-1.194,0-2.174,0.44-2.772,1.5c-0.622,1.102-0.614,2.256,0.022,3.347c0.647,1.109,1.706,1.466,2.944,1.465
			c9.407-0.007,18.814-0.004,28.22-0.004c0.098,0,0.195,0.002,0.293-0.002c2.299-0.101,3.666-2.101,2.926-4.28
			c-0.435-1.277-1.559-2.025-3.071-2.026C29.752,8.695,24.999,8.697,20.247,8.697z M24.165,5.956
			c-0.207-1.92-2.206-3.383-4.354-3.212c-1.713,0.136-3.5,1.803-3.439,3.212C18.969,5.956,21.565,5.956,24.165,5.956z"/>
		<path fill-rule="evenodd" clip-rule="evenodd" fill="#FFFFFF" d="M21.607,34.859c0,2.489,0.006,4.978-0.003,7.466
			c-0.004,1.078-0.875,1.747-1.812,1.417c-0.572-0.202-0.901-0.704-0.905-1.417c-0.006-1.335-0.002-2.668-0.002-4.002
			c0-3.626-0.001-7.254,0.001-10.881c0-0.868,0.448-1.459,1.165-1.558c0.858-0.118,1.545,0.516,1.552,1.461
			c0.01,1.513,0.003,3.025,0.003,4.538C21.607,32.876,21.607,33.868,21.607,34.859z"/>
		<path fill-rule="evenodd" clip-rule="evenodd" fill="#FFFFFF" d="M11.637,34.861c0-2.505-0.004-5.009,0.003-7.513
			c0.002-0.926,0.6-1.521,1.44-1.47c0.604,0.037,1.115,0.483,1.218,1.078c0.033,0.19,0.04,0.389,0.041,0.583
			c0.002,4.879,0.002,9.757-0.002,14.635c0,0.241-0.012,0.493-0.078,0.724c-0.167,0.583-0.802,0.987-1.394,0.922
			c-0.65-0.072-1.154-0.568-1.214-1.203c-0.017-0.178-0.013-0.357-0.013-0.536C11.636,39.674,11.637,37.268,11.637,34.861z"/>
		<path fill-rule="evenodd" clip-rule="evenodd" fill="#FFFFFF" d="M28.854,34.865c-0.001,2.505,0.006,5.008-0.004,7.513
			c-0.004,1.04-0.886,1.7-1.799,1.36c-0.476-0.178-0.781-0.522-0.86-1.034c-0.032-0.207-0.035-0.421-0.035-0.632
			c-0.002-4.813-0.002-9.625-0.001-14.438c0-0.146-0.001-0.293,0.01-0.438c0.066-0.813,0.633-1.345,1.398-1.318
			c0.735,0.027,1.281,0.59,1.285,1.379c0.012,2.162,0.005,4.325,0.006,6.487C28.854,34.117,28.854,34.491,28.854,34.865z"/>
	</g>
</g>
</svg>
