<?xml version="1.0" encoding="utf-8"?>
<!-- Generator: Adobe Illustrator 16.0.0, SVG Export Plug-In . SVG Version: 6.00 Build 0)  -->
<!DOCTYPE svg PUBLIC "-//W3C//DTD SVG 1.1//EN" "http://www.w3.org/Graphics/SVG/1.1/DTD/svg11.dtd">
<svg version="1.1" id="Layer_1" xmlns="http://www.w3.org/2000/svg" xmlns:xlink="http://www.w3.org/1999/xlink" x="0px" y="0px"
	 width="895.131px" height="583.594px" viewBox="0 0 895.131 583.594" enable-background="new 0 0 895.131 583.594"
	 xml:space="preserve">
<g opacity="0.6">
	<path fill="#BDE8EF" d="M423.633,435.81c-22.905,0.07-45.811,0.644-68.677,3.289c-8.622,0.996-17.062,3.189-25.703,4.074
		c-17.26,1.768-34.211,5.065-51.532,6.587c-13.949,1.225-27.957,1.947-41.864,3.5c-13.04,1.457-27.475,1.12-40.415-1.286
		c-9.579-1.782-19.202-2.785-28.62-5.646c-10.536-3.202-21.981-5.489-32.958-5.408c-15.653,0.119-30.897,0.132-45.877,5.784
		c-5.258,1.983-11.696,5.246-15.689,9.41c-9.141,9.532-10.378,33.318-1.251,43.205c15.374,16.641,48.185,23.17,69.733,23.479
		c23.613,0.338,46.552-1.486,70.2-2.557c21.973-0.998,43.892-2.414,65.902-2.363c44.954,0.1,89.913,0,134.786-3.125
		c42.157-2.934,84.422-1.926,126.672-1.926c43.327,0,86.361,0.354,129.375,6.342c18.741,2.609,37.835,3.523,56.671,5.352
		c16.868,1.637,33.079-0.031,49.881-1.545c14.108-1.271,28.125-5.041,40.942-11.408c10.146-5.045,28.232-20.709,31.345-32.744
		c8.722-33.745-122.93-32.932-143.143-32.856c-22.613,0.084-45.405,0.857-68-0.038c-9.504-0.378-18.869-2.31-28.145-4.427
		c-9.239-2.108-18.549-1.572-27.92-2.459c-39.073-3.694-78.234-3.155-117.433-3.155C449.158,435.887,436.396,435.77,423.633,435.81z
		"/>
</g>
<g>
	<g>
		<polygon fill="#F4D0C1" points="221.469,75.669 222.754,61.925 216.903,61.12 213.939,70.337 211.35,68.672 211.683,80.568 
			217.651,82.226 		"/>
		<polygon fill="#BCBEC0" points="134.559,144.77 195.812,121.71 211.127,78.879 218.841,81.69 217.71,134.836 160.376,176.543 		
			"/>
	</g>
	<g id="XMLID_198_">
		<polygon fill="#E4D2B8" points="461.917,193.167 461.254,200.036 448.611,202.871 442.334,196.699 443.359,188.735 
			450.125,189.229 450.563,187.505 452.945,186.374 		"/>
	</g>
	<g>
		<g>
			<g>
				<polygon fill="#3B455A" points="758.789,300.052 761.489,362.68 753.574,469.168 741.729,470.01 727.339,373.292 
					707.432,291.453 				"/>
				<polygon fill="#2A313F" points="742.152,475 755.416,480.494 761.365,473.635 754.506,467.686 741.697,468.596 				"/>
			</g>
			<g>
				<polygon fill="#3B455A" points="674.945,277.89 672.346,325.229 680.058,465.988 691.917,466.58 709.69,374.261 
					725.368,273.022 				"/>
				<polygon fill="#2A313F" points="691.599,471.576 678.454,477.348 672.362,470.617 679.095,464.524 691.919,465.166 				"/>
			</g>
			<g>
				<path fill="#305399" d="M743.9,138.434l-37.008-3.965c0,0-20.588,2.2-34.557,51.092c-7.772,27.201-10.138,70.059-10.707,102.731
					c0.874,4.66,5.952,25.076,27.423,21.613c36.871-5.947,56.497-11.895,72.554-8.921c13.677,2.974,12.521-15.858,11.019-30.229
					l-5.451-44.468L743.9,138.434z"/>
			</g>
			<g>
				<path fill="#C1755D" d="M736.753,92.368c-9.328-2.056-18.928-3.898-28.266-2.05c-2.045,0.405-4.24,1.116-5.35,2.882
					c-0.43,0.684-0.657,1.473-0.867,2.252c-2.356,8.76-5.345,21.744,0.421,29.814c1.1,1.539,2.576,2.761,4.163,3.752
					c2.122,1.326,4.47,2.228,6.9,2.708c-0.503,2.178-1.202,4.31-2.09,6.361c2.135,3.22,12.097,3.605,13.938,0.519
					c0.104-2.671,0.207-5.342,0.31-8.013c1.213-0.49,2.384-1.085,3.484-1.81c4.258-2.804,7.063-7.059,8.691-11.819
					c1.774-5.183,4.27-10.11,5.892-15.393c0.59-1.925,1.056-4.121,0.043-5.861c-1.077-1.852-3.404-2.482-5.496-2.949
					C737.938,92.63,737.346,92.499,736.753,92.368z"/>
				<path fill="#2E3644" d="M705.707,97.376c4.609-2.965,11.526-4.241,15.861-3.927c13.106,0.95,17.907,10.575,18.606,22.625
					c3.611-4.588,10.388-10.361,10.797-16.266c0.335-4.833-0.333-11.424-3.042-15.599c-2.533-3.905-9.012-6.051-12.865-8.314
					c-3.633-2.133-7.264-4.267-10.896-6.4c-0.756-0.444-1.532-0.896-2.396-1.045c-1.021-0.178-2.062,0.084-3.063,0.343
					c-8.585,2.219-17.169,4.438-25.753,6.656c-1.649,0.427-3.528,1.049-4.136,2.64c-0.37,0.968-0.152,2.049,0.069,3.062
					c0.975,4.456,2.846,9.011,3.309,13.525c0.523,2.623,2.088,16.065,6.731,14.513c1.363-2.229,1.567-4.976,2.631-7.363
					C702.346,100.059,703.836,98.579,705.707,97.376z"/>
			</g>
		</g>
	</g>
	<g id="XMLID_179_">
		<g id="XMLID_181_">
			<g id="XMLID_195_">
				<g id="XMLID_197_">
					<path fill="#2A313F" d="M581.006,452.933c1.265-1.391,2.74-2.151,4.407-1.89c1.601,0.253,3.039,1.337,3.699,2.789
						c0.451,0.989,0.546,2.093,0.635,3.172c0.461,5.587,0.42,18.851-7.021,20.761c-3.127,0.803-5.715-1.42-6.55-4.229
						C574.918,469.307,576.78,457.585,581.006,452.933z"/>
				</g>
				<g id="XMLID_196_">
					<path fill="#EFC4B1" d="M578.359,368.652l0.391,34.078c-0.453,15.136,1.91,30.355,1.457,45.492
						c-0.105,3.48-1.011,7.152-0.135,10.602c0.858,3.375,3.6,3.972,6.415,2.262c3.771-2.288,3.163-7.636,3.79-11.535
						c1.727-10.719,3.75-21.388,5.552-32.094c0.883-5.248-0.938-12.604-0.541-17.916l5.506-28.557L578.359,368.652z"/>
				</g>
			</g>
			<g id="XMLID_194_">
				<polygon fill="#305399" points="617.294,313.593 602.464,379.473 599.313,441.688 575.796,441.16 569.401,267.137 
					614.989,267.963 				"/>
			</g>
			<g id="XMLID_189_">
				<g id="XMLID_191_">
					<g id="XMLID_193_">
						<path fill="#2A313F" d="M547.37,451.696c1.318-1.318,2.821-1.992,4.471-1.631c1.586,0.347,2.974,1.517,3.57,3.009
							c0.405,1.017,0.454,2.126,0.496,3.212c0.222,5.619-0.387,18.89-7.886,20.363c-3.152,0.617-5.636-1.758-6.347-4.617
							C540.602,467.723,542.959,456.102,547.37,451.696z"/>
					</g>
					<g id="XMLID_192_">
						<path fill="#EFC4B1" d="M559.766,373.437l-1.996,34.021c-0.163,9.455-1.423,18.835-2.401,28.227
							c-0.909,8.723,0.506,17.809-4.054,25.742c-1.429,2.486-4.318,4.144-6.338,1.122c-1.556-2.33-0.632-6.215-0.931-8.859
							c-1.218-10.786-2.736-21.536-4.031-32.314c-0.636-5.284,1.53-12.547,1.385-17.871l-4.152-28.783L559.766,373.437z"/>
					</g>
				</g>
				<g id="XMLID_190_">
					<polygon fill="#305399" points="530.005,309.565 528.092,373.516 538.128,438.186 562.049,438.903 560.993,368.913 
						573.651,310.87 577.9,272.878 539.944,268.401 					"/>
				</g>
			</g>
			<g id="XMLID_188_">
				<polygon fill="#3B455A" points="560.032,137.521 600.926,136.545 624.634,180.64 616.207,221.941 614.707,271.367 
					556.375,272.162 537.183,269.046 542.278,216.236 539.355,145.691 				"/>
			</g>
			<g id="XMLID_187_">
				<polygon fill="#3B455A" points="553.592,166.573 538.826,211.837 516.788,219.75 456.498,203.505 464.604,190.973 
					517.626,192.697 539.438,147.663 				"/>
			</g>
			<g id="XMLID_182_">
				<g id="XMLID_186_">
					<path fill="#EFC4B1" d="M562.593,103.26c6.165-17.923,29.825-11.206,34.704,4.752c3.182,10.41-4.859,23.918-15.645,26.909
						c-0.047,0.41-0.083,0.792-0.085,1.118c-0.008,1.67-0.213,3.318-0.46,4.987c-0.093,0.623-9.532-1.191-10.586-1.398
						c-0.368-0.072-0.778-0.172-0.977-0.481c-0.381-0.593,0.237-2.338,0.307-2.997c0.082-0.778,0.164-1.555,0.244-2.333
						c-5.32-2.597-8.677-8.129-9.614-13.76C559.539,114.4,560.74,108.646,562.593,103.26z"/>
				</g>
				<g id="XMLID_183_">
					<g id="XMLID_185_">
						<path fill="#2E3644" d="M578.029,87.064c1.269,1.288,1.768,3.085,2.134,4.81c0.218,1.031,0.406,2.096,0.186,3.117
							c-0.879,4.069-4.915,3.856-8.034,5.167c-3.849,1.617-7.168,4.595-9.323,8.023c-3.374,5.37-1.856,12.279-0.488,18.202
							c0.482,2.087,1.453,5.19-0.165,7.052c-1.646,1.892-5.447,1.6-7.417,0.626c-1.8-0.89-3.278-2.534-5.256-2.865
							c-2.092-0.351-4.919,0.569-5.893-1.35c-0.271-0.535-0.296-1.187-0.638-1.676c-1.156-1.653-4.031,0.283-5.66-0.882
							c-1.002-0.717-0.995-2.244-0.655-3.453c0.338-1.209,0.909-2.434,0.673-3.663c-0.202-1.057-0.965-1.892-1.437-2.854
							c-0.931-1.898-0.608-4.372,0.776-5.975c2.576-2.981,7.563-2.416,10.321-5.22c1.439-1.461,1.995-3.568,2.532-5.562
							c0.536-1.994,1.18-4.097,2.716-5.448c1.899-1.67,4.641-1.386,6.514-3.366c1.101-1.164,1.835-2.677,3.071-3.689
							c1.628-1.335,4.811-2.36,6.837-3.041C572.035,83.939,575.628,84.626,578.029,87.064z"/>
					</g>
					<g id="XMLID_184_">
						<path fill="#2E3644" d="M592.996,115.666c0.11,5.899-2.82,12.276-0.103,17.469c2.742,5.24,9.578,6.185,15.404,6.458
							c0.958,0.044,13.256,1.106,13.308,0.874c0.921-4.109,1.873-8.299,4.021-11.908c2.146-3.608,5.738-6.597,9.851-6.854
							c-1.187-0.206-1.785-1.659-1.648-2.883c0.139-1.224,0.771-2.329,1.139-3.505c0.9-2.892,0.024-6.265-2.155-8.296
							c-4.351-4.055-12.237-2.371-15.966-7.027c-2.312-2.887-2.037-7.075-3.249-10.601c-2.342-6.816-9.805-8.242-15.383-11.32
							c-5.888-3.25-11.432-5.03-18.229-3.898c-8.424,1.404-14.686,9.981-11.438,18.052c4.167,10.353,20.828,9.459,23.948,19.97
							C592.831,113.325,592.975,114.485,592.996,115.666z"/>
					</g>
				</g>
			</g>
		</g>
		<g id="XMLID_180_">
			<polygon fill="#E3E3E4" points="588.828,137.288 576.143,155.217 570.179,154.729 560.239,136.545 			"/>
		</g>
	</g>
	<g>
		<polygon fill="#2A313F" points="260.632,461.594 259.701,468.834 273.25,477.936 281.421,471.627 275.112,463.456 
			261.562,454.354 		"/>
		<g>
			<polygon fill="#3B455A" points="260.173,459.164 270.623,366.827 258.051,263.458 260.878,241.469 317.031,239.335 
				319.058,275.126 309.631,366.97 274.166,463.883 			"/>
		</g>
		<g>
			<polygon fill="#3B455A" points="358.236,249.683 358.383,342.863 339.628,462.814 326.128,462.68 318.708,351.751 
				301.34,240.725 			"/>
			<polygon fill="#2A313F" points="326.149,468.373 340.675,475.818 348.047,468.592 340.82,461.22 326.222,461.073 			"/>
		</g>
		<g>
			<path fill="#305399" d="M252.239,281.375c0.129-4.039,0.354-7.407,0.386-8.611c0.289-10.831,1.254-21.64,2.61-32.395
				c1.215-9.637,2.748-33.563,4.398-43.142c1.361-7.908,6.106-27.648,9.535-34.983c8.527-18.242,5.893-19.927,43.347-25.344
				c16.416-2.374,20.295,7.856,33.716,19.621c1.324,1.16,1.251,8.068,1.558,9.897c0.541,3.222,1.12,6.438,1.784,9.64
				c0.523,2.516,1.099,5.024,1.745,7.516l0-0.001c0,0,11.266,51.271,18.716,62.16s22.843,26.111-2.904,35.408
				c-4.563,1.474-9.154,2.878-13.904,3.627c0,0-21.058-2.34-31.887-2.26c-9.974,0.076-19.988,1.085-29.793,2.776
				c-6.557,1.096-13.247,2.688-19.112,5.751c-5.596,2.923-9.635,7.224-15.312,10.25c-0.538,0.286-1.128,0.583-1.74,0.499
				C252.122,301.332,251.968,289.874,252.239,281.375z"/>
		</g>
		<g>
			<path fill="#F4D0C1" d="M312.559,142.044c-1.89,0.933-6.351,1.268-11.002-0.555c-0.938-0.367-1.571-1.271-1.558-2.278
				c0.038-2.826,0.264-5.65,0.68-8.446c-3.49-1.227-7.522-3.067-8.13-6.716c-0.191-1.149,0.007-2.323,0.206-3.472
				c0.82-4.747,1.64-9.493,2.46-14.24c0.284-1.641,0.586-3.331,1.479-4.738c1.566-2.468,4.607-3.548,7.488-4.048
				c7.35-1.276,15.359,0.317,21.058,5.131c1.517,1.281,2.889,2.821,3.557,4.691c1.031,2.882,0.26,6.062-0.517,9.023
				c-0.718,2.733-1.436,5.466-2.153,8.199c-0.826,3.143-2.018,6.717-5.046,7.896c-1.608,0.626-3.507,0.443-4.962,1.369
				C313.549,135.492,313.896,139.31,312.559,142.044z"/>
			<path fill="#2E3644" d="M354.982,94.707c0.721-1.186,1.499-2.33,2.37-3.402c1.885-2.323,4.207-4.315,5.724-6.895
				c1.517-2.579,2.049-6.075,0.231-8.45c-1.175-1.533-3.082-2.299-4.933-2.844c-6.104-1.796-12.691-1.918-18.857-0.349
				c-5.873,1.495-11.129,3.97-17.041,1.763c-5.555-2.074-9.567-1.229-15.373,0.842c-6.283,2.242-14.716,2.771-20.403,5.935
				c-2.374,1.322-4.27,3.387-5.747,5.668c-5.117,7.903-5.146,18.801-0.07,26.731c1.14,1.779,2.502,3.406,3.935,4.958
				c2.964,3.214,6.509,7.184,10.587,8.375c0.096-3.647-3.227-15.148-0.424-18.138c4.444-4.744,14.496-3.089,20.01-1.921
				c6.016,1.274,11.377,5.534,17.34,6.444c4.292,0.655,9.768-1.45,13.418-3.667C350.25,107.018,352.346,99.034,354.982,94.707z"/>
		</g>
		<polygon fill="#305399" points="281.421,143.911 258.051,164.388 231.979,219.176 264.909,258.351 270.574,236.445 		"/>
	</g>
	<g>
		<g>
			<polygon fill="#305399" points="129.593,301.035 77.064,285.041 92.799,374.572 91.08,452.684 90.944,453.212 91.068,453.219 
				91.064,453.389 101.27,453.78 101.271,453.77 101.65,453.791 120.37,383.218 128.165,308.735 128.165,308.735 			"/>
			<polygon fill="#2A313F" points="100.943,457.353 90.401,457.686 88.219,466.723 88.489,466.785 88.422,466.797 106.412,476.117 
				114.739,476.566 115.252,467.051 112.923,465.541 			"/>
		</g>
		<g>
			<polygon fill="#305399" points="170.087,300.437 163.43,455.643 153.271,456.685 138.296,373.937 115.836,291.956 			"/>
			<polygon fill="#2A313F" points="163.607,459.228 177.532,466.108 176.63,472.545 152.32,470.285 153.216,461.033 			"/>
		</g>
		<g>
			<path fill="#BCBEC0" d="M64.1,328.88C62.274,302.726,83.31,218.8,83.31,218.8l-0.003-0.001
				c2.252-7.894,3.914-15.905,4.818-23.916c0.644-5.703,15.842-70.739,14.711-70.79c11.749,0.525,34.277-2.885,43.196,5.197
				c0.254,0.231,0.499,0.471,0.73,0.722c6.989,7.53,10.948,23.064,14.42,32.596c4.562,12.521,8.158,25.394,10.735,38.468
				c2.253,11.433,3.726,23.004,4.864,34.596c0.979,9.965,0.706,19.91,1.323,29.723c0.683,10.864,4.278,22.562,7.009,33.07
				c2.75,10.585,6.158,21.023,10.745,30.963c-11.495,5.481-24.421,7.238-37.148,7.646c-12.728,0.409-25.476-0.461-38.198,0.094
				c-10.758,0.469-21.621,1.949-32.227,0.09C79.852,335.777,72.004,332.263,64.1,328.88L64.1,328.88z"/>
		</g>
		<g>
			<path fill="#2E3644" d="M142.203,95.581c5.425,2.493,11.196,9.15,11.03,15.503c-0.08,3.06-1.702,5.481-1.658,8.759
				c0.063,6.464-9.539,13.502-3.369,19.563c3.171,3.115,8.005,3.607,12.439,3.925c0.538,0.039,1.102,0.073,1.592-0.15
				c0.808-0.368,1.178-1.348,1.135-2.235c-0.044-0.887-0.41-1.72-0.703-2.557c-3.063-8.763,0.894-19.194,1.141-28.217
				c0.246-9.006-2.156-18.654-9.693-24.306c-4.901,1.647-8.525,3.838-10.827,8.469L142.203,95.581z"/>
			<path fill="#F4D0C1" d="M139.961,134.049c6.074-0.939,11.128-5.584,13.813-11.113c2.686-5.529,3.296-11.844,3.152-17.988
				c-0.48-20.447-25.818-21.113-35.575-6.231C112.848,111.687,122.301,136.782,139.961,134.049z"/>
		</g>
	</g>
	<g>
		<rect x="633.65" y="254.807" fill="#7DB5DB" width="201.309" height="129.902"/>
		<g>
			<polygon fill="#7DB5DB" points="808.144,210.826 734.305,210.826 660.465,210.826 628.332,248.681 734.305,248.681 
				840.276,248.681 			"/>
			<rect x="628.332" y="248.681" fill="#6C9FBC" width="211.944" height="13.646"/>
			<polygon fill="#5C8BA0" points="694.518,223.624 689.315,229.752 773.581,229.752 768.377,223.624 			"/>
		</g>
		<polygon fill="#9DD0ED" points="633.65,262.327 834.959,281.09 834.959,262.327 		"/>
		<polygon fill="#F7F7F7" points="648.14,295.093 818.447,289.817 814.664,295.093 821.348,301.458 815.857,310.893 
			821.348,316.256 817.29,319.837 825.381,333.206 813.71,342.83 819.438,348.745 649.721,353.494 653.302,346.992 648.14,346.992 
			653.541,332.489 644.708,325.518 649.959,318.258 647.812,314.541 652.108,308.123 644.708,299.31 		"/>
		<g>
			<path fill="#3B455A" d="M683.687,323.562c-0.985-10.787-11.141-23.49-23.015-20.417c-0.88,0.226-1.387,0.775-1.605,1.421
				c-0.342,0.523-0.496,1.185-0.319,1.95c2.765,11.899,5.097,23.884,6.948,35.957c0.23,1.511,1.507,2.27,2.718,2.308
				c3.809,1.266,8.823-3.719,10.844-6.293C682.552,334.288,684.173,328.881,683.687,323.562z M676.755,333.234
				c-0.782,1.417-1.771,2.728-2.943,3.845c-0.836,0.807-1.758,1.495-2.763,2.066c-0.316,0.096-0.584,0.182-0.823,0.264
				c-1.696-10.647-3.72-21.231-6.104-31.747c7.632-0.252,13.844,9.227,14.555,16.017
				C679.022,326.984,678.363,330.321,676.755,333.234z"/>
			<path fill="#3B455A" d="M700.951,305.495c-3.587-1.081-7.499-0.278-10.399,3.411c-4.285,5.453-4.327,13.729-2.795,20.167
				c1.479,6.226,5.364,13.606,12.446,14.431c10.186,1.185,11.397-9.831,11.489-17.407c0.052-4.237-0.668-8.666-2.259-12.599
				C707.855,309.597,704.57,306.585,700.951,305.495z M700.105,338.284c-11.813-2.923-10.289-33.493,1.713-27.333
				c3.932,2.019,4.597,8.819,4.829,12.678C706.928,328.278,707.238,340.047,700.105,338.284z"/>
			<path fill="#3B455A" d="M733.166,306.286c-0.024,0.302-0.048,0.605-0.072,0.909c-0.024,0.315,0.014,0.588,0.08,0.838
				c0.025,5.738,0.051,11.477,0.075,17.217c-0.705-1.581-1.447-3.149-2.218-4.709c-2.786-5.647-5.466-11.58-9.886-16.156
				c-1.543-1.598-4.263-0.231-4.236,1.87c0.139,11.217,0.503,22.424,1.094,33.626c0.171,3.215,5.181,3.113,5.011-0.115
				c-0.453-8.598-0.771-17.199-0.957-25.806c1.753,2.985,3.216,6.19,4.707,9.21c2.888,5.846,5.277,11.802,6.658,18.184
				c0.612,2.83,4.918,1.969,4.905-0.779c-0.05-11.468-0.101-22.936-0.15-34.405C738.162,302.884,733.416,303.135,733.166,306.286z"
				/>
			<path fill="#3B455A" d="M766.248,336.5c-2.891-11.331-6.328-22.49-10.314-33.485c-0.854-2.356-4.084-2.283-4.832,0.112
				c-3.621,11.608-6.179,23.448-7.67,35.517c-0.392,3.165,4.467,4.415,4.862,1.222c0.499-4.04,1.127-8.053,1.867-12.039
				c2.796-0.298,5.595-0.438,8.407-0.423c1.008,3.499,1.979,7.009,2.879,10.54C762.245,341.068,767.046,339.625,766.248,336.5z
				 M751.175,322.707c0.764-3.598,1.622-7.175,2.581-10.728c1.166,3.456,2.268,6.932,3.328,10.42
				C755.11,322.422,753.142,322.526,751.175,322.707z"/>
			<path fill="#3B455A" d="M784.184,300.246c-7.334,1.069-14.615,2.391-21.85,4.002c-3.146,0.699-1.696,5.499,1.443,4.801
				c3.084-0.687,6.178-1.318,9.28-1.903c0.173,10.156,0.609,20.301,1.327,30.436c0.228,3.206,5.239,3.108,5.011-0.116
				c-0.736-10.394-1.182-20.797-1.344-31.214c2.077-0.353,4.16-0.691,6.248-0.995C787.45,304.796,787.373,299.78,784.184,300.246z"
				/>
			<path fill="#3B455A" d="M807.546,335.022c-3.959,0.174-7.918,0.347-11.878,0.521l-0.24-11.002c1.957-0.1,3.911-0.093,5.87,0.032
				c1.354,0.088,2.477-1.292,2.448-2.563c-0.034-1.452-1.207-2.36-2.564-2.447c-1.956-0.126-3.909-0.132-5.864-0.033l-0.307-14.056
				c3.461,0.048,6.918,0.162,10.373,0.392c3.218,0.214,3.082-4.798-0.119-5.011c-3.402-0.226-6.813-0.363-10.222-0.411
				c-4.435-0.063-5.103,2.396-5.019,6.267c0.077,3.531,0.155,7.062,0.231,10.593c0.146,6.707,0.293,13.416,0.44,20.124
				c0.001,0.107,0.005,0.215,0.007,0.322c0.032,1.47,0.589,3.002,2.437,2.919c4.841-0.213,9.682-0.426,14.521-0.637
				C810.879,339.891,810.775,334.88,807.546,335.022z"/>
		</g>
	</g>
	<polygon fill="#C1755D" points="662.479,237.75 662.877,244.557 671.321,254.474 676.409,249.372 672.357,240.359 674.395,237.056 
		671.024,233.386 	"/>
	<polygon fill="#305399" points="706.893,134.469 693.214,138.631 643.259,190.965 640.286,208.212 664.167,247.642 
		670.616,233.188 660.506,204.049 676.563,192.75 697.972,144.579 	"/>
	<g>
		<g>
			<g>
				<g>
					<path fill="#F4BDB8" d="M500.775,131.979c-21.978-4.644-51.452,3.866-60.563,22.286c-4.227-20.105-36.798-36.265-59.243-37.233
						c-59.228-2.555-87.486,61.331-68.296,109.118c10.329,25.72,26.885,49.159,45.463,70.674
						c15.557,18.017,56.603,57.248,56.756,57.15c0.123,0.133,49.666-27.652,69.229-41.232
						c23.361-16.216,45.246-34.799,61.669-57.139C576.301,214.096,558.773,144.235,500.775,131.979z"/>
				</g>
				<g opacity="0.12">
					<path fill="#000100" d="M532.536,258.656c-16.88,16.079-35.93,30.771-56.125,42.898c-19.53,11.729-41.881,21.272-65.299,22.445
						c-11.249,0.564-21.985-1.067-31.877-4.736c16.836,17.019,35.255,34.569,35.358,34.505c0.124,0.131,49.665-27.654,69.229-41.233
						c23.362-16.216,45.247-34.798,61.669-57.138c5.313-7.23,9.166-15.318,11.604-23.813
						C549.696,241.218,541.384,250.226,532.536,258.656z"/>
				</g>
			</g>
		</g>
		<path fill="#C1E8DE" d="M573.149,278.938c0.787-6.698-3.987-12.778-10.688-13.594c-6.719-0.816-12.826,3.966-13.644,10.685
			c-0.001,0.005-0.001,0.01-0.001,0.013l-14.452,51.21c-3.402,12.057-11.631,22.173-22.741,27.961l-40.672,21.185l29.88-35.067
			c0.496-0.485,0.949-1.013,1.351-1.586l0.014-0.017l-0.002-0.001c1.021-1.463,1.713-3.186,1.942-5.078
			c0.751-6.174-3.644-11.788-9.817-12.539c-2.802-0.34-5.481,0.386-7.65,1.85l-0.006-0.007l-40.483,28.919
			c-17.496,12.498-28.938,31.769-31.534,53.111l-2.894,23.778c-1.958,16.102,9.507,30.743,25.608,32.702
			c6.224,0.758,12.219-0.51,17.358-3.256c1.405-0.751,2.749-1.609,4.012-2.574l83.165-53.366
			c11.082-7.111,18.418-18.792,20.007-31.862L573.149,278.938L573.149,278.938z"/>
		<path fill="#C1E8DE" d="M279.616,243.229c0.841-6.692,6.933-11.45,13.635-10.635c6.717,0.817,11.501,6.927,10.684,13.644
			c-0.002,0.005-0.002,0.01-0.003,0.014l1.753,53.181c0.413,12.521,5.975,24.315,15.374,32.597l34.406,30.319l-20.601-41.21
			c-0.365-0.589-0.679-1.211-0.932-1.861l-0.009-0.02l0.003-0.002c-0.641-1.664-0.899-3.504-0.668-5.396
			c0.75-6.174,6.365-10.568,12.538-9.818c2.801,0.341,5.229,1.688,6.983,3.63l0.007-0.005l32.369,37.781
			c13.989,16.327,20.477,37.779,17.88,59.123l-2.893,23.779c-1.959,16.1-16.599,27.566-32.701,25.607
			c-6.224-0.758-11.74-3.424-16.071-7.322c-1.185-1.067-2.283-2.222-3.277-3.461l-67.945-71.748
			c-9.055-9.563-13.374-22.661-11.784-35.733l11.249-92.463H279.616z"/>
	</g>
	<g>
		<g id="XMLID_178_">
			<polygon fill="#E4D2B8" points="568.479,279.628 574.483,283.029 571.932,295.73 563.739,298.955 556.881,294.78 
				560.084,288.798 558.688,287.698 558.623,285.062 			"/>
		</g>
		<g id="XMLID_177_">
			<polygon fill="#3B455A" points="602.677,145.813 616.686,169.464 616.033,227.677 579.47,285.824 566.386,279.077 
				595.195,227.667 589.915,187.645 			"/>
		</g>
	</g>
	<polygon fill="#2B292A" points="740.589,142.174 775.825,129.498 797.944,77.131 810.127,77.922 795.691,135.483 782.889,150.055 
		739.454,171.84 	"/>
	<polygon fill="#C1755D" points="807.52,77.752 810.66,71.7 808.474,58.859 801.492,60.642 800.365,70.458 796.925,72.255 
		797.944,77.131 	"/>
	<g>
		<g>
			<g>
				<circle fill="#BCBEC0" cx="803.792" cy="140.5" r="70.754"/>
			</g>
		</g>
		<g>
			<g>
				<circle fill="#CCCDCE" cx="803.792" cy="140.5" r="60.047"/>
			</g>
		</g>
		<g>
			<g>
				<path fill="#9D9D9E" d="M835.119,89.195c5.995,9.325,9.482,20.418,9.503,32.328c0.058,33.163-26.78,60.094-59.943,60.151
					c-11.518,0.021-22.282-3.207-31.432-8.813c10.701,16.642,29.396,27.652,50.649,27.615c33.163-0.057,60.001-26.988,59.943-60.151
					C863.802,118.68,852.313,99.731,835.119,89.195z"/>
			</g>
		</g>
		<g>
			<g>
				<path fill="#F7F7F7" d="M754.273,146.081c-0.051-29.275,23.64-53.048,52.914-53.099c17.111-0.03,32.34,8.054,42.054,20.622
					c-9.181-15.875-26.355-26.542-46.01-26.508c-29.274,0.051-52.965,23.823-52.914,53.098c0.021,12.163,4.14,23.36,11.045,32.293
					C756.868,164.717,754.289,155.7,754.273,146.081z"/>
			</g>
		</g>
		<g>
			<path fill="#A9A9AA" d="M808.682,101.734l0.013,7.65c3.071,0.489,5.585,1.5,7.539,3.032c1.953,1.532,3.818,3.883,5.593,7.055
				l-7.604,4.268c-2.297-4.159-5.292-6.236-8.987-6.229c-2.29,0.004-4.188,0.684-5.695,2.04c-1.507,1.355-2.258,3.048-2.254,5.077
				c0.003,1.848,0.617,3.382,1.842,4.603c1.198,1.195,3.62,2.609,7.267,4.242c3.15,1.426,5.756,2.768,7.813,4.026
				c2.058,1.259,3.607,2.473,4.65,3.642c2.946,3.169,4.423,7.005,4.432,11.506c0.007,4.423-1.313,8.329-3.961,11.715
				c-2.623,3.361-6.133,5.631-10.527,6.81l0.015,8.079l-6.83,0.012l-0.014-7.845c-5.102-0.824-8.995-2.573-11.68-5.249
				s-4.67-6.809-5.954-12.401l8.583-1.81c1.179,3.953,2.614,6.773,4.309,8.462c1.771,1.61,4.128,2.413,7.069,2.408
				c2.861-0.005,5.254-0.933,7.175-2.784c1.896-1.825,2.843-4.182,2.838-7.069c-0.004-2.576-0.802-4.644-2.392-6.202
				c-0.808-0.752-2-1.603-3.575-2.55c-1.576-0.947-3.588-1.978-6.036-3.092c-5.052-2.255-8.373-4.331-9.963-6.228
				c-2.529-2.832-3.797-6.225-3.805-10.181c-0.002-1.874,0.293-3.617,0.89-5.231c0.596-1.614,1.458-3.079,2.588-4.396
				c1.129-1.315,2.525-2.457,4.19-3.422c1.662-0.965,3.548-1.724,5.654-2.273l-0.013-7.65L808.682,101.734z"/>
		</g>
	</g>
	<g>
		<g>
			<path fill="#FFFFFF" d="M254.859,274.088c-3.66-8.106-10.031-14.187-17.885-17.229c0.045-1.15,0.068-2.296,0.068-3.432
				c0-11.847-2.323-23.345-6.903-34.175c-4.423-10.456-10.752-19.844-18.811-27.902c-8.058-8.059-17.446-14.387-27.902-18.81
				c-10.83-4.581-22.328-6.903-34.175-6.903s-23.346,2.323-34.175,6.903c-10.457,4.423-19.844,10.751-27.902,18.81
				c-8.059,8.059-14.388,17.446-18.811,27.902c-4.58,10.83-6.903,22.328-6.903,34.175c0,11.848,2.323,23.346,6.903,34.175
				c4.422,10.457,10.751,19.844,18.811,27.903c8.059,8.059,17.446,14.388,27.902,18.811c10.83,4.58,22.328,6.903,34.175,6.903
				s23.346-2.323,34.176-6.905c0.473-0.199,0.951-0.407,1.432-0.622l3.973,3.147c3.853,3.05,7.67,5.961,9.603,7.425
				c1.351,1.023,2.492,1.876,3.3,2.477c0.562,0.416,1.044,0.774,1.501,1.069c0.459,0.317,1.621,1.06,3.345,1.063
				c0.008,0,0.018,0,0.027,0c0.382,0,0.71-0.017,1.02-0.063l0.473-0.001l0.353-0.215c0.956-0.358,2.03-1.148,4.285-2.807
				c0.522-0.385,1.293-0.954,2.249-1.665l0.908-0.676c0.962-0.718,2.061-1.541,3.248-2.438c4.508-3.41,10.613-8.126,14.096-11.23
				c9.267-8.255,16.011-16.246,20.618-24.428C259.11,296.021,259.484,284.334,254.859,274.088z"/>
		</g>
		<g>
			<g>
				<g>
					<g>
						<g>
							<g>
								<g>
									<path fill="#587BC9" d="M149.897,335.417c-11.067,0-21.805-2.167-31.916-6.444c-9.764-4.129-18.532-10.04-26.061-17.569
										c-7.528-7.528-13.439-16.297-17.569-26.06c-4.277-10.111-6.445-20.849-6.445-31.916c0-11.066,2.168-21.805,6.445-31.915
										c4.13-9.764,10.041-18.532,17.569-26.061c7.529-7.528,16.297-13.44,26.061-17.57c10.111-4.276,20.849-6.444,31.916-6.444
										s21.805,2.168,31.916,6.444c9.764,4.13,18.532,10.042,26.06,17.57c7.529,7.529,13.44,16.296,17.57,26.061
										c4.276,10.11,6.445,20.849,6.445,31.915c0,11.067-2.168,21.805-6.445,31.916c-4.13,9.763-10.041,18.531-17.57,26.06
										c-7.528,7.529-16.296,13.44-26.06,17.569C171.702,333.25,160.964,335.417,149.897,335.417z M149.897,179.689
										c-19.696,0-38.214,7.67-52.141,21.597c-13.927,13.928-21.598,32.445-21.598,52.142c0,19.697,7.67,38.213,21.598,52.142
										c13.927,13.928,32.445,21.598,52.141,21.598s38.214-7.67,52.141-21.598c13.928-13.929,21.598-32.444,21.598-52.142
										c0-19.696-7.67-38.213-21.598-52.142C188.111,187.359,169.593,179.689,149.897,179.689z"/>
								</g>
								<g>
									<rect x="145.771" y="175.563" fill="#587BC9" width="8.251" height="155.729"/>
								</g>
							</g>
							<g>
								<rect x="76.576" y="223.85" fill="#587BC9" width="147.952" height="8.251"/>
							</g>
							<g>
								<rect x="74.141" y="271.099" fill="#587BC9" width="150.526" height="8.252"/>
							</g>
							<g>
								<path fill="#587BC9" d="M146.254,334.56c-0.457-0.316-11.315-7.937-22.248-22.014c-6.43-8.277-11.557-17.096-15.24-26.205
									c-4.625-11.439-6.971-23.365-6.971-35.441c0-12.103,2.354-23.782,6.998-34.718c3.706-8.727,8.866-16.987,15.336-24.553
									c11.006-12.869,21.958-19.256,22.419-19.522l4.121,7.149c-0.098,0.057-10.368,6.084-20.462,17.962
									c-5.874,6.911-10.547,14.434-13.891,22.358c-4.16,9.86-6.27,20.397-6.27,31.323c0,11.012,2.143,21.896,6.37,32.349
									c3.398,8.405,8.144,16.56,14.107,24.236c10.168,13.094,20.338,20.229,20.439,20.299L146.254,334.56z"/>
							</g>
							<g>
								<path fill="#587BC9" d="M154.631,334.56l-4.712-6.772c0.103-0.073,10.441-7.359,20.608-20.516
									c5.921-7.662,10.633-15.796,14.003-24.175c4.186-10.407,6.308-21.238,6.308-32.197c0-10.988-2.133-21.583-6.341-31.493
									c-3.375-7.95-8.09-15.491-14.012-22.415c-10.094-11.802-20.168-17.678-20.269-17.736l4.121-7.149
									c0.461,0.266,11.413,6.653,22.419,19.522c6.471,7.565,11.63,15.826,15.336,24.553c4.644,10.936,6.998,22.615,6.998,34.718
									c0,12.076-2.345,24.002-6.971,35.441c-3.683,9.109-8.811,17.928-15.24,26.205
									C165.946,326.624,155.088,334.244,154.631,334.56z"/>
							</g>
						</g>
					</g>
				</g>
			</g>
			<g>
				<g>
					<g>
						<path fill="#F4BDB8" d="M228.133,260.567c-8.001-0.699-18.096,3.595-20.534,10.525c-2.368-6.954-14.627-11.283-22.636-10.657
							c-21.133,1.65-28.404,25.547-19.53,41.68c4.777,8.683,11.666,16.289,19.189,23.123c6.3,5.723,22.563,17.876,22.613,17.835
							c0.049,0.041,16.435-11.96,22.792-17.626c7.592-6.764,14.558-14.305,19.422-22.943
							C258.487,286.452,249.248,262.412,228.133,260.567z"/>
					</g>
					<g opacity="0.12">
						<path fill="#000100" d="M244.876,304.158c-5.297,6.438-11.424,12.476-18.069,17.65c-6.426,5.007-13.947,9.36-22.209,10.788
							c-3.968,0.685-7.85,0.569-11.519-0.306c6.71,5.314,14.006,10.749,14.04,10.721c0.049,0.041,16.435-11.96,22.792-17.625
							c7.592-6.765,14.557-14.305,19.422-22.944c1.574-2.794,2.591-5.832,3.091-8.953
							C250.214,297.229,247.653,300.785,244.876,304.158z"/>
					</g>
				</g>
			</g>
		</g>
	</g>
	<g>
		<g>
			<path fill="#F4D0C1" d="M67.202,274.551c0.765,3.022,6.046,9.378,9.374,9.864c7.678,1.122,1.656-7.16,0.217-10.492
				c1.318-0.15,2.596-0.255,3.834-0.649c1.136-0.361-6.166-8.863-7.626-9.334c-3.504-1.129-4.887,0.76-7.905,2.398
				C65.86,269.051,66.511,271.812,67.202,274.551z"/>
		</g>
		<polygon fill="#BCBEC0" points="101.735,131.263 34.885,215.987 64.02,269.946 77.505,266.302 63.076,220.849 81.479,197.14 
			118.187,168.603 		"/>
	</g>
	<path fill="#2E3644" d="M109.405,137.407c3.115-0.983,6.197-2.057,8.553-4.779c3.808-4.398,4.753-12.506,6.454-17.9
		c1.791-5.686,3.925-11.835,8.957-15.033c3.287-2.088,6.656-2.029,10.337-1.477c2.521,0.379,2.458,1.346,4.809,0.351
		c1.802-0.762,3.709-3.617,4.387-5.36c1.143-2.939,0.456-6.355-1.16-9.064c-2.487-4.168-5.854-6.594-10.503-7.476
		c-16.319-3.098-30.237,4.56-37.526,19.792c-3.504,7.321-3.292,16.159-6.896,23.166c-2.225,4.326-5.662,6.882-7.662,11.55
		c-5.189,12.114-14.863,27.099-16.513,40.246c-0.062,0.486-0.094,1.032,0.215,1.413c0.628,0.776,1.865,0.165,2.632-0.475
		c4.479-3.732,8.957-7.464,13.435-11.197c1.759-1.466,3.541-2.957,4.828-4.851c3.203-4.714,3.091-11.523,7.469-15.173
		C103.606,139.15,106.52,138.317,109.405,137.407z"/>
	<polygon fill="#F4D0C1" points="276.046,260.22 288.021,267.087 291.179,262.097 284.02,255.578 286.609,253.912 275.645,249.284 
		271.663,254.029 	"/>
</g>
</svg>
