<?xml version="1.0" encoding="utf-8"?>
<!-- Generator: Adobe Illustrator 16.0.2, SVG Export Plug-In . SVG Version: 6.00 Build 0)  -->
<!DOCTYPE svg PUBLIC "-//W3C//DTD SVG 1.1//EN" "http://www.w3.org/Graphics/SVG/1.1/DTD/svg11.dtd">
<svg version="1.1" id="Layer_1" xmlns="http://www.w3.org/2000/svg" xmlns:xlink="http://www.w3.org/1999/xlink" x="0px" y="0px"
	 width="50px" height="50.023px" viewBox="0 0 50 50.023" enable-background="new 0 0 50 50.023" xml:space="preserve">
<path fill-rule="evenodd" clip-rule="evenodd" fill="#A0A0A0" d="M24.955,50.021c-5.346,0-10.69,0.005-16.036-0.001
	c-4.816-0.006-8.896-4.016-8.905-8.807c-0.019-10.765-0.017-21.531,0-32.296c0.008-4.37,3.693-8.405,8.058-8.759
	c2.045-0.166,4.108-0.144,6.163-0.147c7.999-0.015,15.999-0.012,23.998,0.001c1.194,0.001,2.393,0.043,3.582,0.149
	c4.555,0.405,8.161,4.291,8.171,8.852c0.021,10.766,0.021,21.531-0.003,32.296c-0.01,4.673-4.093,8.7-8.767,8.71
	C35.795,50.029,30.375,50.02,24.955,50.021z M46.239,25.074c0-5.271,0.008-10.541-0.004-15.812
	c-0.006-2.985-2.364-5.384-5.374-5.476c-1.158-0.035-2.317-0.023-3.476-0.023C28.077,3.765,18.769,3.798,9.461,3.755
	C6.099,3.74,3.675,6.825,3.707,9.51c0.122,10.427,0.03,20.856,0.084,31.285c0.005,0.958,0.299,2.011,0.765,2.85
	c1.12,2.014,3.002,2.769,5.265,2.766c9.382-0.012,18.765,0.005,28.147-0.002c1.23-0.001,2.476,0.02,3.69-0.145
	c2.61-0.355,4.572-2.657,4.577-5.267C46.246,35.689,46.239,30.381,46.239,25.074z"/>
</svg>
