<?xml version="1.0" encoding="utf-8"?>
<!-- Generator: Adobe Illustrator 16.0.2, SVG Export Plug-In . SVG Version: 6.00 Build 0)  -->
<!DOCTYPE svg PUBLIC "-//W3C//DTD SVG 1.1//EN" "http://www.w3.org/Graphics/SVG/1.1/DTD/svg11.dtd">
<svg version="1.1" id="Layer_1" xmlns="http://www.w3.org/2000/svg" xmlns:xlink="http://www.w3.org/1999/xlink" x="0px" y="0px"
	 width="50px" height="37.517px" viewBox="0 0 50 37.517" enable-background="new 0 0 50 37.517" xml:space="preserve">
<path fill-rule="evenodd" clip-rule="evenodd" fill="#A6B6C2" d="M0,27.849c0-0.846,0-1.693,0-2.539
	c0.031-0.07,0.078-0.137,0.089-0.21c0.643-4.007,2.82-6.874,6.523-8.487c0.917-0.399,1.425-0.78,1.213-1.801
	c-0.003-0.015,0.001-0.032,0.002-0.049C8.332,8.277,14.397,3.657,20.785,4.92c0.417,0.083,0.604-0.048,0.846-0.326
	c3.431-3.946,7.72-5.401,12.798-4.167c5.93,1.442,9.909,7.232,9.227,13.238c-0.041,0.354,0.045,0.542,0.357,0.737
	c3.01,1.885,4.948,4.545,5.725,8.028c0.091,0.405,0.175,0.812,0.263,1.218c0,0.912,0,1.823,0,2.734
	c-0.062,0.279-0.137,0.555-0.183,0.836c-0.934,5.776-6.231,10.296-12.072,10.296c-8.928,0-17.857,0-26.786,0
	c-5.189,0-9.607-3.538-10.727-8.589C0.154,28.569,0.078,28.209,0,27.849z M28.143,31.245c0-3.135,0-6.231,0-9.381
	c2.068,0,4.086,0,6.028,0c-3.068-3.068-6.145-6.146-9.12-9.12c-3.039,3.039-6.117,6.117-9.179,9.179c1.941,0,3.964,0,6.021,0
	c0,3.133,0,6.217,0,9.323C23.97,31.245,26.013,31.245,28.143,31.245z"/>
</svg>
