<?xml version="1.0" encoding="utf-8"?>
<!-- Generator: Adobe Illustrator 15.1.0, SVG Export Plug-In  -->
<!DOCTYPE svg PUBLIC "-//W3C//DTD SVG 1.1//EN" "http://www.w3.org/Graphics/SVG/1.1/DTD/svg11.dtd" [
	<!ENTITY ns_flows "http://ns.adobe.com/Flows/1.0/">
]>
<svg version="1.1"
	 xmlns="http://www.w3.org/2000/svg" xmlns:xlink="http://www.w3.org/1999/xlink" xmlns:a="http://ns.adobe.com/AdobeSVGViewerExtensions/3.0/"
	 x="0px" y="0px" width="512px" height="512px" viewBox="0 -76.555 512 512" enable-background="new 0 -76.555 512 512"
	 xml:space="preserve">
<defs>
</defs>
<path d="M337.92,13.29C161.28-43.03,0,87.53,0,256.49c0,23.04,2.56,66.561,10.24,92.16c0,5.12,5.12,10.24,10.24,10.24h468.48
	c5.12,0,10.24-5.12,12.8-10.24c5.12-25.6,10.24-69.12,10.24-92.16C512,146.41,442.88,46.57,337.92,13.29z M256,51.69
	c15.359,0,25.6,10.24,25.6,25.6c0,15.36-10.24,25.6-25.6,25.6c-15.36,0-25.6-10.24-25.6-25.6C230.4,61.93,240.64,51.69,256,51.69z
	 M76.8,282.089c-15.36,0-25.6-10.239-25.6-25.6s10.24-25.6,25.6-25.6c15.36,0,25.6,10.239,25.6,25.6S92.16,282.089,76.8,282.089z
	 M148.48,148.97c-10.24,10.24-25.6,10.24-35.84,0c-10.24-10.24-10.24-28.16-2.56-38.4c10.24-10.24,25.6-10.24,35.84,0
	C156.16,120.81,156.16,138.73,148.48,148.97z M256,307.69c-28.16,0-53.76-25.601-46.08-51.2c7.68-25.6,46.08-102.4,46.08-102.4
	s38.4,76.8,46.08,102.4S284.16,307.69,256,307.69z M401.92,148.97c-10.24,10.24-25.6,10.24-35.84,0c-10.24-10.24-10.24-25.6,0-35.84
	c10.24-10.24,25.6-10.24,35.84,0C409.6,120.81,409.6,138.73,401.92,148.97z M435.2,282.089c-15.36,0-25.601-10.239-25.601-25.6
	s10.24-25.6,25.601-25.6c15.359,0,25.6,10.239,25.6,25.6S450.56,282.089,435.2,282.089z"/>
</svg>
