<?xml version="1.0" encoding="utf-8"?>
<!-- Generator: Adobe Illustrator 15.1.0, SVG Export Plug-In  -->
<!DOCTYPE svg PUBLIC "-//W3C//DTD SVG 1.1//EN" "http://www.w3.org/Graphics/SVG/1.1/DTD/svg11.dtd" [
	<!ENTITY ns_flows "http://ns.adobe.com/Flows/1.0/">
]>
<svg version="1.1"
	 xmlns="http://www.w3.org/2000/svg" xmlns:xlink="http://www.w3.org/1999/xlink" xmlns:a="http://ns.adobe.com/AdobeSVGViewerExtensions/3.0/"
	 x="0px" y="0px" width="512px" height="512px" viewBox="-64 0 512 512" enable-background="new -64 0 512 512"
	 xml:space="preserve">
<defs>
</defs>
<path fill="#FDD835" d="M373.333,192h-32v-42.667C341.333,66.99,274.344,0,192,0S42.667,66.99,42.667,149.333V192h-32
	C4.771,192,0,196.771,0,202.667v266.667C0,492.865,19.135,512,42.667,512h298.667C364.865,512,384,492.865,384,469.333V202.667
	C384,196.771,379.229,192,373.333,192z M223.938,414.823c0.334,3.01-0.635,6.03-2.655,8.292c-2.021,2.26-4.917,3.552-7.948,3.552
	h-42.667c-3.031,0-5.927-1.292-7.948-3.552c-2.021-2.26-2.99-5.281-2.656-8.292l6.729-60.511
	c-10.927-7.947-17.458-20.521-17.458-34.313c0-23.531,19.135-42.667,42.667-42.667s42.667,19.135,42.667,42.667
	c0,13.792-6.531,26.365-17.458,34.313L223.938,414.823z M277.333,192H106.667v-42.667C106.667,102.281,144.948,64,192,64
	s85.333,38.281,85.333,85.333V192z"/>
</svg>
