<?xml version="1.0" encoding="utf-8"?>
<!-- Generator: Adobe Illustrator 15.1.0, SVG Export Plug-In . SVG Version: 6.00 Build 0)  -->
<!DOCTYPE svg PUBLIC "-//W3C//DTD SVG 1.1//EN" "http://www.w3.org/Graphics/SVG/1.1/DTD/svg11.dtd">
<svg version="1.1" id="Capa_1" xmlns="http://www.w3.org/2000/svg" xmlns:xlink="http://www.w3.org/1999/xlink" x="0px" y="0px"
	 width="512px" height="512px" viewBox="0 0 512 512" enable-background="new 0 0 512 512" xml:space="preserve">
<g>
	<g>
		<path fill="#888888" d="M511.756,403.97c1.085,8.313-1.448,15.539-7.589,21.681l-72.088,71.544
			c-3.252,3.613-7.497,6.688-12.736,9.215c-5.24,2.53-10.389,4.156-15.445,4.878c-0.361,0-1.448,0.093-3.256,0.273
			c-1.804,0.18-4.152,0.272-7.044,0.272c-6.867,0-17.979-1.175-33.336-3.524s-34.146-8.132-56.367-17.345
			c-22.227-9.214-47.43-23.037-75.614-41.464s-58.176-43.723-89.975-75.883c-25.294-24.933-46.252-48.782-62.874-71.545
			c-16.622-22.766-29.992-43.814-40.109-63.146c-10.118-19.332-17.707-36.857-22.766-52.576
			c-5.059-15.718-8.492-29.269-10.298-40.651s-2.529-20.326-2.168-26.83c0.361-6.504,0.542-10.118,0.542-10.84
			c0.723-5.059,2.349-10.208,4.878-15.448c2.529-5.239,5.601-9.485,9.214-12.737L86.813,7.755c5.059-5.059,10.84-7.588,17.344-7.588
			c4.698,0,8.853,1.355,12.466,4.065c3.614,2.71,6.685,6.053,9.214,10.027l57.996,110.03c3.252,5.782,4.156,12.105,2.71,18.971
			c-1.445,6.866-4.517,12.647-9.214,17.345l-26.559,26.559c-0.723,0.723-1.355,1.897-1.897,3.523s-0.813,2.981-0.813,4.065
			c1.445,7.588,4.697,16.261,9.756,26.017c4.336,8.672,11.021,19.242,20.054,31.708c9.034,12.466,21.862,26.829,38.483,43.089
			c16.261,16.624,30.714,29.54,43.361,38.756c12.645,9.211,23.218,15.989,31.709,20.325c8.492,4.336,14.996,6.956,19.512,7.856
			l6.773,1.356c0.723,0,1.9-0.272,3.524-0.813c1.626-0.543,2.8-1.175,3.524-1.897l30.894-31.438
			c6.508-5.78,14.093-8.672,22.766-8.672c6.145,0,11.021,1.084,14.634,3.253h0.541l104.608,61.79
			C505.793,390.783,510.31,396.743,511.756,403.97z"/>
	</g>
</g>
</svg>
