<svg height="440pt" viewBox="0 -44 440 440" width="440pt" xmlns="http://www.w3.org/2000/svg"><path d="m440 24c0-13.253906-10.746094-24-24-24h-256c-13.253906 0-24 10.746094-24 24v16.34375c2.664062-.113281 5.296875-.34375 8-.34375 88.222656 0 160 61.007812 160 136-.039062 10.824219-1.574219 21.59375-4.558594 32h9.597656c5.121094.035156 9.921876 2.496094 12.9375 6.632812l46.023438 64.40625v-55.039062c0-8.835938 7.164062-16 16-16h32c13.253906 0 24-10.746094 24-24zm-120 104c-13.253906 0-24-10.746094-24-24s10.746094-24 24-24 24 10.746094 24 24-10.746094 24-24 24zm64 0c-13.253906 0-24-10.746094-24-24s10.746094-24 24-24 24 10.746094 24 24-10.746094 24-24 24zm0 0"/><path d="m208 136c0 4.417969-3.582031 8-8 8s-8-3.582031-8-8 3.582031-8 8-8 8 3.582031 8 8zm0 0"/><path d="m328 104c0 4.417969-3.582031 8-8 8s-8-3.582031-8-8 3.582031-8 8-8 8 3.582031 8 8zm0 0"/><path d="m392 104c0 4.417969-3.582031 8-8 8s-8-3.582031-8-8 3.582031-8 8-8 8 3.582031 8 8zm0 0"/><path d="m88 136c0 4.417969-3.582031 8-8 8s-8-3.582031-8-8 3.582031-8 8-8 8 3.582031 8 8zm0 0"/><path d="m162.472656 297.273438c1.277344-1.664063 3.160156-2.761719 5.238282-3.050782 69.703124-9.65625 120.289062-59.382812 120.289062-118.222656 0-66.167969-64.601562-120-144-120s-144 53.832031-144 120c0 56.0625 47.703125 105.359375 113.425781 117.222656 3.808594.691406 6.578125 4.007813 6.574219 7.882813v51.375zm37.527344-185.273438c13.253906 0 24 10.746094 24 24s-10.746094 24-24 24-24-10.746094-24-24 10.746094-24 24-24zm-144 24c0-13.253906 10.746094-24 24-24s24 10.746094 24 24-10.746094 24-24 24-24-10.746094-24-24zm8 56h16c0 26.472656 25.128906 48 56 48s56-21.527344 56-48h16c0 35.289062-32.296875 64-72 64s-72-28.710938-72-64zm0 0"/></svg>