<?xml version="1.0" encoding="utf-8"?>
<!-- Generator: Adobe Illustrator 16.0.0, SVG Export Plug-In . SVG Version: 6.00 Build 0)  -->
<!DOCTYPE svg PUBLIC "-//W3C//DTD SVG 1.1//EN" "http://www.w3.org/Graphics/SVG/1.1/DTD/svg11.dtd">
<svg version="1.1" id="Layer_1" xmlns="http://www.w3.org/2000/svg" xmlns:xlink="http://www.w3.org/1999/xlink" x="0px" y="0px"
	 width="49.998px" height="50px" viewBox="0 0 49.998 50" enable-background="new 0 0 49.998 50" xml:space="preserve">
<g>
	<g>
		<path fill-rule="evenodd" clip-rule="evenodd" fill="#47B549" d="M26.12,0c0.346,0.033,0.69,0.068,1.036,0.097
			c4.735,0.404,8.999,2.044,12.806,4.884c0.735,0.549,0.884,1.502,0.359,2.208c-0.52,0.7-1.482,0.837-2.22,0.291
			c-2.211-1.639-4.632-2.849-7.289-3.574c-2.489-0.679-5.02-0.917-7.593-0.701c-4.54,0.379-8.582,2.01-12.092,4.904
			c-3.77,3.107-6.24,7.051-7.4,11.803c-0.526,2.152-0.711,4.34-0.553,6.548c0.33,4.594,1.93,8.699,4.83,12.28
			c2.646,3.268,5.97,5.585,9.943,6.96c1.706,0.59,3.463,0.952,5.266,1.09c5.138,0.394,9.865-0.82,14.105-3.743
			c4.893-3.372,7.93-8.01,9.146-13.829c0.291-1.4,0.4-2.823,0.418-4.252c0.01-0.785,0.573-1.407,1.35-1.508
			c0.937-0.123,1.756,0.587,1.76,1.537c0.006,1.807-0.188,3.594-0.577,5.358c-0.864,3.904-2.558,7.412-5.104,10.493
			c-3.384,4.091-7.64,6.862-12.762,8.276c-2.581,0.713-5.215,1.001-7.891,0.83c-7.212-0.462-13.166-3.461-17.84-8.957
			c-2.883-3.389-4.671-7.314-5.442-11.693c-0.169-0.959-0.224-1.938-0.331-2.908c-0.012-0.108-0.03-0.216-0.045-0.324
			c0-0.714,0-1.429,0-2.143c0.031-0.345,0.067-0.69,0.095-1.036c0.157-2.014,0.556-3.979,1.222-5.885
			C3.513,10.724,7.552,6.003,13.413,2.86c2.95-1.582,6.113-2.486,9.453-2.762C23.203,0.07,23.539,0.033,23.875,0
			C24.624,0,25.372,0,26.12,0z"/>
		<path fill-rule="evenodd" clip-rule="evenodd" fill="#47B549" d="M21.875,33.775c0.109-0.132,0.179-0.231,0.262-0.315
			c8.344-8.345,16.688-16.689,25.03-25.033c0.255-0.256,0.526-0.483,0.888-0.567c0.688-0.161,1.378,0.132,1.727,0.731
			c0.351,0.602,0.271,1.338-0.22,1.86c-0.351,0.371-0.719,0.725-1.079,1.085C40.021,20,31.557,28.465,23.092,36.929
			c-0.632,0.632-1.402,0.749-2.071,0.309c-0.112-0.074-0.214-0.167-0.31-0.263c-4.125-4.122-8.243-8.252-12.376-12.366
			c-0.914-0.908-0.531-2.277,0.512-2.638c0.626-0.217,1.188-0.079,1.659,0.392c1.287,1.285,2.573,2.573,3.859,3.859
			c2.458,2.459,4.917,4.918,7.374,7.378C21.775,33.635,21.803,33.68,21.875,33.775z"/>
	</g>
</g>
</svg>
