<?xml version="1.0" encoding="utf-8"?>
<!-- Generator: Adobe Illustrator 16.0.2, SVG Export Plug-In . SVG Version: 6.00 Build 0)  -->
<!DOCTYPE svg PUBLIC "-//W3C//DTD SVG 1.1//EN" "http://www.w3.org/Graphics/SVG/1.1/DTD/svg11.dtd">
<svg version="1.1" id="Layer_1" xmlns="http://www.w3.org/2000/svg" xmlns:xlink="http://www.w3.org/1999/xlink" x="0px" y="0px"
	 width="50px" height="50px" viewBox="0 0 50 50" enable-background="new 0 0 50 50" xml:space="preserve">
<path fill-rule="evenodd" clip-rule="evenodd" fill="#FFFFFF" d="M-299.288-400.725c-1.267-2.799-2.468-5.63-3.813-8.391
	c-2.899-5.954-8.458-8.408-14.188-10.609c6,0,12,0,18,0C-299.288-413.392-299.288-407.058-299.288-400.725z"/>
<g>
	<path fill-rule="evenodd" clip-rule="evenodd" d="M31.732,50c-0.513-0.063-1.028-0.112-1.537-0.193
		c-3.702-0.592-6.825-2.271-9.345-5.041c-2.301-2.528-3.646-5.506-4.022-8.905c-0.85-7.682,3.82-14.775,11.196-17.031
		c8.804-2.691,18.082,2.688,20.146,11.683c1.798,7.841-2.524,15.788-10.084,18.535c-1.389,0.505-2.821,0.811-4.296,0.911
		c-0.075,0.005-0.147,0.027-0.222,0.042C32.957,50,32.345,50,31.732,50z M31.548,36.47c-0.448-0.45-0.855-0.859-1.264-1.268
		c-0.96-0.962-1.918-1.928-2.886-2.883c-0.69-0.682-1.683-0.687-2.381-0.027c-0.167,0.157-0.326,0.322-0.488,0.485
		c-0.815,0.82-0.814,1.782,0.004,2.6c1.891,1.892,3.782,3.783,5.673,5.674c0.841,0.841,1.798,0.842,2.638,0.002
		c2.735-2.734,5.47-5.469,8.204-8.204c0.379-0.379,0.764-0.752,1.136-1.137c0.672-0.696,0.674-1.682,0.01-2.383
		c-0.152-0.16-0.311-0.314-0.467-0.471c-0.833-0.822-1.792-0.818-2.62,0.01c-2.44,2.44-4.88,4.88-7.32,7.321
		C31.709,36.268,31.643,36.357,31.548,36.47z"/>
	<path fill-rule="evenodd" clip-rule="evenodd" d="M20.661,0c0.36,0.089,0.736,0.139,1.079,0.271
		c1.881,0.725,2.962,2.089,3.214,4.097c0.005,0.033,0.007,0.067,0.015,0.101c0.004,0.016,0.015,0.029,0.037,0.072
		c0.084,0,0.184,0,0.283,0c1.87,0,3.742-0.005,5.612,0.002c1.454,0.004,2.593,0.964,2.847,2.387c0.021,0.117,0.029,0.236,0.03,0.355
		c0.004,1.122,0.004,2.244,0.005,3.367c0,0.033-0.008,0.066-0.014,0.121c-9.07,0-18.137,0-27.227,0
		c-0.005-0.078-0.014-0.159-0.015-0.24c0-1.021-0.002-2.04,0-3.061c0.005-1.697,1.232-2.927,2.929-2.931
		c1.861-0.004,3.724-0.001,5.586-0.001c0.093,0,0.185,0,0.259,0c0.103-0.438,0.16-0.87,0.307-1.271
		c0.668-1.825,1.975-2.897,3.893-3.223c0.048-0.009,0.093-0.03,0.14-0.047C19.98,0,20.32,0,20.661,0z M20.164,2.843
		c-1.102-0.006-1.998,0.882-1.999,1.98c-0.002,1.095,0.902,1.999,1.993,1.994c1.09-0.005,1.979-0.89,1.984-1.976
		C22.147,3.734,21.271,2.848,20.164,2.843z"/>
	<path fill-rule="evenodd" clip-rule="evenodd" d="M38.872,17.569c-0.544-0.167-1.074-0.344-1.612-0.493
		c-6.249-1.734-13.123,0.229-17.497,5.017c-0.605,0.663-1.134,1.396-1.684,2.109c-0.11,0.144-0.21,0.208-0.394,0.208
		c-2.517-0.007-5.034-0.005-7.551-0.003c-0.144,0-0.289,0.006-0.431,0.031c-0.459,0.083-0.832,0.473-0.884,0.936
		c-0.025,0.235-0.025,0.476-0.02,0.713c0.021,0.701,0.484,1.159,1.186,1.161c2.032,0.004,4.065,0.001,6.097,0.001
		c0.093,0,0.187,0,0.287,0c-0.304,0.946-0.603,1.877-0.914,2.848c-0.061,0-0.159,0-0.259,0c-1.709,0-3.418-0.001-5.127,0
		c-0.817,0-1.266,0.443-1.271,1.254c-0.001,0.179-0.006,0.358,0.01,0.535c0.047,0.563,0.455,0.979,1.014,1.036
		c0.127,0.013,0.254,0.015,0.383,0.015c1.513,0.001,3.026,0.001,4.54,0.001c0.102,0,0.202,0,0.337,0c0,0.948,0,1.876,0,2.835
		c-0.071,0-0.162,0-0.252,0c-1.583,0-3.164-0.001-4.745,0c-0.828,0-1.282,0.45-1.286,1.271c-0.001,0.146-0.005,0.29,0.001,0.435
		c0.031,0.682,0.501,1.138,1.184,1.14c1.777,0.003,3.555,0.001,5.332,0.001c0.101,0,0.202,0,0.323,0
		c0.373,1.373,0.892,2.678,1.573,3.915c0.679,1.233,1.495,2.37,2.474,3.443c-0.101,0.012-0.162,0.026-0.222,0.026
		c-5.161,0.001-10.322,0.003-15.484-0.002c-1.331-0.001-2.322-0.803-2.53-2.021c-0.026-0.15-0.026-0.305-0.026-0.458
		C1.423,32.299,1.423,21.074,1.423,9.851c0.001-1.393,0.99-2.414,2.39-2.458c0.517-0.016,1.034-0.002,1.576-0.002
		c0,1.515,0,3.008,0,4.518c9.851,0,19.675,0,29.528,0c0-1.506,0-2.997,0-4.528c0.771,0.045,1.521-0.093,2.254,0.115
		c1.004,0.286,1.704,1.149,1.712,2.191c0.02,2.585,0.008,5.17,0.008,7.754C38.891,17.481,38.88,17.522,38.872,17.569z
		 M14.769,21.582c1.472,0,2.942-0.035,4.411,0.013c1.035,0.033,1.615-0.418,1.553-1.555c-0.048-0.859-0.451-1.303-1.312-1.303
		c-2.668,0-5.336,0-8.004,0c-0.484,0-0.969-0.006-1.453,0.002c-0.669,0.011-1.132,0.467-1.163,1.136
		c-0.006,0.152-0.003,0.306-0.001,0.459c0.007,0.792,0.464,1.247,1.254,1.247C11.625,21.582,13.198,21.582,14.769,21.582z"/>
</g>
</svg>
