<?xml version="1.0" encoding="utf-8"?>
<!-- Generator: Adobe Illustrator 16.0.2, SVG Export Plug-In . SVG Version: 6.00 Build 0)  -->
<!DOCTYPE svg PUBLIC "-//W3C//DTD SVG 1.1//EN" "http://www.w3.org/Graphics/SVG/1.1/DTD/svg11.dtd">
<svg version="1.1" id="Layer_1" xmlns="http://www.w3.org/2000/svg" xmlns:xlink="http://www.w3.org/1999/xlink" x="0px" y="0px"
	 width="512px" height="512px" viewBox="0 0 512 512" enable-background="new 0 0 512 512" xml:space="preserve">
<g>
	<g>
		<rect x="90.032" y="203.216" fill="#F485AB" width="211.134" height="31.67"/>
		<path fill="#F485AB" d="M369.785,239.653v-124.81L254.944,0H21.414v469.773h233.854C280.159,495.779,315.195,512,353.95,512
			c75.341,0,136.635-61.294,136.635-136.635C490.585,305.38,437.694,247.527,369.785,239.653z M264.218,54.064l51.503,51.503
			h-51.503V54.064L264.218,54.064z M53.084,438.104V31.67h179.464v105.567h105.567v102.416c-30.518,3.539-58,17.167-79.013,37.46
			H90.032v31.67h144.642c-7.247,12.932-12.459,27.15-15.183,42.227H90.032v31.671h127.479c1.055,19.891,6.386,38.665,15.085,55.423
			H53.084z M353.95,480.33c-57.878,0-104.966-47.087-104.966-104.965c0-57.879,47.088-104.965,104.966-104.965
			s104.965,47.087,104.965,104.965C458.915,433.242,411.828,480.33,353.95,480.33z"/>
		<polygon fill="#F485AB" points="369.785,310.319 338.115,310.319 338.115,359.529 288.905,359.529 288.905,391.199 
			338.115,391.199 338.115,440.412 369.785,440.412 369.785,391.199 418.996,391.199 418.996,359.529 369.785,359.529 		"/>
	</g>
</g>
</svg>
