<?xml version="1.0" encoding="utf-8"?>
<!-- Generator: Adobe Illustrator 16.0.2, SVG Export Plug-In . SVG Version: 6.00 Build 0)  -->
<!DOCTYPE svg PUBLIC "-//W3C//DTD SVG 1.1//EN" "http://www.w3.org/Graphics/SVG/1.1/DTD/svg11.dtd">
<svg version="1.1" id="Capa_1" xmlns="http://www.w3.org/2000/svg" xmlns:xlink="http://www.w3.org/1999/xlink" x="0px" y="0px"
	 width="548.172px" height="548.172px" viewBox="0 0 548.172 548.172" enable-background="new 0 0 548.172 548.172"
	 xml:space="preserve">
<g>
	<g>
		<path fill="#F485AB" d="M333.186,376.438c0-1.9-0.668-3.806-1.998-5.707c-10.66-12.758-19.224-23.701-25.697-32.832
			c3.996-7.803,7.043-15.037,9.131-21.692l44.256-6.853c1.718-0.193,3.24-1.189,4.571-2.994c1.331-1.815,1.991-3.668,1.991-5.57
			v-52.822c0-2.091-0.66-3.949-1.991-5.564c-1.331-1.615-2.95-2.618-4.853-2.993l-43.4-6.567
			c-2.098-6.473-5.331-14.281-9.709-23.413c2.853-4.19,7.141-9.902,12.852-17.131c5.709-7.234,9.713-12.371,11.99-15.417
			c1.336-1.903,1.999-3.713,1.999-5.424c0-5.14-13.706-20.367-41.105-45.683c-1.902-1.52-3.902-2.281-6.003-2.281
			c-2.278,0-4.182,0.659-5.712,1.997l-33.691,25.41c-7.801-3.996-14.938-6.945-21.41-8.854l-6.567-43.68
			c-0.188-1.903-1.14-3.571-2.854-4.997c-1.714-1.427-3.616-2.142-5.713-2.142h-53.1c-4.377,0-7.232,2.284-8.564,6.851
			c-2.285,8.757-4.473,23.416-6.566,43.968c-8.184,2.664-15.511,5.71-21.982,9.136L86.227,125.49
			c-1.902-1.335-3.9-1.997-5.996-1.997c-3.621,0-11.138,5.614-22.557,16.846c-11.421,11.228-19.229,19.698-23.413,25.409
			c-1.334,1.525-1.997,3.428-1.997,5.712c0,1.711,0.662,3.614,1.997,5.708c10.657,12.756,19.221,23.7,25.694,32.832
			c-3.996,7.808-7.04,15.037-9.132,21.698l-44.256,6.848c-1.715,0.19-3.235,1.188-4.569,2.993C0.666,243.35,0,245.203,0,247.105
			v52.819c0,2.096,0.666,3.949,1.997,5.564c1.334,1.621,2.949,2.523,4.856,2.714l43.396,6.853c2.284,7.229,5.618,15.036,9.995,23.41
			c-3.046,4.191-7.518,9.999-13.418,17.418c-5.905,7.428-9.806,12.471-11.707,15.133c-1.332,1.903-1.999,3.719-1.999,5.422
			c0,5.146,13.706,20.369,41.113,45.688c1.903,1.519,3.899,2.275,5.996,2.275c2.475,0,4.377-0.66,5.708-1.995l33.689-25.406
			c7.801,3.997,14.938,6.942,21.413,8.847l6.566,43.686c0.188,1.9,1.143,3.57,2.854,4.996c1.713,1.427,3.616,2.139,5.711,2.139h53.1
			c4.38,0,7.233-2.282,8.566-6.853c2.284-8.947,4.471-23.696,6.566-44.255c7.611-2.274,14.938-5.234,21.982-8.847l32.833,25.693
			c1.902,1.335,3.9,1.994,5.995,1.994c3.617,0,11.091-5.659,22.415-16.99c11.319-11.317,19.176-19.843,23.555-25.55
			C332.518,380.529,333.186,378.725,333.186,376.438z M234.397,325.626c-14.271,14.271-31.499,21.408-51.673,21.408
			c-20.179,0-37.406-7.14-51.678-21.408c-14.274-14.276-21.412-31.505-21.412-51.68c0-20.174,7.138-37.401,21.412-51.675
			c14.271-14.275,31.5-21.411,51.678-21.411c20.174,0,37.401,7.135,51.673,21.411c14.277,14.274,21.413,31.501,21.413,51.675
			C255.81,294.121,248.675,311.35,234.397,325.626z"/>
		<path fill="#F485AB" d="M505.628,391.29c-2.472-5.517-5.329-10.465-8.563-14.847c9.709-21.512,14.558-34.646,14.558-39.401
			c0-0.753-0.373-1.424-1.14-1.995c-22.847-13.322-34.644-19.984-35.405-19.984l-1.711,0.573
			c-7.803,7.808-16.563,18.464-26.267,31.978c-3.805-0.379-6.655-0.573-8.56-0.573c-1.908,0-4.76,0.194-8.568,0.573
			c-2.654-4-7.609-10.428-14.842-19.272c-7.229-8.846-11.61-13.276-13.135-13.276c-0.38,0-3.233,1.521-8.565,4.574
			c-5.328,3.047-10.943,6.276-16.844,9.709c-5.906,3.434-9.229,5.328-9.992,5.711c-0.768,0.568-1.145,1.239-1.145,1.992
			c0,4.766,4.854,17.889,14.56,39.402c-3.229,4.381-6.089,9.329-8.563,14.842c-28.363,2.852-42.545,5.805-42.545,8.85v39.97
			c0,3.046,14.182,5.996,42.545,8.85c2.279,5.141,5.137,10.089,8.563,14.839c-9.706,21.513-14.56,34.646-14.56,39.402
			c0,0.76,0.377,1.431,1.145,1.999c23.217,13.514,35.021,20.27,35.401,20.27c1.521,0,5.902-4.473,13.135-13.419
			c7.23-8.946,12.18-15.413,14.842-19.41c3.807,0.373,6.66,0.564,8.568,0.564c1.902,0,4.755-0.191,8.56-0.564
			c2.659,3.997,7.611,10.464,14.843,19.41c7.23,8.946,11.607,13.419,13.135,13.419c0.381,0,12.188-6.759,35.405-20.27
			c0.767-0.568,1.14-1.235,1.14-1.999c0-4.757-4.854-17.891-14.558-39.402c3.426-4.75,6.278-9.697,8.563-14.839
			c28.361-2.854,42.544-5.804,42.544-8.85v-39.97C548.172,397.098,533.99,394.145,505.628,391.29z M464.369,445.962
			c-7.128,7.139-15.744,10.715-25.834,10.715c-10.092,0-18.705-3.576-25.837-10.715c-7.139-7.139-10.713-15.748-10.713-25.837
			c0-9.895,3.621-18.466,10.855-25.693c7.229-7.229,15.797-10.849,25.692-10.849c9.895,0,18.467,3.614,25.7,10.849
			c7.229,7.229,10.849,15.801,10.849,25.693C475.077,430.214,471.512,438.823,464.369,445.962z"/>
		<path fill="#F485AB" d="M505.628,98.931c-2.472-5.52-5.329-10.468-8.563-14.849c9.709-21.505,14.558-34.639,14.558-39.397
			c0-0.758-0.373-1.427-1.14-1.999c-22.847-13.323-34.644-19.984-35.405-19.984l-1.711,0.57
			c-7.803,7.808-16.563,18.464-26.267,31.977c-3.805-0.378-6.655-0.57-8.56-0.57c-1.908,0-4.76,0.192-8.568,0.57
			c-2.654-3.997-7.609-10.42-14.842-19.27c-7.229-8.852-11.61-13.276-13.135-13.276c-0.38,0-3.233,1.521-8.565,4.569
			c-5.328,3.049-10.943,6.283-16.844,9.71c-5.906,3.428-9.229,5.33-9.992,5.708c-0.768,0.571-1.145,1.237-1.145,1.999
			c0,4.758,4.854,17.893,14.56,39.399c-3.229,4.38-6.089,9.327-8.563,14.847c-28.363,2.853-42.545,5.802-42.545,8.848v39.971
			c0,3.044,14.182,5.996,42.545,8.848c2.279,5.137,5.137,10.088,8.563,14.847c-9.706,21.51-14.56,34.639-14.56,39.399
			c0,0.757,0.377,1.426,1.145,1.997c23.217,13.513,35.021,20.271,35.401,20.271c1.521,0,5.902-4.471,13.135-13.418
			c7.23-8.947,12.18-15.415,14.842-19.414c3.807,0.378,6.66,0.571,8.568,0.571c1.902,0,4.755-0.193,8.56-0.571
			c2.659,3.999,7.611,10.466,14.843,19.414c7.23,8.947,11.607,13.418,13.135,13.418c0.381,0,12.188-6.757,35.405-20.271
			c0.767-0.571,1.14-1.237,1.14-1.997c0-4.76-4.854-17.889-14.558-39.399c3.426-4.759,6.278-9.707,8.563-14.847
			c28.361-2.853,42.544-5.804,42.544-8.848v-39.971C548.172,104.737,533.99,101.787,505.628,98.931z M464.369,153.605
			c-7.128,7.139-15.744,10.708-25.834,10.708c-10.092,0-18.705-3.569-25.837-10.708c-7.139-7.135-10.713-15.749-10.713-25.837
			c0-9.897,3.621-18.464,10.855-25.697c7.229-7.233,15.797-10.85,25.692-10.85c9.895,0,18.467,3.621,25.7,10.85
			c7.229,7.232,10.849,15.8,10.849,25.697C475.077,137.856,471.512,146.47,464.369,153.605z"/>
	</g>
</g>
</svg>
