<svg id="SvgjsSvg1012" width="288" height="288" xmlns="http://www.w3.org/2000/svg" version="1.1" xmlns:xlink="http://www.w3.org/1999/xlink" xmlns:svgjs="http://svgjs.com/svgjs"><defs id="SvgjsDefs1013"></defs><g id="SvgjsG1014" transform="matrix(0.9167,0,0,0.9167,11.995200000000011,11.995200000000011)"><svg xmlns="http://www.w3.org/2000/svg" viewBox="0 0 24 24" width="288" height="288"><g data-name="Layer 2" fill="#ffffff" class="color000 svgShape"><g data-name="person-remove" fill="#ffffff" class="color000 svgShape"><rect width="24" height="24" opacity="0" fill="#ffffff" class="color000 svgShape"></rect><path d="M21 6h-4a1 1 0 0 0 0 2h4a1 1 0 0 0 0-2zM10 11a4 4 0 1 0-4-4 4 4 0 0 0 4 4zM16 21a1 1 0 0 0 1-1 7 7 0 0 0-14 0 1 1 0 0 0 1 1" fill="#ffffff" class="color000 svgShape"></path></g></g></svg></g></svg>