<?xml version="1.0" encoding="utf-8"?>
<!-- Generator: Adobe Illustrator 16.0.2, SVG Export Plug-In . SVG Version: 6.00 Build 0)  -->
<!DOCTYPE svg PUBLIC "-//W3C//DTD SVG 1.1//EN" "http://www.w3.org/Graphics/SVG/1.1/DTD/svg11.dtd">
<svg version="1.1" id="Layer_1" xmlns="http://www.w3.org/2000/svg" xmlns:xlink="http://www.w3.org/1999/xlink" x="0px" y="0px"
	 width="512px" height="512px" viewBox="0 0 512 512" enable-background="new 0 0 512 512" xml:space="preserve">
<g>
	<path fill="#EE84AB" d="M0,297.754c8.004-4.176,15.719-9.043,24.058-12.391c30.863-12.371,61.121-27.351,93.099-35.515
		c35.739-9.138,70.428-2.088,96.584,27.522c17.039,19.284,40.715,22.014,63.519,26.91c11.072,2.368,22.515,3.106,33.797,4.566
		c16.647,2.158,26.971,12.94,26.161,27.341c-0.749,13.369-12.291,23.423-28.529,23.442c-39.362,0.02-78.954,3.188-117.48-8.713
		c-3.094-0.949-7.245,1.578-10.897,2.478c2.752,2.499,5.105,6.365,8.308,7.265c27.577,7.844,55.821,9.644,84.424,9.544
		c73.127-0.301,59.048,2.077,115.656-35.465c22.444-14.88,44.46-30.428,67.253-44.718c8.094-5.057,17.717-8.494,27.1-10.452
		c9.734-2.03,19.188,1.158,24.373,10.682c5.427,9.982,6.146,20.944-0.88,30.107c-6.124,8.006-13.44,15.75-21.794,21.265
		c-60.656,40.192-121.612,79.953-182.669,119.544c-25.432,16.499-51.733,14.57-77.774,1.28
		c-29.673-15.149-59.481-30.108-88.591-46.317c-16.403-9.133-30.881-10.741-45.636,2.379c-4.482,3.986-10.029,6.775-15.135,10.073
		c-13.734,8.914-16.159,8.233-22.738-6.315C36.304,387.081,20.425,351.896,4.452,316.73c-1.209-2.658-2.958-5.066-4.452-7.585
		C0,305.349,0,301.552,0,297.754z"/>
	<path fill="#EE84AB" d="M266.398,245.952c-40.941-0.02-71.048-30.568-71.149-72.183c-0.096-39.761,31.313-70.459,71.878-70.264
		c40.671,0.205,70.93,31.362,70.639,72.752C337.497,215.519,306.318,245.982,266.398,245.952z M275.052,201.829
		c0-18.828,0-36.449,0-53.807c-16.297-4.502-21.949,7.594-30.758,16.979c5.227,0.47,8.864,0.799,13.446,1.219
		c0,12.106,0,23.678,0,35.61C263.94,201.829,269.117,201.829,275.052,201.829z"/>
	<path fill="#EE84AB" d="M336.678,81.81c-14.05-5.506-18.867,5.466-27.18,12.852c4.437,1.139,7.733,1.988,11.271,2.888
		c0,4.377,0,8.494,0,11.716c-16.798-6.53-33.904-13.18-51.651-20.081c1.988-24.761,30.217-46.207,53.771-47.125
		c32.725-1.279,59.476,18.557,66.172,50.084c6.124,28.929-9.774,56.464-38.313,67.906C331.251,136.586,338.058,108.23,336.678,81.81
		z"/>
	<path fill="#EE84AB" d="M345.19,350.196c6.258-18.127,2.738-30.947-8.453-42.588c20.555-13.61,40.521-27.261,60.916-40.202
		c11.392-7.221,24.022-11.347,37.794-8.408c9.553,2.027,17.717,6.17,21.284,17.393C420.317,300.492,384.184,324.404,345.19,350.196z
		"/>
	<path fill="#EE84AB" d="M393.316,256.838c-21.544,14.606-41.21,27.986-60.977,41.216c-2.038,1.38-4.836,2.878-7.054,2.598
		c-17.547-2.178-35.056-4.776-55.58-7.673c10.231-6.406,18.226-11.433,26.231-16.418c11.221-6.984,22.354-14.125,33.705-20.875
		C350.308,243.404,370.902,244.314,393.316,256.838z"/>
</g>
</svg>
