<?xml version="1.0" encoding="utf-8"?>
<!-- Generator: Adobe Illustrator 16.0.2, SVG Export Plug-In . SVG Version: 6.00 Build 0)  -->
<!DOCTYPE svg PUBLIC "-//W3C//DTD SVG 1.1//EN" "http://www.w3.org/Graphics/SVG/1.1/DTD/svg11.dtd">
<svg version="1.1" id="Layer_1" xmlns="http://www.w3.org/2000/svg" xmlns:xlink="http://www.w3.org/1999/xlink" x="0px" y="0px"
	 width="50px" height="50px" viewBox="0 0 50 50" enable-background="new 0 0 50 50" xml:space="preserve">
<path fill-rule="evenodd" clip-rule="evenodd" fill="#FFFFFF" d="M-226.288-432.216c-1.267-2.799-2.468-5.63-3.813-8.391
	c-2.899-5.954-8.458-8.408-14.188-10.609c6,0,12,0,18,0C-226.288-444.883-226.288-438.549-226.288-432.216z"/>
<g>
	<path fill-rule="evenodd" clip-rule="evenodd" d="M0,28.936c0.782-0.408,1.536-0.884,2.351-1.211
		c3.016-1.21,5.973-2.673,9.098-3.471c3.493-0.893,6.883-0.204,9.439,2.689c1.665,1.885,3.979,2.152,6.207,2.63
		c1.083,0.232,2.201,0.304,3.303,0.447c1.627,0.21,2.636,1.264,2.557,2.671c-0.073,1.307-1.201,2.29-2.788,2.291
		c-3.846,0.003-7.716,0.312-11.481-0.851c-0.302-0.093-0.708,0.154-1.065,0.242c0.269,0.244,0.499,0.622,0.812,0.71
		c2.695,0.766,5.455,0.943,8.251,0.932c7.146-0.029,5.77,0.204,11.303-3.465c2.193-1.454,4.344-2.974,6.572-4.37
		c0.79-0.495,1.731-0.83,2.648-1.022c0.951-0.198,1.875,0.113,2.382,1.044c0.53,0.976,0.6,2.047-0.086,2.943
		c-0.598,0.782-1.314,1.538-2.13,2.078c-5.927,3.928-11.884,7.813-17.851,11.682c-2.486,1.612-5.056,1.424-7.601,0.125
		c-2.9-1.48-5.813-2.942-8.658-4.526c-1.603-0.893-3.018-1.05-4.46,0.232c-0.438,0.39-0.98,0.663-1.479,0.985
		c-1.342,0.871-1.579,0.804-2.222-0.617c-1.554-3.439-3.106-6.878-4.667-10.314C0.317,30.53,0.146,30.295,0,30.049
		C0,29.678,0,29.307,0,28.936z"/>
	<path fill-rule="evenodd" clip-rule="evenodd" d="M26.034,23.873c-4.001-0.002-6.943-2.987-6.953-7.054
		c-0.009-3.886,3.06-6.886,7.024-6.867c3.975,0.02,6.932,3.065,6.904,7.11C32.983,20.899,29.936,23.876,26.034,23.873z
		 M26.88,19.561c0-1.84,0-3.562,0-5.258c-1.593-0.44-2.145,0.742-3.006,1.659c0.511,0.046,0.866,0.078,1.314,0.119
		c0,1.183,0,2.314,0,3.48C25.794,19.561,26.3,19.561,26.88,19.561z"/>
	<path fill-rule="evenodd" clip-rule="evenodd" d="M32.902,7.832c-1.373-0.538-1.843,0.534-2.656,1.256
		c0.434,0.111,0.756,0.194,1.101,0.282c0,0.428,0,0.83,0,1.145c-1.641-0.638-3.313-1.288-5.047-1.962
		c0.194-2.42,2.953-4.516,5.254-4.606c3.199-0.125,5.813,1.814,6.467,4.895c0.599,2.827-0.955,5.518-3.744,6.636
		C32.372,13.185,33.037,10.414,32.902,7.832z"/>
	<path fill-rule="evenodd" clip-rule="evenodd" d="M33.734,34.061c0.612-1.772,0.268-3.025-0.826-4.162
		c2.009-1.331,3.96-2.665,5.954-3.929c1.112-0.706,2.347-1.109,3.693-0.822c0.933,0.198,1.731,0.603,2.08,1.699
		C41.076,29.203,37.545,31.54,33.734,34.061z"/>
	<path fill-rule="evenodd" clip-rule="evenodd" d="M38.438,24.937c-2.106,1.427-4.028,2.735-5.959,4.028
		c-0.2,0.134-0.473,0.281-0.69,0.254c-1.715-0.213-3.425-0.467-5.432-0.75c1-0.626,1.781-1.118,2.564-1.605
		c1.097-0.682,2.184-1.38,3.294-2.04C34.235,23.624,36.247,23.713,38.438,24.937z"/>
</g>
</svg>
