<?xml version="1.0" encoding="utf-8"?>
<!-- Generator: Adobe Illustrator 16.0.2, SVG Export Plug-In . SVG Version: 6.00 Build 0)  -->
<!DOCTYPE svg PUBLIC "-//W3C//DTD SVG 1.1//EN" "http://www.w3.org/Graphics/SVG/1.1/DTD/svg11.dtd">
<svg version="1.1" id="Layer_1" xmlns="http://www.w3.org/2000/svg" xmlns:xlink="http://www.w3.org/1999/xlink" x="0px" y="0px"
	 width="50px" height="50px" viewBox="0 0 50 50" enable-background="new 0 0 50 50" xml:space="preserve">
<path fill-rule="evenodd" clip-rule="evenodd" fill="#FFFFFF" d="M0,28.316c0-0.153,0-0.306,0-0.459
	c0.176-0.507,0.523-0.85,0.987-1.112c2.335-1.32,4.657-2.666,6.996-3.98C20.126,15.934,32.271,9.107,44.419,2.288
	C45.823,1.5,47.255,0.761,48.673,0c0.137,0,0.272,0,0.409,0c0.292,0.112,0.575,0.237,0.724,0.541
	c0.068,0.141,0.13,0.286,0.194,0.428c0,0.153,0,0.306,0,0.459c-0.021,0.106-0.046,0.212-0.062,0.319
	c-0.494,3.344-0.982,6.688-1.481,10.032c-0.515,3.443-1.04,6.885-1.563,10.328c-0.498,3.292-0.995,6.584-1.5,9.873
	c-0.468,3.048-0.944,6.094-1.421,9.139c-0.065,0.418-0.105,0.851-0.245,1.246c-0.391,1.111-1.542,1.629-2.673,1.234
	c-1.065-0.371-2.125-0.76-3.191-1.131c-3.478-1.21-6.958-2.414-10.436-3.626c-0.183-0.063-0.296-0.044-0.399,0.124
	c-0.33,0.534-0.671,1.063-1.006,1.595c-1.861,2.952-3.722,5.906-5.59,8.854c-0.134,0.212-0.322,0.39-0.484,0.584
	c-0.085,0-0.17,0-0.255,0c-0.042-0.023-0.082-0.063-0.127-0.069c-0.561-0.085-0.715-0.479-0.74-0.969
	c-0.028-0.543-0.07-1.087-0.071-1.63c-0.012-3.767-0.018-7.533-0.017-11.3c0-0.205-0.058-0.297-0.251-0.362
	c-1.287-0.437-2.571-0.877-3.851-1.331c-4.399-1.56-8.794-3.132-13.197-4.683C0.748,29.412,0.222,29.041,0,28.316z M23.337,30.642
	c0.197,0.08,0.311,0.131,0.428,0.173c1.808,0.642,3.61,1.296,5.423,1.922c2.768,0.955,5.541,1.893,8.313,2.833
	c0.556,0.188,1.027-0.106,1.119-0.681c0.168-1.048,0.341-2.095,0.502-3.145c0.537-3.492,1.073-6.984,1.603-10.478
	c0.482-3.2,0.956-6.401,1.431-9.602c0.071-0.472-0.258-0.736-0.701-0.557c-0.219,0.088-0.429,0.204-0.636,0.32
	c-8.651,4.868-17.303,9.738-25.954,14.608c-0.326,0.183-0.653,0.364-0.969,0.564c-0.325,0.205-0.303,0.544,0.038,0.721
	c0.136,0.07,0.278,0.128,0.422,0.179c1.556,0.563,3.114,1.119,4.668,1.688c0.196,0.071,0.324,0.034,0.479-0.089
	c5.181-4.081,10.364-8.159,15.549-12.237c0.39-0.307,0.783-0.612,1.174-0.918c0.012,0.013,0.023,0.025,0.035,0.038
	C31.965,20.854,27.67,25.728,23.337,30.642z"/>
<path fill-rule="evenodd" clip-rule="evenodd" fill="#FFFFFF" d="M515-446c-1.267-2.799-2.468-5.63-3.813-8.391
	c-2.899-5.954-8.458-8.408-14.188-10.609c6,0,12,0,18,0C515-458.667,515-452.333,515-446z"/>
</svg>
