<?xml version="1.0" encoding="utf-8"?>
<!-- Generator: Adobe Illustrator 16.0.2, SVG Export Plug-In . SVG Version: 6.00 Build 0)  -->
<!DOCTYPE svg PUBLIC "-//W3C//DTD SVG 1.1//EN" "http://www.w3.org/Graphics/SVG/1.1/DTD/svg11.dtd">
<svg version="1.1" id="Layer_1" xmlns="http://www.w3.org/2000/svg" xmlns:xlink="http://www.w3.org/1999/xlink" x="0px" y="0px"
	 width="512px" height="512px" viewBox="0 0 512 512" enable-background="new 0 0 512 512" xml:space="preserve">
<g>
	<path fill="#EE84AB" d="M512,258.5C512,118.173,397.826,4,257.5,4C117.173,4,3,118.173,3,258.5
		c0,74.119,31.873,140.929,82.606,187.479l-0.241,0.213l8.255,6.96c0.537,0.453,1.12,0.823,1.657,1.268
		c4.386,3.637,8.931,7.089,13.558,10.43c1.5,1.082,2.999,2.166,4.525,3.22c4.942,3.407,10.014,6.636,15.196,9.7
		c1.129,0.666,2.267,1.313,3.405,1.961c5.673,3.23,11.466,6.275,17.399,9.07c0.435,0.203,0.879,0.388,1.314,0.592
		c19.333,8.986,39.971,15.585,61.552,19.48c0.565,0.102,1.129,0.204,1.704,0.306c6.7,1.156,13.474,2.082,20.332,2.702
		c0.833,0.074,1.666,0.12,2.507,0.195C243.6,512.64,250.504,513,257.5,513c6.932,0,13.771-0.36,20.563-0.907
		c0.861-0.074,1.722-0.12,2.582-0.194c6.802-0.619,13.521-1.518,20.156-2.655c0.573-0.102,1.157-0.204,1.731-0.314
		c21.258-3.813,41.599-10.264,60.682-19.019c0.703-0.324,1.416-0.63,2.119-0.963c5.71-2.684,11.291-5.581,16.76-8.662
		c1.36-0.769,2.712-1.546,4.063-2.342c4.979-2.934,9.875-5.996,14.632-9.254c1.712-1.166,3.388-2.397,5.081-3.618
		c4.063-2.925,8.051-5.941,11.929-9.098c0.861-0.694,1.786-1.296,2.628-2.008l8.469-7.071l-0.25-0.213
		C479.822,400.113,512,332.999,512,258.5z M21.509,258.5c0-130.128,105.863-235.991,235.991-235.991
		c130.129,0,235.99,105.863,235.99,235.991c0,70.122-30.771,133.164-79.487,176.419c-2.72-1.878-5.459-3.563-8.264-4.97
		l-78.357-39.174c-7.034-3.518-11.402-10.587-11.402-18.444v-27.366c1.813-2.239,3.729-4.774,5.71-7.561
		c10.143-14.326,18.278-30.262,24.21-47.411c11.726-5.571,19.296-17.25,19.296-30.438v-32.807c0-8.024-2.943-15.807-8.209-21.924
		v-43.191c0.481-4.813,2.184-31.91-17.426-54.269c-17.057-19.471-44.663-29.328-82.061-29.328s-65.004,9.856-82.061,29.319
		c-19.61,22.359-17.907,49.475-17.426,54.268v43.192c-5.257,6.117-8.209,13.9-8.209,21.923v32.808
		c0,10.189,4.572,19.693,12.401,26.107c7.497,29.364,22.924,51.594,28.625,59.127v26.782c0,7.552-4.119,14.493-10.754,18.121
		l-73.176,39.914c-2.333,1.268-4.646,2.749-6.959,4.405C51.827,390.767,21.509,328.112,21.509,258.5z"/>
</g>
</svg>
